<svg xmlns="http://www.w3.org/2000/svg" xmlns:xlink="http://www.w3.org/1999/xlink" width="832" height="60.389" viewBox="0 0 832 60.389">
  <defs>
    <clipPath id="clip-path">
      <rect width="832" height="60.389" fill="none"/>
    </clipPath>
  </defs>
  <g id="Repeat_Grid_9" data-name="Repeat Grid 9" clip-path="url(#clip-path)">
    <g transform="translate(1 -760.135)">
      <path id="Path_556" data-name="Path 556" d="M26,0H52L26,60.389H0Z" transform="translate(-1 760.135)" fill="#fff"/>
    </g>
    <g transform="translate(53 -760.135)">
      <path id="Path_556-2" data-name="Path 556" d="M26,0H52L26,60.389H0Z" transform="translate(-1 760.135)" fill="#fff"/>
    </g>
    <g transform="translate(105 -760.135)">
      <path id="Path_556-3" data-name="Path 556" d="M26,0H52L26,60.389H0Z" transform="translate(-1 760.135)" fill="#fff"/>
    </g>
    <g transform="translate(157 -760.135)">
      <path id="Path_556-4" data-name="Path 556" d="M26,0H52L26,60.389H0Z" transform="translate(-1 760.135)" fill="#fff"/>
    </g>
    <g transform="translate(209 -760.135)">
      <path id="Path_556-5" data-name="Path 556" d="M26,0H52L26,60.389H0Z" transform="translate(-1 760.135)" fill="#fff"/>
    </g>
    <g transform="translate(261 -760.135)">
      <path id="Path_556-6" data-name="Path 556" d="M26,0H52L26,60.389H0Z" transform="translate(-1 760.135)" fill="#fff"/>
    </g>
    <g transform="translate(313 -760.135)">
      <path id="Path_556-7" data-name="Path 556" d="M26,0H52L26,60.389H0Z" transform="translate(-1 760.135)" fill="#fff"/>
    </g>
    <g transform="translate(365 -760.135)">
      <path id="Path_556-8" data-name="Path 556" d="M26,0H52L26,60.389H0Z" transform="translate(-1 760.135)" fill="#fff"/>
    </g>
    <g transform="translate(417 -760.135)">
      <path id="Path_556-9" data-name="Path 556" d="M26,0H52L26,60.389H0Z" transform="translate(-1 760.135)" fill="#fff"/>
    </g>
    <g transform="translate(469 -760.135)">
      <path id="Path_556-10" data-name="Path 556" d="M26,0H52L26,60.389H0Z" transform="translate(-1 760.135)" fill="#fff"/>
    </g>
    <g transform="translate(521 -760.135)">
      <path id="Path_556-11" data-name="Path 556" d="M26,0H52L26,60.389H0Z" transform="translate(-1 760.135)" fill="#fff"/>
    </g>
    <g transform="translate(573 -760.135)">
      <path id="Path_556-12" data-name="Path 556" d="M26,0H52L26,60.389H0Z" transform="translate(-1 760.135)" fill="#fff"/>
    </g>
    <g transform="translate(625 -760.135)">
      <path id="Path_556-13" data-name="Path 556" d="M26,0H52L26,60.389H0Z" transform="translate(-1 760.135)" fill="#fff"/>
    </g>
    <g transform="translate(677 -760.135)">
      <path id="Path_556-14" data-name="Path 556" d="M26,0H52L26,60.389H0Z" transform="translate(-1 760.135)" fill="#fff"/>
    </g>
    <g transform="translate(729 -760.135)">
      <path id="Path_556-15" data-name="Path 556" d="M26,0H52L26,60.389H0Z" transform="translate(-1 760.135)" fill="#fff"/>
    </g>
    <g transform="translate(781 -760.135)">
      <path id="Path_556-16" data-name="Path 556" d="M26,0H52L26,60.389H0Z" transform="translate(-1 760.135)" fill="#fff"/>
    </g>
  </g>
</svg>
