<svg xmlns="http://www.w3.org/2000/svg" width="315.994" height="305.523" viewBox="0 0 315.994 305.523">
  <g id="Group_91" data-name="Group 91" transform="translate(-878 -1178.27)">
    <path id="Path_567" data-name="Path 567" d="M704.925,461.581a214.481,214.481,0,0,0-6.98-37.263,1.292,1.292,0,0,0-1.09-.841,1.365,1.365,0,0,0-1.29.558,102.085,102.085,0,0,0-16.022,35.413,1.281,1.281,0,0,0,1.911,1.341c10.4-7.07,21.684-13.024,31.761-20.506a1.118,1.118,0,0,0,.333-1.14,1.247,1.247,0,0,0-.908-.839,324.146,324.146,0,0,0-35.309-2.682,1.328,1.328,0,0,0-1.128.6,1.1,1.1,0,0,0,0,1.19c7.732,9.308,18.066,16.329,26.5,25.047,1.115,1.147,2.946-.533,1.84-1.681-8.281-8.556-18.508-15.432-26.09-24.57L677.331,438a319.727,319.727,0,0,1,34.619,2.594l-.575-1.988c-9.9,7.352-21.012,13.186-31.239,20.142l1.911,1.341a100.1,100.1,0,0,1,15.766-34.823l-2.345-.315a211.453,211.453,0,0,1,6.883,36.633c.168,1.511,2.769,1.527,2.6,0Z" transform="translate(165.977 1435.246) rotate(-31)" fill="#2f8d5b"/>
    <circle id="Ellipse_25" data-name="Ellipse 25" cx="5" cy="5" r="5" transform="translate(902 1424)" fill="#51b982"/>
    <circle id="Ellipse_30" data-name="Ellipse 30" cx="5" cy="5" r="5" transform="translate(1081 1189)" fill="#51b982"/>
    <circle id="Ellipse_29" data-name="Ellipse 29" cx="7" cy="7" r="7" transform="translate(909 1300)" fill="#51b982"/>
    <circle id="Ellipse_28" data-name="Ellipse 28" cx="8" cy="8" r="8" transform="translate(1038 1450)" fill="#51b982"/>
    <circle id="Ellipse_27" data-name="Ellipse 27" cx="7" cy="7" r="7" transform="translate(1006 1326)" fill="#51b982"/>
    <circle id="Ellipse_32" data-name="Ellipse 32" cx="7" cy="7" r="7" transform="translate(1081 1326)" fill="#51b982"/>
    <circle id="Ellipse_31" data-name="Ellipse 31" cx="7" cy="7" r="7" transform="translate(1166 1243)" fill="#51b982"/>
    <circle id="Ellipse_26" data-name="Ellipse 26" cx="3.5" cy="3.5" r="3.5" transform="translate(878 1267)" fill="#51b982"/>
    <g id="Group_25" data-name="Group 25" transform="translate(458 1163)">
      <path id="Path_445" data-name="Path 445" d="M516.82,226.54c-8.16-4.64-25.14-.74-31.18,6.07-2.53-6.76-1.95-10.73-10-14.32-4.39-1.71-9.74-2.27-14.32-.26-.3-9-2.18-20-13.69-22,3.42-8.79,6.18-17.73.31-26.29,4,.26,7.94,1.17,12.54.53,5.07-1.21,8.5-4.18,12.58-7,5.5,10.18,14.49,11.25,25,10.27,1.4,11.62,9.78,15.29,19.7,18.29-2.18,10.79-9,25.3-.92,34.71" fill="#51b982"/>
      <path id="Path_446" data-name="Path 446" d="M461.7,182.51c20.73,11.23,36.49,28.72,53.69,44.43,1.43,1.3,3.56-.81,2.13-2.12-17.4-15.89-33.35-33.55-54.31-44.9-1.7-.92-3.21,1.67-1.51,2.59Z" fill="#2f8d5b"/>
      <path id="Path_447" data-name="Path 447" d="M474,177.05c.06,4.22.94,8.33,1.5,12.5.2,1.57,2.71,1.59,2.5,0-.56-4.17-1.44-8.28-1.5-12.5a1.25,1.25,0,0,0-2.5,0Z" transform="translate(1)" fill="#2f8d5b"/>
      <path id="Path_448" data-name="Path 448" d="M491.21,182.55c.19,6.42-.22,12.83-.25,19.25a1.25,1.25,0,0,0,2.5,0c0-6.42.44-12.83.25-19.25A1.251,1.251,0,0,0,491.21,182.55Z" transform="translate(1)" fill="#2f8d5b"/>
      <path id="Path_449" data-name="Path 449" d="M460.71,197.05c6.84-.3,13.64-1.17,20.5-1.25a1.25,1.25,0,0,0,0-2.5c-6.86.08-13.66.95-20.5,1.25C459.1,194.62,459.09,197.12,460.71,197.05Z" transform="translate(1)" fill="#2f8d5b"/>
      <path id="Path_450" data-name="Path 450" d="M471.71,211.55A158,158,0,0,0,498,209.76c1.58-.23.91-2.64-.67-2.41a154.115,154.115,0,0,1-25.66,1.7,1.25,1.25,0,0,0,0,2.5Z" fill="#2f8d5b"/>
    </g>
    <g id="Group_56" data-name="Group 56" transform="translate(1123.63 1178.27)">
      <path id="Path_445-2" data-name="Path 445" d="M448.57,226.54c8.16-4.64,25.14-.74,31.18,6.07,2.53-6.76,1.95-10.73,10-14.32,4.39-1.71,9.74-2.27,14.32-.26.3-9,2.18-20,13.69-22-3.42-8.79-6.18-17.73-.31-26.29-4,.26-7.94,1.17-12.54.53-5.07-1.21-8.5-4.18-12.58-7-5.5,10.18-14.49,11.25-25,10.27-1.4,11.62-9.78,15.29-19.7,18.29,2.18,10.79,9,25.3.92,34.71" transform="translate(-447.396 -163.27)" fill="#51b982"/>
      <path id="Path_446-2" data-name="Path 446" d="M517.248,182.51c-20.73,11.23-36.49,28.72-53.69,44.43-1.43,1.3-3.56-.81-2.13-2.12,17.4-15.89,33.35-33.55,54.31-44.9,1.7-.92,3.21,1.67,1.51,2.59Z" transform="translate(-460.954 -163.27)" fill="#2f8d5b"/>
      <path id="Path_447-2" data-name="Path 447" d="M478.012,177.05c-.06,4.22-.94,8.33-1.5,12.5-.2,1.57-2.71,1.59-2.5,0,.56-4.17,1.44-8.28,1.5-12.5a1.25,1.25,0,0,1,2.5,0Z" transform="translate(-435.019 -163.27)" fill="#2f8d5b"/>
      <path id="Path_448-2" data-name="Path 448" d="M493.508,182.55c-.19,6.42.22,12.83.25,19.25a1.25,1.25,0,0,1-2.5,0c0-6.42-.44-12.83-.25-19.25A1.251,1.251,0,0,1,493.508,182.55Z" transform="translate(-467.724 -163.27)" fill="#2f8d5b"/>
      <path id="Path_449-2" data-name="Path 449" d="M481.249,197.05c-6.84-.3-13.64-1.17-20.5-1.25a1.25,1.25,0,0,1,0-2.5c6.86.08,13.66.95,20.5,1.25C482.859,194.62,482.869,197.12,481.249,197.05Z" transform="translate(-424.965 -163.27)" fill="#2f8d5b"/>
      <path id="Path_450-2" data-name="Path 450" d="M497.612,211.55a158,158,0,0,1-26.29-1.79c-1.58-.23-.91-2.64.67-2.41a154.115,154.115,0,0,0,25.66,1.7,1.25,1.25,0,0,1,0,2.5Z" transform="translate(-451.328 -163.27)" fill="#2f8d5b"/>
    </g>
    <g id="Group_38" data-name="Group 38" transform="translate(557 1159)">
      <g id="Group_39" data-name="Group 39">
        <path id="Path_379" data-name="Path 379" d="M516.35,85.81l-17.16,59.9,1.81-1c-34.71-8.81-68.7-20.19-103.13-30l1,1.8,17.66-58.23-1.81,1,89.72,24.75,12.91,3.56a1.473,1.473,0,0,0,.78-2.84L428.44,60l-12.92-3.56a1.51,1.51,0,0,0-1.81,1l-17.65,58.23a1.49,1.49,0,0,0,1,1.81c34.43,9.79,68.43,21.17,103.13,30a1.49,1.49,0,0,0,1.81-1l17.16-59.9a1.47,1.47,0,0,0-2.83-.78Z" transform="translate(-2)" fill="#707070"/>
        <path id="Path_384" data-name="Path 384" d="M504.68,93.75c3.15,0,3.15-4.9,0-4.9S501.52,93.75,504.68,93.75Z" transform="translate(-2)" fill="#707070"/>
        <path id="Path_385" data-name="Path 385" d="M410.18,113.69c3.15,0,3.16-4.9,0-4.9S407.02,113.69,410.18,113.69Z" transform="translate(-2)" fill="#707070"/>
        <path id="Path_386" data-name="Path 386" d="M422.84,70.7c3.15,0,3.16-4.9,0-4.9S419.68,70.7,422.84,70.7Z" transform="translate(-2)" fill="#707070"/>
        <path id="Path_387" data-name="Path 387" d="M447.29,90.9c3.15,0,3.15-4.9,0-4.9S444.13,90.9,447.29,90.9Z" transform="translate(-2)" fill="#707070"/>
        <path id="Path_388" data-name="Path 388" d="M450.9,79c3.15,0,3.15-4.9,0-4.9S447.74,79,450.9,79Z" transform="translate(-2)" fill="#707070"/>
        <path id="Path_389" data-name="Path 389" d="M420,83.57c3.16,0,3.16-4.9,0-4.9S416.84,83.57,420,83.57Z" transform="translate(-2)" fill="#707070"/>
        <path id="Path_390" data-name="Path 390" d="M445.41,108.93c3.16,0,3.16-4.9,0-4.9S442.25,108.93,445.41,108.93Z" transform="translate(-2)" fill="#707070"/>
        <path id="Path_391" data-name="Path 391" d="M418.47,100c3.16,0,3.16-4.9,0-4.9S415.31,100,418.47,100Z" transform="translate(-2)" fill="#707070"/>
        <path id="Path_392" data-name="Path 392" d="M439.24,122.82c3.15,0,3.15-4.9,0-4.9S436.08,122.82,439.24,122.82Z" transform="translate(-2)" fill="#707070"/>
        <path id="Path_393" data-name="Path 393" d="M466.75,115.23c3.15,0,3.16-4.9,0-4.9S463.59,115.23,466.75,115.23Z" fill="#707070"/>
        <path id="Path_394" data-name="Path 394" d="M499,124.79c3.15,0,3.16-4.9,0-4.9S495.84,124.79,499,124.79Z" fill="#707070"/>
        <path id="Path_395" data-name="Path 395" d="M492.61,136.74c3.16,0,3.16-4.9,0-4.9S489.46,136.74,492.61,136.74Z" fill="#707070"/>
        <path id="Path_396" data-name="Path 396" d="M463.65,129c3.15,0,3.15-4.9,0-4.9S460.49,129,463.65,129Z" fill="#707070"/>
        <path id="Path_397" data-name="Path 397" d="M482.68,120.79c3.15,0,3.16-4.9,0-4.9S479.52,120.79,482.68,120.79Z" fill="#707070"/>
        <path id="Path_398" data-name="Path 398" d="M425.33,115.55c3.15,0,3.16-4.9,0-4.9S422.17,115.55,425.33,115.55Z" transform="translate(-2)" fill="#707070"/>
        <path id="Path_399" data-name="Path 399" d="M433.71,85.27c3.15,0,3.16-4.9,0-4.9S430.55,85.27,433.71,85.27Z" transform="translate(-2)" fill="#707070"/>
        <path id="Path_400" data-name="Path 400" d="M475.83,84.68c3.15,0,3.16-4.9,0-4.9S472.67,84.68,475.83,84.68Z" transform="translate(-2)" fill="#707070"/>
        <path id="Path_401" data-name="Path 401" d="M472.14,98c3.16,0,3.16-4.9,0-4.9S468.98,98,472.14,98Z" fill="#707070"/>
        <path id="Path_402" data-name="Path 402" d="M498.8,105.39c3.15,0,3.15-4.9,0-4.9S495.64,105.39,498.8,105.39Z" fill="#707070"/>
        <path id="Path_403" data-name="Path 403" d="M486,99.68c3.15,0,3.16-4.9,0-4.9S482.84,99.68,486,99.68Z" transform="translate(-2)" fill="#707070"/>
        <path id="Path_404" data-name="Path 404" d="M436.69,75.09c3.15,0,3.16-4.9,0-4.9S433.53,75.09,436.69,75.09Z" transform="translate(-2)" fill="#707070"/>
        <path id="Path_405" data-name="Path 405" d="M431.31,103.55c3.15,0,3.15-4.9,0-4.9S428.15,103.55,431.31,103.55Z" transform="translate(-2)" fill="#707070"/>
        <path id="Path_406" data-name="Path 406" d="M479.71,133.79c3.15,0,3.15-4.9,0-4.9S476.55,133.79,479.71,133.79Z" fill="#707070"/>
        <path id="Path_407" data-name="Path 407" d="M491.54,88.8c3.15,0,3.15-4.9,0-4.9S488.38,88.8,491.54,88.8Z" transform="translate(-2)" fill="#707070"/>
      </g>
      <path id="Path_380" data-name="Path 380" d="M464.87,68.51,444.42,135c-.93,3,3.8,4.32,4.72,1.31l20.46-66.5c.92-3-3.8-4.31-4.73-1.3Z" transform="translate(-2)" fill="#51b982"/>
      <path id="Path_381" data-name="Path 381" d="M514.66,113.3c-36.93-10.24-73.53-21.69-110.46-31.93-3.05-.85-4.35,3.88-1.31,4.72,36.94,10.25,73.53,21.69,110.47,31.94C516.36,118.87,517.7,114.15,514.66,113.3Z" transform="translate(-2)" fill="#51b982"/>
      <path id="Path_382" data-name="Path 382" d="M468.93,71c.38-1.33.79-2.66,1.25-4,.21-.6.43-1.2.66-1.79.11-.28.21-.56.33-.83a4.2,4.2,0,0,0,.16-.41l.09-.21-.1.24a46.1,46.1,0,0,1,3.08-6c.52-.85,1.08-1.68,1.67-2.48.13-.19.27-.37.4-.55-.59.8,0,0,.14-.16l.86-1c.57-.64,1.17-1.26,1.8-1.84.3-.29.61-.56.93-.83l.44-.36.22-.18a3.358,3.358,0,0,0-.33.26l.16-.13a20.42,20.42,0,0,1,3.75-2.26l.45-.21-.31.13.28-.11.93-.34a19.111,19.111,0,0,1,1.86-.51l.93-.17h.22c.42-.07-.64.07-.38,0l.49-.06a16.17,16.17,0,0,1,3.5,0h-.2l.42.07.83.17c.52.13,1,.29,1.55.47l.36.14.18.07-.33-.14c.24.11.47.21.7.33a13.426,13.426,0,0,1,1.33.76l.63.43.14.11-.32-.25.3.25a12,12,0,0,1,1,1c.16.17.32.36.47.54.34.41-.43-.57-.15-.2l.22.3a9.319,9.319,0,0,1,.69,1.18c.05.1.1.19.14.29a1,1,0,0,0,.07.15c.13.28-.3-.73-.17-.38s.17.42.23.64a9.3,9.3,0,0,1,.3,1.29c-.19-1.12,0-.27,0,.06v.67a2.725,2.725,0,0,1-.06.69c.11-1.06.05-.29,0,.08a9.458,9.458,0,0,1-.43,1.37c-.12.32.31-.7.16-.38l-.07.16c-.05.12-.11.23-.17.35a7.686,7.686,0,0,1-.39.69c-.15.24-.3.47-.47.69a1.671,1.671,0,0,1-.12.16c-.18.25.48-.6.23-.29l-.28.33a13.391,13.391,0,0,1-1.29,1.32c-.25.23-.5.44-.77.65s-.49.35.26-.19l-.2.15-.44.31a25.082,25.082,0,0,1-4.24,2.36c-.22.1-1,.42-.08,0l-.66.27-1.38.52c-1,.35-2,.66-3,.94a64.761,64.761,0,0,1-7.17,1.51l-1,.14-.5.07c-.39.06.27,0,.28,0h-.37c-.73.1-1.46.18-2.19.26-1.52.16-3.05.28-4.57.38s-3.33.17-5,.21a2.45,2.45,0,1,0,0,4.9,99.85,99.85,0,0,0,18.66-2,41.89,41.89,0,0,0,11.95-4.3,17.88,17.88,0,0,0,6.62-6.1,10.92,10.92,0,0,0,1.44-7.36,11.49,11.49,0,0,0-3-5.93,15.471,15.471,0,0,0-6.16-3.95,17,17,0,0,0-7.48-.93,20.92,20.92,0,0,0-8.77,2.89A28.851,28.851,0,0,0,471.89,53a48,48,0,0,0-6.45,12.8c-.45,1.29-.86,2.6-1.23,3.91a2.45,2.45,0,0,0,4.72,1.3Z" transform="translate(-2)" fill="#51b982"/>
      <path id="Path_383" data-name="Path 383" d="M468.13,71.44c1.86-11.42,3-35.8-11.06-40.55-6.13-2.08-15.66,1-18.18,7.33-2.59,6.48,2.69,13.3,6.72,17.86,5.5,6.22,12.15,11.08,18.42,16.44,2.39,2,5.87-1.41,3.47-3.47-5.32-4.54-32.8-23.73-21.88-31.51C464.06,24.4,465,60.43,463.4,70.14,462.9,73.22,467.62,74.55,468.13,71.44Z" transform="translate(-2)" fill="#51b982"/>
    </g>
    <g id="Group_42" data-name="Group 42" transform="matrix(0.574, -0.819, 0.819, 0.574, 504.146, 1856.177)">
      <path id="Path_169" data-name="Path 169" d="M700.946,173.205c.649-.523,1.3-1.028,1.939-1.458a47.549,47.549,0,0,0-3.3-13.857,35.821,35.821,0,0,0-9.659,7.384C693.5,168,697.128,170.727,700.946,173.205Z" transform="translate(-3.36 -0.775)" fill="#51b982"/>
      <path id="Path_170" data-name="Path 170" d="M684.359,172.75a40.458,40.458,0,0,0-2.444,4.08c-3.987,6.743,5.057,11.876,8.867,7.535,1.239-1.424,2.529-2.832,3.785-4.172C691.1,177.833,687.731,175.279,684.359,172.75Z" transform="translate(-1.945 -3.11)" fill="#51b982"/>
      <path id="Path_171" data-name="Path 171" d="M712.164,168.886h.244c3.742-3.86,7.308-7.889,10.865-11.927a20.027,20.027,0,0,0-14.523-1.871,52.263,52.263,0,0,1,3.414,13.8Z" transform="translate(-6.317 -0.24)" fill="#51b982"/>
      <path id="Path_172" data-name="Path 172" d="M729.923,162.38c-3.565,4.037-7.131,8.075-10.856,11.961a7.925,7.925,0,0,1-.287,3.11c4.67.244,9.348.464,14.009.767C734.18,172.41,733.817,166.856,729.923,162.38Z" transform="translate(-7.893 -1.481)" fill="#51b982"/>
      <path id="Path_173" data-name="Path 173" d="M723.94,198.374c.843-1.5,1.686-3.034,2.529-4.644s1.618-3.372,2.31-5.057c-4.965-.3-9.946-.531-14.919-.843-2.25,3.633-5.116,7.266-6.92,9.988l-.059.093A118.745,118.745,0,0,0,723.94,198.374Z" transform="translate(-6.023 -5.479)" fill="#51b982"/>
      <path id="Path_174" data-name="Path 174" d="M711.922,217.122c2.04-3.026,4.122-6.01,6.17-9.12a94.219,94.219,0,0,1-17.026-.952c-1.9,2.807-3.827,5.664-5.335,7.982C701.15,215.529,706.527,216.347,711.922,217.122Z" transform="translate(-4.272 -8.499)" fill="#51b982"/>
      <path id="Path_175" data-name="Path 175" d="M701.65,233.568c1.888-3.211,3.532-5.968,4.661-7.721-5.386-.767-10.772-1.5-16.192-1.837-1.214,1.871-2.967,4.636-4.939,7.889C690.676,232.3,696.154,233.012,701.65,233.568Z" transform="translate(-2.614 -11.164)" fill="#51b982"/>
      <path id="Path_176" data-name="Path 176" d="M692.1,249.859c1.45-2.419,2.933-4.931,4.383-7.392-5.529-.607-11.05-1.264-16.6-1.517-1.45,2.529-2.908,5.133-4.29,7.771C681.1,249.193,686.6,249.632,692.1,249.859Z" transform="translate(-1.109 -13.825)" fill="#51b982"/>
      <path id="Path_177" data-name="Path 177" d="M671.461,257.69c-2.765,6.06-1.441,7.586,2.984,9.567,3.321,1.863,5.7,2.579,11.413-6.119.455-.691.936-1.45,1.433-2.234C682.005,258.6,676.746,258.145,671.461,257.69Z" transform="translate(-0.232 -16.455)" fill="#51b982"/>
      <path id="Path_178" data-name="Path 178" d="M681.023,174.343c5.428-10.039,15.863-19.842,28.135-18.779,5.622.48,11.362,3.869,13.874,9.053,2.967,6.119.657,13.393-1.888,19.235-4.678,10.764-12.045,19.993-18.291,29.847-4.383,6.937-8.378,14.118-12.593,21.165a125.648,125.648,0,0,1-7.409,11.632c-1.13,1.5-2.992,4.155-5.142,4.214-1.4.059-3.169-1.037-4.332-1.728-4.172-2.478-1.408-6.625.379-10.115q4.434-8.6,9.44-16.858c3.709-6.136,7.519-12.247,11.5-18.2,4.965-7.426,10.78-14.616,15.172-22.4,1.627-2.916,3.641-6.945,2.166-10.308-1.188-2.714-4.4-3.978-7.207-3.717-5.057.472-9.44,4.99-12.761,8.429-2.1,2.175-4.273,6.263-7.78,5.673s-4.762-4.214-3.237-7.2c.716-1.416-1.424-2.672-2.141-1.247-1.559,3.085-1.585,6.457,1.1,8.943a7.256,7.256,0,0,0,8.252,1.273c2.217-1.256,3.827-3.886,5.563-5.689,2.579-2.664,5.42-5.529,8.876-7,3.835-1.635,8.125.219,7.08,4.83-.624,2.739-2.3,5.327-3.818,7.653-11.8,18.08-24.343,35.359-34.314,54.585-1.492,2.866-4.147,7.114-2.663,10.477,1.028,2.343,4.214,3.776,6.448,4.594,7.493,2.723,12.854-9.786,15.779-14.624,5.4-8.926,10.41-18.105,16.15-26.829,7.148-10.84,16.015-21.738,18.872-34.71,2.588-11.725-4.712-22.556-17.043-23.508-13.141-1.02-24.444,9.179-30.276,20.01-.759,1.4,1.382,2.655,2.141,1.247Z" transform="translate(0 0)" fill="#51b982"/>
    </g>
  </g>
</svg>
