<svg id="Layer_2" data-name="Layer 2" xmlns="http://www.w3.org/2000/svg" width="118.461" height="66.847" viewBox="0 0 118.461 66.847">
  <g id="Layer_3" data-name="Layer 3" transform="translate(0)">
    <g id="Asii">
      <path id="Path_1" data-name="Path 1" d="M33.478,29.992a11.724,11.724,0,0,1,2.057,1.551,18.313,18.313,0,0,0,2.2,1.254,14.859,14.859,0,0,0,5.62,1.3h1.474a15.936,15.936,0,0,0,6.533-1.738c-.418,1.771-3.3,4.707-4.509,5.906s-4.74,3.2-7.259,3.2h-.4c-4.971,0-5.741-4.245-5.741-9.205Zm.407-4.542c-.517.693-3.552,4.982-3.871,5.213a33.588,33.588,0,0,1-2.42-4.4,14.551,14.551,0,0,1-1.177-5.5v-.8a15.4,15.4,0,0,1,1.595-6.94,18.7,18.7,0,0,1,1.5-2.772A21.524,21.524,0,0,0,31.081,7.7L27.374,5.917A34.688,34.688,0,0,0,25.23,10c-.407,1.045-2.057,3.618-2.2,3.981h-.4L13.7,0,10.47,1.1,15.4,8.5,13.2,9.755A46.764,46.764,0,0,0,8.007,2.772C7.7,3.717,5.9,4.223,5.873,5.5l5.587,6.148-1.386,1.727L3.992,7.457l-.1.132L2.2,10.767c.682.99,6.291,4.762,6.291,5.345A6.6,6.6,0,0,1,7.7,17.85L1,13.6a17.476,17.476,0,0,0-1,3.442c0,.143,6.5,4.113,7.182,4.564a59.092,59.092,0,0,1,6.665,4.938c1.947,1.892,4.157,3.5,6.126,5.5s3.849,3.915,5.642,5.972A76.746,76.746,0,0,0,19.8,51.339c-.737,2.442-1.518,4.762-2.2,7.413a56.749,56.749,0,0,0-1.54,7.919H32.819l-.44-2.882V61.92c0-.946.385-4.4,1.1-4.4h2.409l7.336.154-.165,1.716v.671a23.57,23.57,0,0,0,.935,6.61h5.2l14,.176c-.363-1.628-1.716-4.245-2.343-6.093-.7-2.068-1.529-4.157-2.09-6.324s-1.3-4.564-1.672-6.731a64.36,64.36,0,0,1-1.2-7.006,39.591,39.591,0,0,0,3.585-1.76c1.188-.594,2.321-1.1,3.53-1.661a64.813,64.813,0,0,1,7.38-3.069c4.553-1.551,11-3.893,16.5-4.4v-2.75l-6.4,1.21a8.171,8.171,0,0,1-.132-.946V26.4l6.247-1.8-.385-2.86-6.368,2.332-.759-1.9,6.335-2.827-1.287-2.53-5.95,3.3c-.264-.187-1.342-1.331-1.342-1.617s5.29-3.431,5.862-3.739a14.232,14.232,0,0,0-2.134-2c-.33,0-5.5,3.3-6.313,3.7-1.364.715-5.169,3.365-6.225,3.64A18.5,18.5,0,0,1,67.452,18c-.132-.737-.22-1.551-.319-2.2a42.1,42.1,0,0,0-.836-4.245H61.9a31.391,31.391,0,0,0,.88,3.123,17.267,17.267,0,0,1,.594,3.409v1.1c0,6.159-4.4,10.4-8.414,12.549,0-2.057-.407-4.652-.4-6.808V17.861c0-2.09-5.356-6.665-7.468-6.665-.66,0-8,8.194-9.041,9.238a52.351,52.351,0,0,0-4.168,5.026Z" transform="translate(0)" fill="#fff"/>
      <path id="Path_2" data-name="Path 2" d="M69.447,42.272c0-2.882,1.859-3.871,4.8-3.871H86.274V33.33h-13.2c-5.422,0-8.535,2.519-8.535,7.875v2.673a6.731,6.731,0,0,0,7.1,7.2c4.663.066,10.811-1.3,10.811,3.3v.4c0,2.387-1.353,3.607-3.728,3.607h-13.2v5.07H79.345c5.5,0,8.139-3.156,8.139-8.678v-.8c-.011-14.793-18.037-2.453-18.037-11.438Z" transform="translate(6.441 3.327)" fill="#fff"/>
      <rect id="Rectangle_1" data-name="Rectangle 1" width="6.401" height="30.146" transform="translate(112.06 36.657)" fill="#fff"/>
      <rect id="Rectangle_2" data-name="Rectangle 2" width="6.269" height="30.146" transform="translate(99.116 36.657)" fill="#fff"/>
    </g>
  </g>
</svg>
