<svg xmlns="http://www.w3.org/2000/svg" xmlns:xlink="http://www.w3.org/1999/xlink" width="732.214" height="561.351" viewBox="0 0 732.214 561.351">
  <defs>
    <clipPath id="clip-path">
      <path id="Path_611" data-name="Path 611" d="M176.51,305.6l68.159-17.19,19.991,77.931-79.27,18.1Z" transform="translate(-176.51 -288.41)" fill="none"/>
    </clipPath>
    <clipPath id="clip-path-2">
      <path id="Path_619" data-name="Path 619" d="M167.422,299.27l70.3.246.046,80.455-81.286-2.124Z" transform="translate(-156.48 -299.27)" fill="none"/>
    </clipPath>
  </defs>
  <g id="Group_95" data-name="Group 95" transform="translate(-923.43 -1736.891)">
    <g id="ilustratie_" data-name="ilustratie " transform="translate(1225.257 1679.193)">
      <g id="OBJECTS" transform="translate(17.41 57.698)">
        <path id="Path_568" data-name="Path 568" d="M417.617,407.691c0,14.866-88.168,26.916-196.944,26.916S23.73,422.557,23.73,407.691s88.182-26.931,196.944-26.931S417.617,392.81,417.617,407.691Z" transform="translate(-4.64 126.744)" fill="#d9d9dd"/>
        <path id="Path_569" data-name="Path 569" d="M230.673,147.85s-101.4,16.528-127.253,29.24c0,0,5.155,11.927,14.358,20.006s113.234-5.925,113.234-5.925Z" transform="translate(18.896 15.334)" fill="#51b982"/>
        <path id="Path_570" data-name="Path 570" d="M241.12,357.94l3.955,51.431s24.238,12.527,63.173,2.616c0,0,4.617-16.928-10.988-21.545a91.878,91.878,0,0,1-14.327-5.294L284.841,358Z" transform="translate(67.226 114.445)" fill="#31312d"/>
        <path id="Path_571" data-name="Path 571" d="M243.45,389l.185,6.756s24.223,12.527,63.1,2.616a23.728,23.728,0,0,0,.554-7.371C284.847,397.71,266.226,395.4,243.45,389Z" transform="translate(68.482 131.184)" fill="#1e1e1b"/>
        <path id="Path_572" data-name="Path 572" d="M296.163,405.952a.339.339,0,0,1-.339-.292c-3-16.328-17.544-17.7-27.177-18.606-3.724-.339-6.417-.6-7.418-1.693-3.386-3.663-.893-21.052-.785-21.807a.338.338,0,0,1,.4-.292.369.369,0,0,1,.308.4c0,.185-2.555,17.805.6,21.222.816.877,3.524,1.139,6.971,1.462,9.234.877,24.623,2.339,27.793,19.19a.354.354,0,0,1-.277.416Z" transform="translate(77.11 117.31)" fill="#1e1e1b"/>
        <path id="Path_573" data-name="Path 573" d="M258.377,376.931a.357.357,0,0,1-.077-.708l17.544-3.6a.361.361,0,1,1,.138.708l-17.544,3.6Z" transform="translate(76.33 122.354)" fill="#1e1e1b"/>
        <path id="Path_574" data-name="Path 574" d="M258.578,373.891a.356.356,0,1,1-.077-.708l17.544-3.6a.354.354,0,0,1,.415.277.339.339,0,0,1-.277.415l-17.544,3.617Z" transform="translate(76.422 120.716)" fill="#1e1e1b"/>
        <path id="Path_575" data-name="Path 575" d="M258.806,369.971a.354.354,0,0,1-.354-.277.385.385,0,0,1,.277-.431l17.544-3.6a.369.369,0,0,1,.431.277.354.354,0,0,1-.277.416l-17.544,3.616Z" transform="translate(76.564 118.604)" fill="#1e1e1b"/>
        <path id="Path_576" data-name="Path 576" d="M240.124,357.94l-3.955,51.431s-24.238,12.527-63.1,2.616c0,0-4.617-16.928,10.988-21.545a92.519,92.519,0,0,0,14.343-5.294l-2.016-27.208Z" transform="translate(46.751 114.445)" fill="#31312d"/>
        <path id="Path_577" data-name="Path 577" d="M236.472,389l-.185,6.756s-24.223,12.527-63.1,2.616a23.732,23.732,0,0,1-.554-7.371C195.075,397.71,213.7,395.4,236.472,389Z" transform="translate(47.071 131.184)" fill="#1e1e1b"/>
        <path id="Path_578" data-name="Path 578" d="M174.334,405.952h0a.369.369,0,0,1-.292-.415c3.078-16.851,18.559-18.313,27.793-19.19,3.447-.323,6.156-.585,6.987-1.462,3.078-3.416.616-21.037.585-21.222a.369.369,0,0,1,.308-.4.339.339,0,0,1,.4.292c.108.754,2.6,18.144-.785,21.807-1,1.093-3.693,1.354-7.418,1.693-9.634.908-24.176,2.278-27.177,18.606a.338.338,0,0,1-.4.292Z" transform="translate(49.44 117.31)" fill="#1e1e1b"/>
        <path id="Path_579" data-name="Path 579" d="M205.536,376.931h0l-17.544-3.6a.361.361,0,0,1,.138-.708l17.544,3.6a.361.361,0,0,1-.138.708Z" transform="translate(55.789 122.354)" fill="#1e1e1b"/>
        <path id="Path_580" data-name="Path 580" d="M205.381,373.908H205.3l-17.544-3.663a.338.338,0,0,1-.277-.415.354.354,0,0,1,.415-.277l17.544,3.6a.354.354,0,0,1,.277.415A.339.339,0,0,1,205.381,373.908Z" transform="translate(55.703 120.7)" fill="#1e1e1b"/>
        <path id="Path_581" data-name="Path 581" d="M205.13,369.971h-.077l-17.544-3.616a.354.354,0,0,1-.277-.416.369.369,0,0,1,.431-.277l17.544,3.6a.385.385,0,0,1,.277.431A.354.354,0,0,1,205.13,369.971Z" transform="translate(55.608 118.604)" fill="#1e1e1b"/>
        <path id="Path_582" data-name="Path 582" d="M193.988,247.21s-6.048,140.042-6.048,165.265a83.1,83.1,0,0,0,44.2,0l13.035-121.052a109.8,109.8,0,0,0,17.775-.8L271.1,411.059s20.483,12.111,43.09,3.078l-3.832-165.388Z" transform="translate(38.566 59.261)" fill="#51b982"/>
        <path id="Path_583" data-name="Path 583" d="M185.543,354.292s-1.431,6.233,0,8.556c0,0,17.282,10.157,50.415,1.247,0,0,2.508-7.479,0-9.8s-21.376,2.139-32.317,1.431S189.99,350.907,185.543,354.292Z" transform="translate(52.43 111.768)" fill="#2f8d5b"/>
        <path id="Path_584" data-name="Path 584" d="M290.168,354.292s1.416,6.233,0,8.556c0,0-17.282,10.157-50.43,1.247,0,0-2.493-7.479,0-9.8s21.376,2.139,32.317,1.431S285.706,350.907,290.168,354.292Z" transform="translate(65.884 111.768)" fill="#2f8d5b"/>
        <path id="Path_585" data-name="Path 585" d="M220.031,276.527a51.566,51.566,0,0,1-9.233-.369l-.108-.108V275.9h.369l.154-.308c1.046.339,20.837.339,39.535-.477,5.34-.231,10.08-.508,14.1-.831V275c-4.017.308-8.772.585-14.112.816C240.991,276.25,228.449,276.527,220.031,276.527Z" transform="translate(61.732 77.071)" fill="#747699"/>
        <rect id="Rectangle_40" data-name="Rectangle 40" width="0.708" height="16.174" transform="translate(311.333 352.595) rotate(-54.75)" fill="#747699"/>
        <path id="Path_586" data-name="Path 586" d="M188.863,149.765s-6.294,19.39-2.724,39.335c0,0-8.064,22.776-1.2,44.09,0,0-3.324,20.529,2.432,37.95,0,0-.708,21.868,9.726,33.3,0,0,32.548,19.452,116.342,1.539a48.832,48.832,0,0,0,2.8-11.219A52.831,52.831,0,0,0,314.9,273.34s7.695-19.744.108-35.564c0,0-24.053-28.578-6.848-82.563,0,0,17.482,2.878,19.652,16.928A30.778,30.778,0,0,0,303.051,143.9C278.86,138.392,199.267,140.993,188.863,149.765Z" transform="translate(35.458 10.223)" fill="#494e72"/>
        <path id="Path_587" data-name="Path 587" d="M217.545,159.19s-16.928,95.983,2.478,144.135" transform="translate(65.172 19.217)" fill="none" stroke="#272525" stroke-miterlimit="10" stroke-width="1"/>
        <path id="Path_588" data-name="Path 588" d="M312.943,241.308S238.166,259.452,188.29,240.2" transform="translate(38.755 60.455)" fill="none" stroke="#272525" stroke-miterlimit="10" stroke-width="1"/>
        <path id="Path_589" data-name="Path 589" d="M313.08,227.771s-81.332,14.45-127.53-2.2" transform="translate(37.278 53.401)" fill="none" stroke="#272525" stroke-linecap="round" stroke-linejoin="round" stroke-width="0.5"/>
        <path id="Path_590" data-name="Path 590" d="M314.04,205.507s-95.69,12-130.07-4.617" transform="translate(36.427 41.461)" fill="none" stroke="#272525" stroke-linecap="round" stroke-linejoin="round" stroke-width="0.5"/>
        <path id="Path_591" data-name="Path 591" d="M300.565,175.63s-84.056,8.187-115.835-3.37" transform="translate(46.832 27.661)" fill="none" stroke="#272525" stroke-linecap="round" stroke-linejoin="round" stroke-width="0.5"/>
        <path id="Path_592" data-name="Path 592" d="M273.724,232.272c-8.2-6.787-12.681-16.082-16.143-30.778s-.816-50.507,9.911-53.462c12.865-3.54,19.744,15.8,19.744,15.8" transform="translate(75.327 14.775)" fill="none" stroke="#272525" stroke-linecap="round" stroke-linejoin="round" stroke-width="0.5"/>
        <path id="Path_593" data-name="Path 593" d="M268.532,117.58l-50.784,20.175C221.7,144.5,204.19,155.9,204.19,155.9c1.862.585,1.077,28.886,26.392,27.177,22.668,1.708,36.365-30.271,36.365-30.271a24.887,24.887,0,0,1-1.293-6.248C264.562,134.57,268.532,117.58,268.532,117.58Z" transform="translate(58.49 0.716)" fill="#9a614f"/>
        <path id="Path_594" data-name="Path 594" d="M289.761,57.556s20.545,0,25.392,17.205,2.124,41.92-9.234,51.923S193.7,114.573,193.7,114.573s-10.849,9.234-19.467-.139c-5.833-8.464-2.662-14.22,3.078-16.113A14.635,14.635,0,0,1,166.2,86.842c-1.8-9.7,8.772-12.788,13.958-13.85,2.216-.477,14.327-12.835,23.084-20.006C215.555,42.659,262.646,21.807,289.761,57.556Z" transform="translate(36.895 -37.492)" fill="#1e1e1b"/>
        <path id="Path_595" data-name="Path 595" d="M281.183,98.86s12.742-5.309,17.944,3.463,5.694,26.377-14.928,27.5c0,0-5.94,39.52-45.875,41.551S189.74,143.3,187.94,128.915,184,100.568,184,100.568s9.941-1.539,29.163-14.25,41.551-23.3,49.245-22.822C262.3,63.5,266.994,92.242,281.183,98.86Z" transform="translate(46.347 -23.487)" fill="#9a614f"/>
        <path id="Path_596" data-name="Path 596" d="M282.744,118.327s-4.832,1.785-4.2-12.665,1.17-19.621-3.493-20.729-8.818,5.432-9.234,16.928-3.878,27.5-16.143,28.332-12.912-11.665-28.609-10.126S205.675,135.255,200.3,132.7s-7.572-12.865-13.6-13.342c.631,10.772,2.324,51.169,44.029,49.076S282.775,142.2,282.744,118.327Z" transform="translate(49.443 -11.991)" fill="#1e1e1b"/>
        <path id="Path_597" data-name="Path 597" d="M212.683,116.962a4.617,4.617,0,0,0,2.154-1.17,5.648,5.648,0,0,0,1.462-3.955.508.508,0,0,0-.523-.477.492.492,0,0,0-.462.523,4.725,4.725,0,0,1-1.185,3.216,4.494,4.494,0,0,1-3.586,1.047.477.477,0,0,0-.523.446.508.508,0,0,0,.462.539,7.234,7.234,0,0,0,2.2-.169Z" transform="translate(65.116 -1.778)" fill="#9a614f"/>
        <path id="Path_598" data-name="Path 598" d="M194.176,103.085a2.909,2.909,0,1,0,1.539-4.217,3.247,3.247,0,0,0-1.539,4.217Z" transform="translate(58.952 -4.505)" fill="#272525"/>
        <path id="Path_599" data-name="Path 599" d="M219.341,99.527a2.909,2.909,0,1,0,1.616-4.217A3.247,3.247,0,0,0,219.341,99.527Z" transform="translate(68.644 -6.411)" fill="#272525"/>
        <path id="Path_600" data-name="Path 600" d="M211.621,117.633a.523.523,0,0,0,.354-.339.492.492,0,0,0-.323-.616c-.092,0-8.88-2.832-8.649-6.864a2.447,2.447,0,0,1,.539-1.708c.431-.354,1.339-.215,2.493,0a16.7,16.7,0,0,0,5.555,0,2.293,2.293,0,0,0,1.647-1.247c2.6-4.617-4.278-22.084-4.617-22.822a.49.49,0,1,0-.908.369c1.954,4.909,6.587,18.467,4.617,21.976a1.324,1.324,0,0,1-.97.754,15.7,15.7,0,0,1-5.232,0c-1.4-.2-2.493-.354-3.262.262a3.247,3.247,0,0,0-.893,2.416c-.277,4.786,8.941,7.695,9.341,7.864a.508.508,0,0,0,.308-.046Z" transform="translate(61.651 -12.574)" fill="#272525"/>
        <path id="Path_601" data-name="Path 601" d="M251.123,111.36a.445.445,0,0,0,.185-.108.492.492,0,0,0,0-.693c-3.078-3.77-3.755-10.772-1.416-15.866,1.539-3.339,4.032-5.217,7.033-5.278,5.894-.108,6.694,6.771,6.74,7.064a.492.492,0,1,0,.97-.108s-.939-8.064-7.695-7.941c-3.386,0-6.156,2.154-7.895,5.848-2.493,5.448-1.816,12.865,1.539,16.928a.539.539,0,0,0,.539.154Z" transform="translate(78.659 -10.042)" fill="#272525"/>
        <path id="Path_602" data-name="Path 602" d="M259.519,98.616l.2-.108a.508.508,0,0,0,0-.708,8.3,8.3,0,0,0-6.156-2.8c-2.216.185-4.186,1.693-5.879,4.463a.494.494,0,1,0,.846.508c1.539-2.478,3.232-3.832,5.109-3.986a7.4,7.4,0,0,1,5.386,2.478A.523.523,0,0,0,259.519,98.616Z" transform="translate(79.092 -6.5)" fill="#272525"/>
        <path id="Path_603" data-name="Path 603" d="M243.047,87.35s-8.295-7.233-14.481-8.787-14.727-4.124-16.036.693,1,7.156,4.463,8.218S246.386,92.182,243.047,87.35Z" transform="translate(64.133 -16.486)" fill="#1e1e1b"/>
        <path id="Path_604" data-name="Path 604" d="M185.5,101c-.785-1.647-2.124-9.5,2.986-12.665s11.973-7.925,14.42-3.586,1.016,7.218-1.77,9.234a94.935,94.935,0,0,1-15.635,7.079" transform="translate(54.588 -12.963)" fill="#1e1e1b"/>
        <path id="Path_605" data-name="Path 605" d="M213.943,139.131a12.681,12.681,0,0,0-10.772,3.078c-5.14,4.447,7.141,26.454,19.1,27.962C222.254,170.11,208.542,151.35,213.943,139.131Z" transform="translate(61.078 11.291)" fill="#3b4263"/>
        <path id="Path_606" data-name="Path 606" d="M215.15,171.469s34.333-9.064,45.044-32.81l-.416-2.247s10.018-.492,12.188,7.094S247.236,175.162,215.15,171.469Z" transform="translate(63.123 10.034)" fill="#3b4263"/>
        <path id="Path_607" data-name="Path 607" d="M186.184,306.168s-2.97-21.991,13.419-25.361,22.653,16.282,22.653,16.282l-3.94,1.062s-6.756-15.789-17.928-13.5-9.418,20.314-9.418,20.314Z" transform="translate(53.95 79.477)" fill="#59966d"/>
        <path id="Path_608" data-name="Path 608" d="M176.51,305.6l68.159-17.19,19.991,77.931-79.27,18.1Z" transform="translate(46.59 81.242)" fill="#51b982"/>
        <path id="Path_609" data-name="Path 609" d="M220.8,288.41l26.762,71.975-6.771,5.956Z" transform="translate(67.73 81.834)" fill="#2f8d5b"/>
        <g id="Group_66" data-name="Group 66" transform="translate(223.1 369.652)" clip-path="url(#clip-path)">
          <rect id="Rectangle_41" data-name="Rectangle 41" width="1.568" height="69.554" transform="matrix(0.541, -0.841, 0.841, 0.541, -13.477, 70.443)" fill="#fff"/>
          <rect id="Rectangle_42" data-name="Rectangle 42" width="1.57" height="69.652" transform="matrix(0.536, -0.844, 0.844, 0.536, -4.417, 55.396)" fill="#fff"/>
          <rect id="Rectangle_43" data-name="Rectangle 43" width="1.57" height="95.736" transform="translate(-7.267 36.812) rotate(-57.45)" fill="#fff"/>
          <rect id="Rectangle_44" data-name="Rectangle 44" width="1.57" height="128.623" transform="matrix(0.55, -0.835, 0.835, 0.55, -13.187, 12.958)" fill="#fff"/>
          <path id="Path_610" data-name="Path 610" d="M273,353.8l-93.536-58.31.831-1.323,93.536,58.294Z" transform="translate(-174.92 -285.306)" fill="#fff"/>
          <rect id="Rectangle_45" data-name="Rectangle 45" width="1.568" height="69.554" transform="matrix(0.541, -0.841, 0.841, 0.541, 27.561, 10.035)" fill="#fff"/>
          <rect id="Rectangle_46" data-name="Rectangle 46" width="1.57" height="69.652" transform="matrix(0.536, -0.844, 0.844, 0.536, 36.221, -4.909)" fill="#fff"/>
        </g>
        <path id="Path_612" data-name="Path 612" d="M85.159,114.923S69,119.539,71.416,144.531s25.854,19.575,27.362,42.09S86.3,215.03,85.174,226.294s4.432,16.3,6.156,31.163-6.156,36.657-6.156,36.657,85.779,12.758,117.789-5.248c0,0,8.064-68.928,20.775-76.531s21.022-25.715,17.1-46.291c-2.678-14.112-27.224-35.872-28.055-52.954s-5.248-49.876-44.413-52.323S97.732,79.158,85.159,114.923Z" transform="translate(6.425 -25.053)" fill="#9a614f"/>
        <path id="Path_613" data-name="Path 613" d="M203.732,272.71l5.032,12.742-21.453,7.218L185.48,277Z" transform="translate(54.626 75.905)" fill="#83df7d"/>
        <path id="Path_614" data-name="Path 614" d="M170.31,161.85s24.453,13.281,30.332,41.689,11.25,128.915,11.25,128.915l-12.942,2.77L186.915,275.53Z" transform="translate(47.762 19.807)" fill="#2f8d5b"/>
        <path id="Path_615" data-name="Path 615" d="M173.5,306.749s2.57-22.007,19.237-21.253,17.913,21.391,17.913,21.391h-4.078s-2.632-16.928-14.02-17.528-14.158,17.359-14.158,17.359Z" transform="translate(49.233 82.023)" fill="#ff5656"/>
        <path id="Path_616" data-name="Path 616" d="M167.422,299.27l70.3.246.046,80.455-81.286-2.124Z" transform="translate(40.065 86.907)" fill="#ff9191"/>
        <path id="Path_617" data-name="Path 617" d="M209.27,299.43l8.079,76.346-8.033,4.109Z" transform="translate(64.706 86.991)" fill="#ff5656"/>
        <g id="Group_67" data-name="Group 67" transform="translate(196.545 386.177)" clip-path="url(#clip-path-2)">
          <path id="Path_618" data-name="Path 618" d="M195.281,380.061,147.59,329.292l1.154-1.062,47.676,50.754Z" transform="translate(-161.271 -283.663)" fill="#fff"/>
          <rect id="Rectangle_47" data-name="Rectangle 47" width="1.57" height="69.652" transform="matrix(0.729, -0.685, 0.685, 0.729, -2.816, 35.957)" fill="#fff"/>
          <rect id="Rectangle_48" data-name="Rectangle 48" width="1.57" height="95.736" transform="translate(-0.949 17.177) rotate(-43.1)" fill="#fff"/>
          <rect id="Rectangle_49" data-name="Rectangle 49" width="1.57" height="128.623" transform="translate(-0.786 -7.321) rotate(-42.3)" fill="#fff"/>
          <rect id="Rectangle_50" data-name="Rectangle 50" width="1.57" height="110.218" transform="matrix(0.723, -0.691, 0.691, 0.723, 17.087, -5.62)" fill="#fff"/>
          <rect id="Rectangle_51" data-name="Rectangle 51" width="1.57" height="69.652" transform="matrix(0.729, -0.685, 0.685, 0.729, 40.664, -2.777)" fill="#fff"/>
          <rect id="Rectangle_52" data-name="Rectangle 52" width="1.57" height="69.652" transform="matrix(0.729, -0.685, 0.685, 0.729, 51.543, -12.454)" fill="#fff"/>
        </g>
        <path id="Path_620" data-name="Path 620" d="M185.65,283.842s10.772-12.835,19.791-4.894-2.2,18.606-12,18.128S185.65,283.842,185.65,283.842Z" transform="translate(54.626 77.643)" fill="#2f8d5b"/>
        <path id="Path_621" data-name="Path 621" d="M188.528,369.14s-.246-4.217-19.791-3.37c-18.467.8-19.267,3.263-19.267,3.263s10.772,13.466,21.545,11.742S188.528,369.14,188.528,369.14Z" transform="translate(40.156 118.604)" fill="#634c47"/>
        <path id="Path_622" data-name="Path 622" d="M153.018,371.985s-.246-4.217-19.791-3.355c-18.467.8-19.267,3.247-19.267,3.247s10.772,13.466,21.545,11.742S153.018,371.985,153.018,371.985Z" transform="translate(26.923 120.144)" fill="#634c47"/>
        <path id="Path_623" data-name="Path 623" d="M209.038,351.393c-2.909,36.38-8.156,97.244-8.156,97.244s-8.664,5.74-22.1.154c0,0-6.279-73.283-9.926-96.737s-6.971-48.615-6.971-48.615h-2.016s-.846,57.294-5.048,92.335-7.541,54.062-7.541,54.062a25.238,25.238,0,0,1-23.622-1.539s-10.6-87.811-12.65-108.709c-1.539-15.512-.985-56.34-.616-76.361a361.4,361.4,0,0,1,96.675,9.9C208.868,295.715,210.838,329.156,209.038,351.393Z" transform="translate(22.664 63.298)" fill="#31312d"/>
        <path id="Path_624" data-name="Path 624" d="M206.4,252.882l-1.677,1.693s1.077,9.941,2.2,24.238a361.4,361.4,0,0,0-96.675-9.9c.138-6.941.231-11.373.231-11.373S145.26,250.973,206.4,252.882Z" transform="translate(22.92 66.039)" fill="#1e1e1b"/>
        <path id="Path_625" data-name="Path 625" d="M166.468,404.182s.754,7.941-9.357,7.556-26.746-4.817-33.395-10.942-4.771-10.526-4.771-10.526Z" transform="translate(28.31 131.869)" fill="#634c47"/>
        <path id="Path_626" data-name="Path 626" d="M152.981,370.33s.662,16.836-.215,27.147c0,0,23.838,15.112,13.727,21.052s-41.459-7.387-45.952-16.59A109.986,109.986,0,0,1,114,370.9S137.638,379.056,152.981,370.33Z" transform="translate(26.263 121.123)" fill="#83df7d"/>
        <path id="Path_627" data-name="Path 627" d="M128.969,393.357a60.724,60.724,0,0,0,18.467-4.17l-.292-.646A63.881,63.881,0,0,1,120.12,392.8v.708a73.681,73.681,0,0,0,8.849-.154Z" transform="translate(29.711 130.936)" fill="#634c47"/>
        <path id="Path_628" data-name="Path 628" d="M201.253,401.968s.754,7.941-9.357,7.571-26.039-5.463-32.671-11.588-4.771-10.542-4.771-10.542Z" transform="translate(41.462 130.328)" fill="#634c47"/>
        <path id="Path_629" data-name="Path 629" d="M188.512,367.47s.662,16.851-.215,27.147c0,0,23.084,15.759,13,21.7s-40.751-8.018-45.244-17.251a110.326,110.326,0,0,1-6.587-31.04S173.169,376.211,188.512,367.47Z" transform="translate(39.285 119.581)" fill="#83df7d"/>
        <path id="Path_630" data-name="Path 630" d="M164.479,390.491a59.783,59.783,0,0,0,18.467-4.17l-.292-.631a64.251,64.251,0,0,1-27.023,4.263v.693A67.976,67.976,0,0,0,164.479,390.491Z" transform="translate(43.105 129.401)" fill="#634c47"/>
        <path id="Path_631" data-name="Path 631" d="M162.386,290.048a.355.355,0,0,0-.015-.708l-28.147-.77a.323.323,0,0,0-.354.339.339.339,0,0,0,.339.354l28.131.785Z" transform="translate(34.827 84.004)" fill="#1e1e1b"/>
        <path id="Path_632" data-name="Path 632" d="M160.757,413.2h0a.323.323,0,0,0,.308-.385L148.338,289.268a.339.339,0,0,0-.369-.308h0a.354.354,0,0,0-.308.4l12.727,123.545a.354.354,0,0,0,.369.292Z" transform="translate(40.787 77.27)" fill="#1e1e1b"/>
        <path id="Path_633" data-name="Path 633" d="M120.835,399.477h0a.354.354,0,0,0,.308-.385L114.895,321.7a.323.323,0,0,0-.385-.308h0a.323.323,0,0,0-.308.385l6.248,77.392a.339.339,0,0,0,.385.308Z" transform="translate(28.228 94.746)" fill="#1e1e1b"/>
        <path id="Path_634" data-name="Path 634" d="M178.181,257.854a.347.347,0,0,0-.015-.693c-.292,0-28.686-1.447-48.307,2.462a.346.346,0,1,0,.139.677c19.529-3.878,47.845-2.447,48.137-2.447Z" transform="translate(32.269 68.639)" fill="#1e1e1b"/>
        <path id="Path_635" data-name="Path 635" d="M147.935,298.155a.369.369,0,0,0,.323-.369l-2.016-43.967a.339.339,0,0,0-.354-.339.354.354,0,0,0-.339.369l1.939,43.967a.369.369,0,0,0,.369.339Z" transform="translate(40.476 66.069)" fill="#1e1e1b"/>
        <path id="Path_636" data-name="Path 636" d="M149.33,294.234a12.612,12.612,0,0,0,1.339-.169.354.354,0,0,0,.292-.4.369.369,0,0,0-.415-.292c-1.354.246-5.078.554-6.156-.954s-2.616-23.469-3.463-37.95a.354.354,0,0,0-.369-.339.369.369,0,0,0-.339.369c.215,3.709,2.154,36.288,3.6,38.334C144.9,294.327,147.653,294.358,149.33,294.234Z" transform="translate(38.065 66.489)" fill="#1e1e1b"/>
        <path id="Path_637" data-name="Path 637" d="M141.763,257.466a2.478,2.478,0,1,0,.581-1.828A2.493,2.493,0,0,0,141.763,257.466Z" transform="translate(38.91 67.574)" fill="#272525"/>
        <rect id="Rectangle_53" data-name="Rectangle 53" width="61.788" height="140.042" transform="translate(149.883 189.694)" fill="#e24444"/>
        <path id="Path_638" data-name="Path 638" d="M132.535,209.3l-6.063,34.164,24.992,34.595c.139-43.813-14.527-105.493-14.527-105.493a16.6,16.6,0,0,0-4.232-5.74c-5.6,10.3-15.974,28.132-15.974,28.132Z" transform="translate(28.134 23.436)" fill="#2f8d5b"/>
        <path id="Path_639" data-name="Path 639" d="M146.141,244.634,152.2,210.47l-15.8-14.343S146.772,178.292,152.374,168c-7.294-6.156-19.16-3.078-33.225,3.54-17.267,8.079-17.636,24.977-20.852,50.015s-1.247,84.487-1.247,84.487L80.26,392.648c31.271,24.253,81.855,19.59,81.855,19.59s6.617-81.3,8.818-125.145c.123-2.539.185-5.171.2-7.864Z" transform="translate(12.748 18.887)" fill="#51b982"/>
        <path id="Path_640" data-name="Path 640" d="M70.515,375.014s-.539-3.078-14.7-.8C42.46,376.338,42.06,378.2,42.06,378.2s9,8.895,16.713,6.74S70.515,375.014,70.515,375.014Z" transform="translate(5.239 122.763)" fill="#634c47"/>
        <path id="Path_641" data-name="Path 641" d="M100.6,375.014s-.539-3.078-14.7-.8C72.55,376.338,72.15,378.2,72.15,378.2s9,8.895,16.7,6.74S100.6,375.014,100.6,375.014Z" transform="translate(11.591 122.763)" fill="#634c47"/>
        <path id="Path_642" data-name="Path 642" d="M111.15,322.38l-66.82,8.772v19.36c21.206-7.695,44.059-11.634,66.574-15.128Z" transform="translate(6.462 99.611)" fill="#2f8d5b"/>
        <path id="Path_643" data-name="Path 643" d="M44.36,345.936l.139,59.849H66.305l6.156-48.969,9.234-1.954,9.126,50.923,19.021-2.385,1.093-72.529C88.435,334.3,65.566,338.18,44.36,345.936Z" transform="translate(6.478 99.857)" fill="#51b982"/>
        <path id="Path_644" data-name="Path 644" d="M113.919,393.8s1.031,2.2-5.863,4.925c-.477.2-17.436,4.217-27.931-1.277-.846-.431-7.017-2.847-6.156-6.648Z" transform="translate(11.963 132.154)" fill="#634c47"/>
        <path id="Path_645" data-name="Path 645" d="M100.506,374.11s-2.724,12.558-2.447,20.145c0,0,22.484,4.848,15.62,10s-34.733,2.278-38.7-4.047A165.437,165.437,0,0,0,72.19,377.8S90.072,381.758,100.506,374.11Z" transform="translate(11.266 123.16)" fill="#ff9191"/>
        <path id="Path_646" data-name="Path 646" d="M81.855,392.768a43.721,43.721,0,0,0,13.065-4.617l-.262-.431a47.045,47.045,0,0,1-19.329,5.355v.523A54.97,54.97,0,0,0,81.855,392.768Z" transform="translate(12.999 130.495)" fill="#634c47"/>
        <path id="Path_647" data-name="Path 647" d="M83.529,393.8s1.016,2.2-5.863,4.925c-.477.2-17.436,4.217-27.931-1.277-.846-.431-7.017-2.847-6.156-6.648Z" transform="translate(6.013 132.154)" fill="#634c47"/>
        <path id="Path_648" data-name="Path 648" d="M70.138,374.11s-2.724,12.558-2.508,20.145c0,0,22.5,4.848,15.635,10s-34.687,2.278-38.719-4.047A165.433,165.433,0,0,0,41.76,377.8S59.688,381.758,70.138,374.11Z" transform="translate(5.077 123.16)" fill="#ff9191"/>
        <path id="Path_649" data-name="Path 649" d="M51.465,392.768a43.721,43.721,0,0,0,13.065-4.617l-.262-.431a47.045,47.045,0,0,1-19.329,5.355v.523a54.97,54.97,0,0,0,6.525-.831Z" transform="translate(6.791 130.495)" fill="#634c47"/>
        <path id="Path_650" data-name="Path 650" d="M56.065,352.882a.369.369,0,0,1-.092-.723l31.1-7.833a.354.354,0,0,1,.446.262.369.369,0,0,1-.277.446l-31.086,7.833Z" transform="translate(12.594 107.1)" fill="#4d825f"/>
        <path id="Path_651" data-name="Path 651" d="M74.461,350.485a.432.432,0,0,1-.185,0L68.567,346.9a.369.369,0,0,1,.4-.616l5.694,3.586a.354.354,0,0,1,.108.492A.338.338,0,0,1,74.461,350.485Z" transform="translate(10.643 108.143)" fill="#4d825f"/>
        <path id="Path_652" data-name="Path 652" d="M86.06,267s8.172,4.032,9.634,12.85,1.724,34.733,1.724,34.733L105,302.4l14.681,7.818s-9.911,27.947-19.59,31.84c-6.156,2.478-11.773-5.679-11.773-5.679Z" transform="translate(16.685 71.721)" fill="#da3636"/>
        <path id="Path_653" data-name="Path 653" d="M43,264.359s44.029-17.713,63.1-10.434c11.834,4.509-13.05,30.332-28.116,29.239S43,264.359,43,264.359Z" transform="translate(5.745 65.757)" fill="#2f8d5b"/>
        <path id="Path_654" data-name="Path 654" d="M75.4,216.441s-6.971,4.617-6.864,9.634,3.432,2.878,3.432,2.878-1.185,8.618,2,9.634,2.662-1.123,2.662-1.123,2.247,7.787,5.432,7.587,1.539-4.109,1.539-4.109,3.893,6.879,7.387,5.54,2.878-5.94,2.878-5.94,3.186,2.662,5.648,1.123,1.016-7.479,1.016-7.479,2.986,2.247,3.909-1.139-2.262-6.556-2.262-6.556,3.278-2.878,1.123-6.156a4.955,4.955,0,0,0-4.617-2.047s3.216-2.4-.508-4.617a9.126,9.126,0,0,0-5.125-1.031s.415-3.278-2.355-3.693-5.648,2.062-5.648,2.062a9.526,9.526,0,0,0-7.387.4A4.217,4.217,0,0,0,75.4,216.441Z" transform="translate(10.064 44.824)" fill="#ffc7c7"/>
        <path id="Path_655" data-name="Path 655" d="M91.754,261.646c7.279,1.385-24.884,22.268-37.073,12.6,0,0-.139-2.816-.631-6.525,10.957-.493,22.145-4.709,32.163-9.9a10.48,10.48,0,0,0,5.54,3.816Z" transform="translate(11.7 68.753)" fill="#e2aea1"/>
        <path id="Path_656" data-name="Path 656" d="M80.186,248.8s3.155,8.649,7.695,13.85c-10.018,5.186-21.206,9.4-32.163,9.9-.662-5.063-1.985-11.819-4.617-15.482Z" transform="translate(10.11 64.296)" fill="#d1897d"/>
        <path id="Path_657" data-name="Path 657" d="M72.76,251.712s7.125,21.037,16.513,20.006c5.956-.893,1.293-9.6,1.293-9.6s8.849,6.54,14.7,3.078-5.971-13.281-5.971-13.281,10.772,3.616,14.589-2.154c8.279-12.311-26.162-14.727-26.162-14.727Z" transform="translate(11.487 57.394)" fill="#1e1e1b"/>
        <path id="Path_658" data-name="Path 658" d="M40.391,244.78s-21.114,6.879-20.221,16.266c.831,5.986,9.587,1.416,9.587,1.416s-6.648,8.787-3.2,14.666,13.373-5.848,13.373-5.848-3.74,10.665,1.985,14.62c12.311,8.418,17.344-30.64,17.344-30.64Z" transform="translate(-6.573 61.952)" fill="#1e1e1b"/>
        <path id="Path_659" data-name="Path 659" d="M54.761,196.036A42.336,42.336,0,0,1,82.892,185.11c23.884.092,47.214,21.314,38.919,42.659-13.127,33.856-53.431,61.557-60.141,62.5s-28.362,2.4-41.92-18.344-8.064-39.673-2.108-51.323C26.029,204.223,43.511,196.221,54.761,196.036Z" transform="translate(-11.325 32.165)" fill="#1e1e1b"/>
        <path id="Path_660" data-name="Path 660" d="M116.045,218s3.078,13.635,8.418,22.714,1.247,31.763-24.392,42.351S52.287,281.531,43.3,269.45c0,0-11.757,5.956-19.775-6.694s5.525-19.637,11.711-16.3c0,0,10.372,1.339,10.511-14.1,0,0,3.54,4.355,7.479,1.247,11.8-9.234,9.449-27.331,9.449-27.331s20.56,12.311,28.27,8.556c5.432-2.616.662-13.2.662-13.2S106.211,217.389,116.045,218Z" transform="translate(-6.081 40.406)" fill="#db9a8d"/>
        <path id="Path_661" data-name="Path 661" d="M39.372,249.933h-.2a.508.508,0,0,1-.323-.6,15.2,15.2,0,0,0-4.617-12.742c-2.2-2.031-4.54-2.6-6.587-1.539-4.017,1.97-2.17,7.541-2.093,7.772a.462.462,0,0,1-.246.616.431.431,0,0,1-.554-.308s-2.216-6.648,2.508-8.972c2.37-1.154,5.032-.539,7.51,1.739,3.616,3.355,5.771,9.387,4.909,13.743A.446.446,0,0,1,39.372,249.933Z" transform="translate(-4.369 57.117)" fill="#272525"/>
        <path id="Path_662" data-name="Path 662" d="M28.419,243.368a.509.509,0,0,1-.215,0,.523.523,0,0,1-.308-.616,6.679,6.679,0,0,1,3.247-4.417c1.539-.631,3.478-.169,5.617,1.4a.508.508,0,0,1,.154.662.4.4,0,0,1-.6.123c-1.893-1.37-3.509-1.816-4.848-1.277a5.879,5.879,0,0,0-2.755,3.8.431.431,0,0,1-.292.323Z" transform="translate(-2.404 59.491)" fill="#272525"/>
        <path id="Path_663" data-name="Path 663" d="M74.912,239.652a.446.446,0,0,1-.369,0,.508.508,0,0,1-.185-.677s2-3.478,1.4-5.632a2,2,0,0,0-.97-1.385c-1.231-.677-2.231.431-3.6,2.2-1.062,1.37-2.262,2.909-3.663,1.985-2.278-1.539-3.355-12.8-3.555-15.066a.508.508,0,0,1,1,0c.431,5.017,1.647,13.358,3.078,14.327.585.385,1.262-.416,2.324-1.785,1.247-1.539,2.8-3.6,4.863-2.447a2.986,2.986,0,0,1,1.447,1.877c.708,2.555-1.4,6.156-1.539,6.387a.462.462,0,0,1-.231.215Z" transform="translate(8.808 50.827)" fill="#272525"/>
        <path id="Path_664" data-name="Path 664" d="M52.748,233.642a2.924,2.924,0,1,0-.184-3.255,2.924,2.924,0,0,0,.184,3.255Z" transform="translate(10.679 55.056)" fill="#272525"/>
        <path id="Path_665" data-name="Path 665" d="M75.785,226.253a2.924,2.924,0,1,0,1.046-4.432A3.247,3.247,0,0,0,75.785,226.253Z" transform="translate(13.305 51.489)" fill="#272525"/>
        <path id="Path_666" data-name="Path 666" d="M48.5,244.043c.431,3.509,5.34,5.786,10.988,5.109s9.88-4.078,9.449-7.571-5.34-5.786-10.988-5.109S48.084,240.55,48.5,244.043Z" transform="translate(8.694 58.517)" fill="#d1897d"/>
        <path id="Path_667" data-name="Path 667" d="M74.454,240.054c1.539,3.078,6.987,3.632,12.065,1.077s7.91-7.187,6.325-10.342-7-3.616-12.065-1.077S72.869,236.9,74.454,240.054Z" transform="translate(12.507 54.488)" fill="#d1897d"/>
        <path id="Path_668" data-name="Path 668" d="M55.008,218.9s-7.818.908-9.988,11.619" transform="translate(6.834 50.114)" fill="none" stroke="#272525" stroke-linecap="round" stroke-linejoin="round" stroke-width="0.75"/>
        <path id="Path_669" data-name="Path 669" d="M73.22,213.479s7.695-1.939,13.466,7.31" transform="translate(12.333 47.485)" fill="none" stroke="#272525" stroke-linecap="round" stroke-linejoin="round" stroke-width="0.75"/>
        <path id="Path_670" data-name="Path 670" d="M75.291,241.4a7.971,7.971,0,0,1-3.77,1.539,6.371,6.371,0,0,1-7.541-5.078A17.59,17.59,0,0,1,75.291,241.4Z" transform="translate(8.841 59.39)" fill="#e24444"/>
        <path id="Path_671" data-name="Path 671" d="M68.141,235.893s3.416,3.447,6.91,1.954c1.8-.77,3.078,2.847.262,5.094a17.59,17.59,0,0,0-11.28-3.555,4.756,4.756,0,0,1,0-1.862C64.725,234.092,66.571,234.815,68.141,235.893Z" transform="translate(8.794 57.96)" fill="#1c1e1e"/>
        <path id="Path_672" data-name="Path 672" d="M28.436,251.317s-11.4-37.95,36.7-56.817c45.521-10.465,50.569,31.425,50.569,31.425h3.709s-4.232-27.27-22.822-34.256-36-.816-44.336,4.109-33.595,15.328-29.07,55.54Z" transform="translate(-5.222 34.615)" fill="#ffc7c7"/>
        <path id="Path_673" data-name="Path 673" d="M23.754,233.331s-6.971,4.617-6.864,9.649,3.432,2.862,3.432,2.862-1.185,8.618,2,9.649,2.662-1.139,2.662-1.139,2.262,7.8,5.432,7.587,1.539-4.094,1.539-4.094,3.893,6.864,7.387,5.54,2.878-5.956,2.878-5.956,3.17,2.678,5.632,1.139,1.031-7.495,1.031-7.495,2.97,2.262,3.893-1.123-2.262-6.571-2.262-6.571,3.278-2.862,1.139-6.156a4.986,4.986,0,0,0-4.617-2.062s3.2-2.385-.523-4.617a9.033,9.033,0,0,0-5.125-1.016s.416-3.278-2.355-3.693-5.648,2.047-5.648,2.047a9.449,9.449,0,0,0-7.371.416,4.186,4.186,0,0,0-2.262,5.032Z" transform="translate(-8.327 52.934)" fill="#ffc7c7"/>
        <path id="Path_674" data-name="Path 674" d="M115.616,268.169a47.029,47.029,0,0,1,2.632,21.545s5.294,12.019,1.877,24.238c0,0,2.478,11.111-.4,21.083,0,0,1,12.019-4.771,19.021,0,0-18.467,12.865-67.713,8.495a24.346,24.346,0,0,1-1.924-6,27.855,27.855,0,0,1,.2-11.9S40.5,334.266,44.5,325.032c0,0,13.235-17.328,1.785-45.983,0,0-10.1,2.724-10.988,10.665,0,0-.292-12.511,13.65-17.19S109.322,263.968,115.616,268.169Z" transform="translate(1.595 70.781)" fill="#747699"/>
        <path id="Path_675" data-name="Path 675" d="M74.252,354.944l-1.385-.492c9.772-27.316-1.539-74.869-1.677-75.407l1.416-.354C72.729,279.167,84.178,327.212,74.252,354.944Z" transform="translate(11.689 77.262)" fill="#3b4263"/>
        <path id="Path_676" data-name="Path 676" d="M60.78,329.88c-11.049,0-18.806-.862-18.99-.877l.169-1.462c.446,0,44.121,4.909,72.129-8.741l.646,1.323C98.161,328.187,76.246,329.88,60.78,329.88Z" transform="translate(5.093 98.373)" fill="#3b4263"/>
        <path id="Path_677" data-name="Path 677" d="M52.9,321.288c-6.463,0-10.6-.215-10.772-.231a.369.369,0,0,1-.354-.385.415.415,0,0,1,.354-.308c.477,0,47.907,2.478,73.961-9.572a.369.369,0,0,1,.492.169.385.385,0,0,1-.185.492C97.818,320.011,68.5,321.288,52.9,321.288Z" transform="translate(5.082 94.503)" fill="#3b4263"/>
        <path id="Path_678" data-name="Path 678" d="M41.8,308.846h-.323a.369.369,0,1,1,0-.723h.339c4.617,0,56.555-.262,75.038-11.034a.366.366,0,1,1,.369.631C98.585,308.6,46.462,308.846,41.8,308.846Z" transform="translate(4.684 87.842)" fill="#3b4263"/>
        <path id="Path_679" data-name="Path 679" d="M45.584,291.51a.369.369,0,0,1,0-.739c.492,0,49.245-1.108,67.159-9.449a.369.369,0,1,1,.308.662c-18.036,8.4-66.958,9.51-67.451,9.526Z" transform="translate(6.947 80.262)" fill="#3b4263"/>
        <path id="Path_680" data-name="Path 680" d="M44.723,320.987a.369.369,0,0,1-.277-.108.385.385,0,0,1,0-.523c4.324-4.032,6.771-9.234,8.464-17.805,1.539-7.525-1.816-24.977-4.771-28.639-.339-.415-.646-.646-.923-.646h-.108c-5.355,0-9.926,7.233-9.972,7.294a.354.354,0,0,1-.508.123.369.369,0,0,1-.108-.508c.185-.308,4.909-7.772,10.772-7.695a2,2,0,0,1,1.539.908c3.37,4.171,6.356,21.93,4.925,29.24-1.724,8.787-4.232,14.066-8.68,18.205A.385.385,0,0,1,44.723,320.987Z" transform="translate(2.222 75.079)" fill="#3b4263"/>
        <path id="Path_681" data-name="Path 681" d="M44.862,276.4s19.329,1.123,32.317-5.694a158.653,158.653,0,0,0,20.16-11.942c3.078-2.154,9.757-9.234,12.311-1.539,2.37,5.032,1.154,7.695,1.154,7.695a8.418,8.418,0,0,1,.954,10.5c-3.878,6.571-24.884,24.623-52.539,13.065C40.676,280.648,44.862,276.4,44.862,276.4Z" transform="translate(6.53 66.333)" fill="#2f8d5b"/>
        <path id="Path_682" data-name="Path 682" d="M98.3,269.9s2.462,21.76,3.078,32.81-10.326,23.33-7.818,36c0,0-14.281,4.263-23.7-1.539,0,0-3.293-6.617.616-17.251s6.971-23.976,6.294-33.41-2.524-20.16-2.524-20.16Z" transform="translate(10.146 71.459)" fill="#2f8d5b"/>
        <path id="Path_683" data-name="Path 683" d="M114.1,266.423s-19.375,5.833-34.718,2.447A179.183,179.183,0,0,1,55.3,262.36c-3.832-1.293-12.742-6.51-13.035,1.539-.908,5.417,1.154,7.695,1.154,7.695s-3.37,5.325,2.185,10.357c5.94,5.371,32.794,17.621,57.51-.308C119.684,269.5,114.1,266.423,114.1,266.423Z" transform="translate(5.222 69.273)" fill="#51b982"/>
        <path id="Path_684" data-name="Path 684" d="M62.5,295.53S51.559,285.6,56.037,280.54s11.7,11.111,11.7,11.111S65.671,272.815,75.9,272.63s.677,20.668.677,20.668L74,293.39s5.34-17.113,1.908-18.19c-4.617-1.447-5.571,17.605-5.571,17.605l-4.4,1.339s-5.879-12.988-7.987-10.772,6.063,11.2,6.063,11.2Z" transform="translate(12.191 75.796)" fill="#bc2222"/>
        <path id="Path_685" data-name="Path 685" d="M72.018,284.7l3.616,35.857L53.073,331.576,46.61,300.7Z" transform="translate(7.691 80.979)" fill="#fff"/>
        <path id="Path_686" data-name="Path 686" d="M63.12,284.7l3.616,35.857,25.485,2.262V289.286Z" transform="translate(8.177 81.216)" fill="#fff"/>
        <path id="Path_687" data-name="Path 687" d="M98.855,310.472l-23.469,9.911L50.81,319.229l22.5-11.619Z" transform="translate(9.954 92.924)" fill="#fff"/>
        <path id="Path_688" data-name="Path 688" d="M70.44,285.85l3,34.687,5.986.677V287.266Z" transform="translate(11.362 81.842)" fill="#bc2222"/>
        <path id="Path_689" data-name="Path 689" d="M80.318,308.39,57.68,319.3l9.018.431L86.3,309.067Z" transform="translate(6.137 93.338)" fill="#bc2222"/>
        <path id="Path_690" data-name="Path 690" d="M50.06,294.5,58.2,325.108l5.479-2.832L57.231,289.99Z" transform="translate(9.55 83.838)" fill="#bc2222"/>
        <path id="Path_691" data-name="Path 691" d="M55.35,313.936l22.068,2.878,4.447-1.878L60.829,310.72Z" transform="translate(12.401 94.603)" fill="#bc2222"/>
        <path id="Path_692" data-name="Path 692" d="M58.3,310.931s2.57-8.649,7.695-6.694c1.908,1.4-1.062,4.617-1.062,4.617s7.094-11.757,12.727-7.695S78.891,319,64.933,321.9Z" transform="translate(6.49 89.165)" fill="#83df7d"/>
        <path id="Path_693" data-name="Path 693" d="M40.32,284.5s-.139.323-.369.939c-2.447,6.156-16,41.351-13.558,53.17,0,0,7.587,26.362,37.457,13.219,15.389-7.941,18.375-15.866,18.375-15.866l-7.356-12.311L50.831,330.8l-2.4-8.31s5.971-8.987,6.74-16.143,3-28.347-3.863-31.533C47.984,273.231,44.091,274.585,40.32,284.5Z" transform="translate(-3.363 75.004)" fill="#da3636"/>
        <path id="Path_694" data-name="Path 694" d="M169.079,201.674l6.063,34.164-24.992,34.61c-.154-43.813,14.527-105.493,14.527-105.493a16.82,16.82,0,0,1,4.232-5.756c5.6,10.311,15.959,28.147,15.959,28.147Z" transform="translate(40.646 19.841)" fill="#2f8d5b"/>
        <path id="Path_695" data-name="Path 695" d="M175.147,237l-6.063-34.149,15.789-14.343s-10.357-17.836-15.959-28.147c7.294-6.156-2.893-3.078,11.173,3.555,17.267,8.079,17.636,24.977,20.852,50s1.247,84.5,1.247,84.5l16.79,86.611c-31.271,24.223-59.818,19.575-59.818,19.575s-6.617-81.3-8.818-125.16c-.138-2.539-.2-5.155-.2-7.849Z" transform="translate(38.641 15.505)" fill="#51b982"/>
        <path id="Path_696" data-name="Path 696" d="M144.5,172.842s-8.079,16.805,0,41.212,8.8,33.5,2.939,61.28,7.31,34.349,7.695,60.449c0,0,23.084.846,34.21-9.357l.508-.492c-.923-3.724-4.217-10.034-3.493-21.76s5.155-19.129,1.539-40.212-8.418-33.487-5.509-44.967c7.525-29.747-2.139-49.122-7.125-59.095Z" transform="translate(36.445 18.849)" fill="#ead9be"/>
        <path id="Path_697" data-name="Path 697" d="M105.387,154.636s-8.726,21.822,10.619,34.3,72.637,3.247,84.01-16.3-.662-39.012-20.437-35.734S105.387,154.636,105.387,154.636Z" transform="translate(20.342 9.85)" fill="#faefda"/>
        <path id="Path_698" data-name="Path 698" d="M169.489,118.91l2.478,32.01s-2.416,8.88-34.549,20.668c-10.988,4.032-7.356-46.291-7.356-46.291Z" transform="translate(32.547 1.47)" fill="#e2aea1"/>
        <path id="Path_699" data-name="Path 699" d="M90.528,141.256S103.3,157.307,105.5,167.094s25.346,27.424,54.355,16.4,37.842-38.473,34.533-54.724c0,0,14.7-8.818,7.341-23.869s-20.56-5.94-20.191,1.8c0,0-13.235,11.773-36-3.463,0,0,1.093,16.513-8.449,21.76s-49.246-8.726-49.246-8.726S94.637,130.96,90.528,141.256Z" transform="translate(14.335 -9.378)" fill="#f2c3b6"/>
        <path id="Path_700" data-name="Path 700" d="M160.758,121.286a.631.631,0,0,0,.108-.169.493.493,0,0,0-.308-.585,14.912,14.912,0,0,1-7.772-10.772c-.431-2.893.385-5.094,2.324-6.156,3.817-2.154,7.31,2.4,7.448,2.6a.477.477,0,0,0,.631.123.415.415,0,0,0,0-.616s-4.155-5.448-8.633-2.893c-2.247,1.262-3.2,3.77-2.724,7.017.723,4.771,4.417,9.849,8.4,11.527a.416.416,0,0,0,.523-.077Z" transform="translate(42.426 -6.323)" fill="#272525"/>
        <path id="Path_701" data-name="Path 701" d="M161.269,108.809a.369.369,0,0,0,.108-.185.508.508,0,0,0-.308-.585c-.139,0-3.216-1.231-5.386.231-1.4.939-2.062,2.724-1.97,5.309a.539.539,0,0,0,.462.492.385.385,0,0,0,.431-.416c0-2.293.462-3.847,1.631-4.617a5.694,5.694,0,0,1,4.617-.139A.416.416,0,0,0,161.269,108.809Z" transform="translate(43.382 0.266)" fill="#272525"/>
        <path id="Path_702" data-name="Path 702" d="M123.858,144.031a.585.585,0,0,0,.2-.323.492.492,0,0,0-.4-.554s-3.847-.708-5.094-2.508a2.016,2.016,0,0,1-.339-1.539c.262-1.354,1.724-1.4,3.909-1.323,1.693,0,3.616.154,3.8-1.539.308-2.647-7.479-10.588-9.033-12.142a.484.484,0,1,0-.693.677c3.493,3.493,8.957,9.664,8.772,11.357-.092.677-1.123.693-2.8.616-2-.077-4.478-.169-4.909,2.108a2.909,2.909,0,0,0,.492,2.262c1.539,2.139,5.556,2.878,5.725,2.909a.6.6,0,0,0,.369,0Z" transform="translate(28.842 4.189)" fill="#272525"/>
        <path id="Path_703" data-name="Path 703" d="M130.768,141.286a5.555,5.555,0,0,0,2.308-5.833.462.462,0,0,0-.554-.4.492.492,0,0,0-.4.554,4.848,4.848,0,0,1-3.493,5.679.477.477,0,0,0-.354.585.462.462,0,0,0,.585.339A6.494,6.494,0,0,0,130.768,141.286Z" transform="translate(33.715 9.66)" fill="#272525"/>
        <path id="Path_704" data-name="Path 704" d="M97.953,136.642s-2.185-8.71,2.37-13.373,6.771-.831,6.248,1.031S99.939,131.563,97.953,136.642Z" transform="translate(21.714 2.825)" fill="#9a614f"/>
        <path id="Path_705" data-name="Path 705" d="M146.2,114.477s-9.464-7.695-15.928-7.033-4.817,4.832-3.078,5.571S141.047,112.938,146.2,114.477Z" transform="translate(32.077 0.184)" fill="#9a614f"/>
        <path id="Path_706" data-name="Path 706" d="M148.214,124.778c2.355,2.524.97,7.695-3.078,11.434s-9.234,4.832-11.619,2.308-.97-7.695,3.078-11.434S145.874,122.254,148.214,124.778Z" transform="translate(34.784 3.959)" fill="#e2aea1"/>
        <path id="Path_707" data-name="Path 707" d="M126.164,144.695c1.077,3.293-2.339,7.341-7.695,9.08s-10.449.477-11.511-2.8,2.339-7.341,7.695-9.08S125.086,141.417,126.164,144.695Z" transform="translate(24.945 12.53)" fill="#e2aea1"/>
        <path id="Path_708" data-name="Path 708" d="M138.744,126.341a.662.662,0,0,0,.092-.831c-.185-.246-4.294-6.233-8.372-6.633a4.109,4.109,0,0,0-3.386,1.262c-4.617,4.617,1.539,12.311,1.877,12.573a.662.662,0,1,0,1.016-.831s-5.786-7.033-1.985-10.772a2.77,2.77,0,0,1,2.355-.893c3.463.339,7.371,6,7.4,6.063a.646.646,0,0,0,.908.169.154.154,0,0,0,.092-.108Z" transform="translate(32.261 1.78)" fill="#272525"/>
        <path id="Path_709" data-name="Path 709" d="M132.682,123.128a.616.616,0,0,0,.154-.231l1.2-3.216a.662.662,0,0,0-.385-.846.646.646,0,0,0-.831.385l-1.216,3.216a.662.662,0,0,0,.385.846.631.631,0,0,0,.693-.154Z" transform="translate(35.086 1.826)" fill="#272525"/>
        <path id="Path_710" data-name="Path 710" d="M133.839,124.275a.754.754,0,0,0,.154-.231l1.2-3.216a.662.662,0,0,0-1.231-.462l-1.2,3.216a.662.662,0,0,0,1.077.693Z" transform="translate(35.537 2.413)" fill="#272525"/>
        <path id="Path_711" data-name="Path 711" d="M107.936,145.512h.108a.677.677,0,0,0,.246-.908s-3.509-6-2.339-9.234a2.77,2.77,0,0,1,1.816-1.739c5.032-1.847,8.88,6.294,8.926,6.387a.662.662,0,1,0,1.185-.554c-.169-.385-4.4-9.31-10.557-7.079a4.109,4.109,0,0,0-2.6,2.539c-1.385,3.863,2.278,10.126,2.431,10.4a.662.662,0,0,0,.785.185Z" transform="translate(24.249 8.143)" fill="#272525"/>
        <path id="Path_712" data-name="Path 712" d="M107.054,138.835a.692.692,0,0,0,.431-.569.662.662,0,0,0-.6-.708l-3.416-.277a.646.646,0,0,0-.708.6.662.662,0,0,0,.6.708l3.416.277A.569.569,0,0,0,107.054,138.835Z" transform="translate(23.899 10.793)" fill="#272525"/>
        <path id="Path_713" data-name="Path 713" d="M107.615,140.38a.631.631,0,0,0,.431-.554.646.646,0,0,0-.6-.723l-3.416-.292a.662.662,0,0,0-.708.6.646.646,0,0,0,.6.708l3.416.277a.554.554,0,0,0,.277-.015Z" transform="translate(24.115 11.534)" fill="#272525"/>
        <path id="Path_714" data-name="Path 714" d="M169.82,122.316a5.34,5.34,0,0,0,.631-3.078,6.771,6.771,0,0,0-3.216-5.248c-3.678-2.016-8.941.262-9.233.354a.477.477,0,0,0-.231.631.462.462,0,0,0,.616.231s5.063-2.17,8.326-.385a5.817,5.817,0,0,1,2.739,4.524,3.909,3.909,0,0,1-3.078,4.34c-3.232.908-7.495-.539-8.433-2.308a.468.468,0,1,0-.831.431c1.216,2.308,6.156,3.74,9.526,2.785a4.986,4.986,0,0,0,3.186-2.278Z" transform="translate(44.379 -0.951)" fill="#f2c757"/>
        <path id="Path_715" data-name="Path 715" d="M95.766,281.52s-6.848,23.93,7.4,30.594,12.311-17.559,12.311-17.559,3.924,4.617,6.864,0-6.771-10.588-6.771-10.588Z" transform="translate(19.859 79.855)" fill="#83df7d"/>
        <path id="Path_716" data-name="Path 716" d="M93.694,192.5s-5.386,93,3.2,136.964c0,0,11.25,6.664,19.667,2.447l13.5-119.451Z" transform="translate(18.782 34.824)" fill="#51b982"/>
        <path id="Path_717" data-name="Path 717" d="M95.19,322.494s11.25,6.664,19.667,2.447l13.5-119.451" transform="translate(20.121 41.41)" fill="none" stroke="#2f8c5a" stroke-miterlimit="10" stroke-width="0.5"/>
        <path id="Path_718" data-name="Path 718" d="M120.811,163.643a61.065,61.065,0,0,1-12.111-1.016l.323-1.431c.323.077,33.179,7.141,68.513-17.836l.846,1.2C155.591,160.673,133.784,163.643,120.811,163.643Z" transform="translate(23.687 13.542)" fill="#ead9be"/>
        <path id="Path_719" data-name="Path 719" d="M288.472,167.574s41.258,115.635,7.094,134.748c-21.129,13.589-40.4,0-40.4,0v-1.231s13.85-12.081,15.512-21.406c0,0,10.572-5.171,7.818-38.7,0,0-7.818-15.943-11.711-25.608s-9.233-54.755,2.031-64.8C277.192,145.583,286.518,161.8,288.472,167.574Z" transform="translate(74.798 14.48)" fill="#51b982"/>
        <path id="Path_720" data-name="Path 720" d="M207.983,206.343,203.92,162.93l76.961-6.51,2.37,44.736Z" transform="translate(57.044 19.461)" fill="#ffc7c7"/>
        <path id="Path_721" data-name="Path 721" d="M231.567,165.042s-25.208-21.176-15.836-28.686,21.191,25.423,21.191,25.423,4.355-30.455,16.266-30.778-.277,22.16-9.141,33.856h-3.893s16.082-21.545,12.758-30.163-14.574,30.163-14.574,30.163l-4.278.369s-9.1-26.916-15.8-26.531,14.8,26.285,14.8,26.285Z" transform="translate(63.628 7.448)" fill="#2f8d5b"/>
        <path id="Path_722" data-name="Path 722" d="M202.442,168.506l-1.062-13.281,84.3-3.355v15.051Z" transform="translate(55.678 17.687)" fill="#da3636"/>
        <path id="Path_723" data-name="Path 723" d="M225.29,153.24l3.878,52.308h8.6l-2.462-52.708Z" transform="translate(70.532 17.711)" fill="#2f8d5b"/>
        <path id="Path_724" data-name="Path 724" d="M194.529,255.446l37.088-2.57c-13.85-11.7-27.039-23.869-40.628-35.826Z" transform="translate(55.517 48.725)" fill="#e24444"/>
        <path id="Path_725" data-name="Path 725" d="M279.538,181.07,230,184.471c15.235,11.85,30.64,23.392,46.414,34.472Z" transform="translate(69.234 31.457)" fill="#e24444"/>
        <path id="Path_726" data-name="Path 726" d="M245.192,183.28l-43.382,2.986c27.27,23.176,56.832,43.921,87.211,63.1l2.585-31.625C275.878,206.672,260.474,195.16,245.192,183.28Z" transform="translate(55.3 32.051)" fill="#fff"/>
        <path id="Path_727" data-name="Path 727" d="M188.15,186.65l1.539,17.236c27.916,20.283,54.755,42.29,82.625,63.4l22.653-1.539,1.416-17.405c-30.378-19.19-59.941-39.935-87.211-63.1Z" transform="translate(48.761 32.698)" fill="#e24444"/>
        <path id="Path_728" data-name="Path 728" d="M191.975,227.661c13.589,11.957,26.839,24.13,40.628,35.826l39.212-2.724c-27.87-21.114-54.709-43.09-82.625-63.4Z" transform="translate(51.528 38.766)" fill="#fff"/>
        <path id="Path_729" data-name="Path 729" d="M208.57,185.083l9.48,85.795,7.618-.339-3.6-86.38Z" transform="translate(63.813 32.092)" fill="#2f8d5b"/>
        <path id="Path_730" data-name="Path 730" d="M190.49,214.257l.923,10.1L296.6,219.3l1.046-12.835Z" transform="translate(49.665 44.006)" fill="#2f8d5b"/>
        <path id="Path_731" data-name="Path 731" d="M264.643,261.058s-32.81-7.171-26.162-26.731,34.58,2.432,34.58,2.432-1.539-9.726,2.939-10.526,4.124,12.188,4.124,12.188S271.06,257.473,264.643,261.058Z" transform="translate(65.325 53.189)" fill="#83df7d"/>
        <path id="Path_732" data-name="Path 732" d="M97.42,167.123s7.418,32.317,25.746,22.745-7.6-33.856-7.6-33.856,9.849,0,9.972-4.478-12.681-2.262-12.681-2.262S99.851,151.1,97.42,167.123Z" transform="translate(20.986 15.862)" fill="#83df7d"/>
      </g>
    </g>
    <g id="illustratii_cadouri" data-name="illustratii cadouri" transform="translate(215.009 0.003)">
      <g id="Group_69" data-name="Group 69" transform="translate(708.421 2123.647)">
        <path id="Path_352" data-name="Path 352" d="M411.54,348.4l17,77.37,1-1.8-82.33,17.95,1.81,1-14.77-77.7-1,1.81,80.08-17.63c1.84-.41,1.06-3.24-.78-2.84L332.47,364.2a1.5,1.5,0,0,0-1,1.81l14.77,77.69a1.5,1.5,0,0,0,1.81,1l82.33-18a1.5,1.5,0,0,0,1-1.81l-17-77.37c-.4-1.85-3.24-1.06-2.83.78Z" transform="translate(-331.421 -317.316)" fill="#252a3f"/>
        <path id="Path_353" data-name="Path 353" d="M370.4,354.5l18.48,83.9c.68,3.08,5.4,1.78,4.72-1.3q-9.23-42-18.47-83.9C374.45,350.12,369.72,351.42,370.4,354.5Z" transform="translate(-331.421 -317.316)" fill="#da3636"/>
        <path id="Path_354" data-name="Path 354" d="M425.35,380.57q-45.41,10.26-90.85,20.34c-3.08.68-1.78,5.41,1.3,4.73q45.46-10,90.85-20.34C429.72,384.6,428.42,379.88,425.35,380.57Z" transform="translate(-331.421 -317.316)" fill="#da3636"/>
        <path id="Path_355" data-name="Path 355" d="M376.4,355.93c-1.22-8.11-2.18-17.06-.17-25.12.81-3.26,2.26-7,5.68-8.25s8.69.2,11.41,2.54c9.33,8-13.22,26.3-19.94,29.12-2.86,1.2-1.6,5.94,1.31,4.72,10.24-4.29,36.68-27,20.94-38.21-7.65-5.42-18.31-4.66-22.56,4.25-4.59,9.64-2.93,22.09-1.4,32.25.47,3.11,5.19,1.79,4.73-1.3Z" transform="translate(-331.421 -317.316)" fill="#da3636"/>
        <path id="Path_356" data-name="Path 356" d="M375,356.25c-4-9.5-9-20.86-17.66-27.06-8.22-5.9-17.71-1.05-21.14,7.94-6.57,17.23,26,19.62,35.79,22.13,3.05.79,4.36-3.94,1.3-4.72-5.82-1.5-11.81-2.23-17.63-3.77-4.5-1.18-14.86-3.48-15.36-9.44-.3-3.55,3.57-8.05,6.56-9.48,3.66-1.75,7.19.63,9.79,3.16,6.23,6.05,10.31,14.62,13.63,22.54,1.2,2.86,5.94,1.61,4.72-1.3Z" transform="translate(-331.421 -317.316)" fill="#da3636"/>
        <path id="Path_357" data-name="Path 357" d="M406.9,358.21l.1.08c.07.06.19.14.3.24a5.821,5.821,0,0,1,.77.87,4.871,4.871,0,0,1,.36.59c.11.2.24.38.34.58a4.26,4.26,0,0,1,.39,1.24,5.06,5.06,0,0,1-.32,2.73,6.288,6.288,0,0,1-.54,1,3.405,3.405,0,0,1-.22.3L408,366l-.12-.06a3.24,3.24,0,0,1-.33-.19,4.759,4.759,0,0,1-.92-.72,4.21,4.21,0,0,1-.84-1.13,5.112,5.112,0,0,1-.49-1.44,5.548,5.548,0,0,1,0-1.63,3.388,3.388,0,0,1,.18-.73c.1-.21.21-.41.32-.6a5.9,5.9,0,0,1,.71-.91c.1-.11.21-.2.27-.26Z" transform="translate(-331.421 -317.316)" fill="#252a3f"/>
        <path id="Path_358" data-name="Path 358" d="M394.52,357.92l.12.06a1.071,1.071,0,0,1,.33.16,6.42,6.42,0,0,1,.9.64,4.39,4.39,0,0,1,1.34,2.25,4.21,4.21,0,0,1-.27,2.59,5.438,5.438,0,0,1-.55,1c-.08.12-.18.22-.23.29l-.09.1-.12-.06a1.9,1.9,0,0,1-.33-.16,5.1,5.1,0,0,1-.9-.64,4.19,4.19,0,0,1-1.34-2.24,4.33,4.33,0,0,1,.28-2.6,4.878,4.878,0,0,1,.55-1,2,2,0,0,1,.22-.28Z" transform="translate(-331.421 -317.316)" fill="#252a3f"/>
        <path id="Path_359" data-name="Path 359" d="M384.74,363.84l.12.06a2.647,2.647,0,0,1,.33.17,6,6,0,0,1,.91.66,4.61,4.61,0,0,1,1.36,2.32,4.47,4.47,0,0,1-.26,2.67,5.221,5.221,0,0,1-.55,1,3.056,3.056,0,0,1-.22.29l-.09.1-.12-.06a3.567,3.567,0,0,1-.33-.17,5.372,5.372,0,0,1-.91-.66,4.37,4.37,0,0,1-1.09-5,5.372,5.372,0,0,1,.54-1c.08-.12.18-.23.23-.3Z" transform="translate(-331.421 -317.316)" fill="#252a3f"/>
        <path id="Path_360" data-name="Path 360" d="M403.87,372.42l.11.08a2.854,2.854,0,0,1,.28.22,5.548,5.548,0,0,1,.77.81,3.594,3.594,0,0,1,.35.54c.1.2.23.36.32.54a3.411,3.411,0,0,1,.37,1.13,4.51,4.51,0,0,1-.36,2.51,5.81,5.81,0,0,1-.56,1,2.887,2.887,0,0,1-.23.28l-.09.11-.12-.06a2.612,2.612,0,0,1-.32-.17,5.253,5.253,0,0,1-.91-.65,3.61,3.61,0,0,1-.82-1.05,4.39,4.39,0,0,1-.47-1.33,5.19,5.19,0,0,1,.05-1.53,2.759,2.759,0,0,1,.2-.67,4.34,4.34,0,0,1,.33-.56,5.858,5.858,0,0,1,.72-.84,2.593,2.593,0,0,1,.28-.24Z" transform="translate(-331.421 -317.316)" fill="#252a3f"/>
        <path id="Path_361" data-name="Path 361" d="M366.51,367.72l.11.08c.07.06.19.14.29.24a6.433,6.433,0,0,1,.78.87,6.591,6.591,0,0,1,.36.59c.1.2.24.38.33.58a3.73,3.73,0,0,1,.39,1.24,5.06,5.06,0,0,1-.31,2.73,6.287,6.287,0,0,1-.54,1c-.08.12-.18.23-.23.3l-.08.11-.13-.06c-.07-.05-.21-.1-.33-.19a5.061,5.061,0,0,1-.91-.72,4.47,4.47,0,0,1-.85-1.13,5.44,5.44,0,0,1-.49-1.44,5.922,5.922,0,0,1,0-1.63,3.4,3.4,0,0,1,.19-.73,4.307,4.307,0,0,1,.32-.6,4.89,4.89,0,0,1,.71-.91,3,3,0,0,1,.27-.26Z" transform="translate(-331.421 -317.316)" fill="#252a3f"/>
        <path id="Path_362" data-name="Path 362" d="M352.79,366.89l.12.06a1,1,0,0,1,.33.18,5.429,5.429,0,0,1,.91.71,4.75,4.75,0,0,1,1.16,5.24,4.881,4.881,0,0,1-.54,1,2.348,2.348,0,0,1-.22.3l-.08.11-.13-.06a1,1,0,0,1-.33-.18,5.892,5.892,0,0,1-.92-.71,4.79,4.79,0,0,1-1.15-5.25,5.9,5.9,0,0,1,.54-1,1.8,1.8,0,0,1,.22-.3Z" transform="translate(-331.421 -317.316)" fill="#252a3f"/>
        <path id="Path_363" data-name="Path 363" d="M343.33,374.28l.13.08a3.42,3.42,0,0,1,.34.23,6.278,6.278,0,0,1,.95.86,6.65,6.65,0,0,1,1.49,2.92,6.55,6.55,0,0,1-.12,3.28,6.219,6.219,0,0,1-.51,1.19,2.287,2.287,0,0,1-.21.34l-.08.13-.13-.08c-.07-.05-.21-.13-.34-.23a6.869,6.869,0,0,1-1-.86,6.54,6.54,0,0,1-1.49-2.92,6.71,6.71,0,0,1,.13-3.29,6.433,6.433,0,0,1,.5-1.18,3.62,3.62,0,0,1,.21-.34Z" transform="translate(-331.421 -317.316)" fill="#252a3f"/>
        <path id="Path_364" data-name="Path 364" d="M363.94,381.21l.12.07a1.878,1.878,0,0,1,.33.18,5.473,5.473,0,0,1,.92.7,4.77,4.77,0,0,1,1.16,5.25,5.278,5.278,0,0,1-.54,1,2.577,2.577,0,0,1-.22.31l-.09.11-.12-.07a1,1,0,0,1-.33-.18,6.409,6.409,0,0,1-.92-.7,4.79,4.79,0,0,1-1.15-5.25,5.718,5.718,0,0,1,.54-1,3.4,3.4,0,0,1,.22-.3Z" transform="translate(-331.421 -317.316)" fill="#252a3f"/>
        <path id="Path_365" data-name="Path 365" d="M352.35,385.22l.12.06a2.18,2.18,0,0,1,.33.15,5,5,0,0,1,.89.62,3.9,3.9,0,0,1,1,4.69,4.849,4.849,0,0,1-.56.93,1.433,1.433,0,0,1-.23.28l-.08.1-.12-.05a.975.975,0,0,1-.33-.16,6,6,0,0,1-.9-.61,4.07,4.07,0,0,1-1.32-2.17,4.19,4.19,0,0,1,.29-2.53,5.843,5.843,0,0,1,.56-.93c.07-.11.18-.21.23-.28Z" transform="translate(-331.421 -317.316)" fill="#252a3f"/>
        <path id="Path_366" data-name="Path 366" d="M414.78,394h.13a1.77,1.77,0,0,1,.36.11,6,6,0,0,1,1,.53,6.586,6.586,0,0,1,.54.42,3.091,3.091,0,0,1,.48.58,6,6,0,0,1,.7,1.47,5.181,5.181,0,0,1,.16,1.51,4.41,4.41,0,0,1-.29,1.39,5.54,5.54,0,0,1-.53,1,3.4,3.4,0,0,1-.22.3l-.09.11-.12-.06c-.08-.05-.21-.1-.33-.18a6.632,6.632,0,0,1-.93-.7,5,5,0,0,1-1.42-2.35,3.92,3.92,0,0,1-.17-1.28c0-.23.05-.44.06-.68a5.051,5.051,0,0,1,.08-.68,5.915,5.915,0,0,1,.34-1.11,2.812,2.812,0,0,1,.16-.34Z" transform="translate(-331.421 -317.316)" fill="#252a3f"/>
        <path id="Path_367" data-name="Path 367" d="M400.3,395.37l.12.05a2.4,2.4,0,0,1,.33.16,4.9,4.9,0,0,1,.89.61,3.91,3.91,0,0,1,1,4.7,4.849,4.849,0,0,1-.56.93,2.473,2.473,0,0,1-.23.28l-.08.1-.12-.06a2.182,2.182,0,0,1-.33-.15,5.432,5.432,0,0,1-.9-.62,4,4,0,0,1-1.32-2.17,4.15,4.15,0,0,1,.29-2.52,5.556,5.556,0,0,1,.56-.94,2.4,2.4,0,0,1,.23-.27Z" transform="translate(-331.421 -317.316)" fill="#252a3f"/>
        <path id="Path_368" data-name="Path 368" d="M392.46,404.48l.11.1c.07.07.2.17.31.29a7.277,7.277,0,0,1,.81,1,6.852,6.852,0,0,1,.39.71c.12.25.27.48.37.74a6.23,6.23,0,0,1,.46,1.58,7.379,7.379,0,0,1-.17,3.36,8.431,8.431,0,0,1-.5,1.22,4.128,4.128,0,0,1-.22.36l-.08.13-.12-.09a2.775,2.775,0,0,1-.35-.24,7.647,7.647,0,0,1-1-.91,6.189,6.189,0,0,1-.9-1.41,7.448,7.448,0,0,1-.56-1.75,8.282,8.282,0,0,1-.05-1.92,4.442,4.442,0,0,1,.44-1.63,7.37,7.37,0,0,1,.66-1.14,2.667,2.667,0,0,1,.26-.32Z" transform="translate(-331.421 -317.316)" fill="#252a3f"/>
        <path id="Path_369" data-name="Path 369" d="M410.5,406.05l.11.09c.07.06.19.14.3.25a5.862,5.862,0,0,1,.8.91,9.322,9.322,0,0,1,.71,1.28,4.5,4.5,0,0,1,.42,1.38,5.81,5.81,0,0,1,.07.74,4.831,4.831,0,0,1,0,.76,7.171,7.171,0,0,1-.33,1.42A6.8,6.8,0,0,1,412,414a3.1,3.1,0,0,1-.22.33l-.09.11-.12-.07a3.632,3.632,0,0,1-.33-.2,6,6,0,0,1-.94-.79,4.5,4.5,0,0,1-.86-1.23,5.381,5.381,0,0,1-.5-1.56,6.37,6.37,0,0,1,0-1.69,4,4,0,0,1,.49-1.42,5.553,5.553,0,0,1,.68-1c.09-.12.2-.22.26-.29Z" transform="translate(-331.421 -317.316)" fill="#252a3f"/>
        <path id="Path_370" data-name="Path 370" d="M403.23,417l.11.09a3,3,0,0,1,.31.23,6.3,6.3,0,0,1,.83.86,5.4,5.4,0,0,1,1.1,2.75c0,.27.06.49.07.74a4.179,4.179,0,0,1,0,.71,4.869,4.869,0,0,1-.35,1.35,5.823,5.823,0,0,1-.55,1,2.83,2.83,0,0,1-.22.32l-.09.11-.12-.07a2.232,2.232,0,0,1-.33-.2,5.161,5.161,0,0,1-.92-.8,5.62,5.62,0,0,1-.87-1.26,4.928,4.928,0,0,1-.31-.75,2.862,2.862,0,0,1-.19-.78,5.49,5.49,0,0,1,.55-2.93,6.119,6.119,0,0,1,.65-1c.09-.12.2-.22.25-.29Z" transform="translate(-331.421 -317.316)" fill="#252a3f"/>
        <path id="Path_371" data-name="Path 371" d="M375,403.41l.11.08c.06.06.19.15.3.26a6.5,6.5,0,0,1,.8.91,8.656,8.656,0,0,1,.71,1.27,4.579,4.579,0,0,1,.42,1.38c0,.23.07.5.07.75a3.767,3.767,0,0,1,0,.75,5.889,5.889,0,0,1-.33,1.42,6.171,6.171,0,0,1-.53,1.09,2.825,2.825,0,0,1-.22.32l-.08.12-.13-.07a3.272,3.272,0,0,1-.33-.21,5.806,5.806,0,0,1-.93-.78,4.71,4.71,0,0,1-.86-1.24,5.22,5.22,0,0,1-.5-1.55,6.45,6.45,0,0,1,0-1.7,3.841,3.841,0,0,1,.48-1.42,6.6,6.6,0,0,1,.68-1,2.481,2.481,0,0,1,.27-.28.721.721,0,0,1,.07-.1Z" transform="translate(-331.421 -317.316)" fill="#252a3f"/>
        <path id="Path_372" data-name="Path 372" d="M363,405.72l.12.07.3.22a5.471,5.471,0,0,1,.81.8,4.84,4.84,0,0,1,1,2.58A4.37,4.37,0,0,1,365,412a6.2,6.2,0,0,1-.57,1,2.109,2.109,0,0,1-.23.3l-.08.1-.12-.06a2.918,2.918,0,0,1-.33-.18,5.81,5.81,0,0,1-.91-.74,5.23,5.23,0,0,1-1.35-2.62A4.92,4.92,0,0,1,362,407a7.007,7.007,0,0,1,.66-1,3.389,3.389,0,0,1,.27-.27Z" transform="translate(-331.421 -317.316)" fill="#252a3f"/>
        <path id="Path_373" data-name="Path 373" d="M366.82,423l.11.07a2.727,2.727,0,0,1,.3.22,5.468,5.468,0,0,1,.81.8,4.73,4.73,0,0,1,1,2.57,4.33,4.33,0,0,1-.31,2.62,6.094,6.094,0,0,1-.56,1,3.674,3.674,0,0,1-.23.3l-.09.11-.12-.06a2.591,2.591,0,0,1-.33-.19,5.15,5.15,0,0,1-.9-.73,5.28,5.28,0,0,1-1.36-2.62,5,5,0,0,1,.61-2.75,5.331,5.331,0,0,1,.67-.95c.09-.12.2-.21.26-.28Z" transform="translate(-331.421 -317.316)" fill="#252a3f"/>
        <path id="Path_374" data-name="Path 374" d="M350,408.92l.11.07a2.73,2.73,0,0,1,.3.22,6.5,6.5,0,0,1,.82.79,4.71,4.71,0,0,1,1.05,2.56c0,.24.05.46.06.68a3.659,3.659,0,0,1,0,.66,4.389,4.389,0,0,1-.36,1.25,6.377,6.377,0,0,1-.57,1,2.281,2.281,0,0,1-.23.3l-.08.11-.13-.06c-.07-.05-.2-.1-.32-.18a5.811,5.811,0,0,1-.91-.74,4.93,4.93,0,0,1-.84-1.17,4.341,4.341,0,0,1-.3-.7,2.519,2.519,0,0,1-.18-.73,4.81,4.81,0,0,1,.6-2.72,5.221,5.221,0,0,1,.66-.94c.09-.12.2-.21.26-.28Z" transform="translate(-331.421 -317.316)" fill="#252a3f"/>
        <path id="Path_375" data-name="Path 375" d="M377.32,421.36l.12.07a3.627,3.627,0,0,1,.34.2,6.81,6.81,0,0,1,.93.77,5.6,5.6,0,0,1,1.43,2.65,5.5,5.5,0,0,1-.18,3,5.838,5.838,0,0,1-.53,1.09,2.128,2.128,0,0,1-.22.32l-.08.12-.12-.07a3.618,3.618,0,0,1-.34-.2,6.252,6.252,0,0,1-.93-.77,5.46,5.46,0,0,1-1.24-5.65,5.878,5.878,0,0,1,.52-1.09,2.131,2.131,0,0,1,.22-.32Z" transform="translate(-331.421 -317.316)" fill="#252a3f"/>
        <path id="Path_376" data-name="Path 376" d="M355.9,425.46l.11.08a3.451,3.451,0,0,1,.3.24,6,6,0,0,1,.79.84,7.81,7.81,0,0,1,.69,1.2,3.82,3.82,0,0,1,.39,1.27,4.9,4.9,0,0,1,.06.68,4.115,4.115,0,0,1,0,.7,5.7,5.7,0,0,1-.35,1.32,6.288,6.288,0,0,1-.54,1c-.08.13-.18.24-.23.31l-.08.1-.13-.06a1,1,0,0,1-.33-.18,6.148,6.148,0,0,1-.91-.72,4.19,4.19,0,0,1-.85-1.15,4.66,4.66,0,0,1-.47-1.45,5.629,5.629,0,0,1,0-1.59,4,4,0,0,1,.51-1.32,6.067,6.067,0,0,1,.69-.93c.09-.11.21-.2.27-.27Z" transform="translate(-331.421 -317.316)" fill="#252a3f"/>
        <path id="Path_377" data-name="Path 377" d="M393.69,376.51l.1.08a2,2,0,0,1,.29.22,5.08,5.08,0,0,1,.77.81,4.582,4.582,0,0,1,.35.54c.1.2.23.35.32.54a3.11,3.11,0,0,1,.36,1.13,4.42,4.42,0,0,1-.35,2.51,6.261,6.261,0,0,1-.56,1c-.08.11-.18.22-.23.28l-.09.1-.12-.05a2.61,2.61,0,0,1-.32-.17,5.851,5.851,0,0,1-.91-.65,3.749,3.749,0,0,1-.82-1.05,4.36,4.36,0,0,1-.47-1.34,5.14,5.14,0,0,1,.05-1.52,2.76,2.76,0,0,1,.2-.67,4.34,4.34,0,0,1,.33-.56,5.86,5.86,0,0,1,.72-.84c.09-.1.21-.18.27-.24Z" transform="translate(-331.421 -317.316)" fill="#252a3f"/>
        <path id="Path_378" data-name="Path 378" d="M420.72,413.65l.12.06c.08.05.21.1.33.18a6.758,6.758,0,0,1,.92.71,5,5,0,0,1,1.39,2.44,4.93,4.93,0,0,1-.23,2.81,6.291,6.291,0,0,1-.54,1,1.8,1.8,0,0,1-.22.3l-.09.11-.12-.06a1,1,0,0,1-.33-.18,5.468,5.468,0,0,1-.92-.7,4.79,4.79,0,0,1-1.15-5.25,6.073,6.073,0,0,1,.53-1c.08-.12.18-.23.23-.3Z" transform="translate(-331.421 -317.316)" fill="#252a3f"/>
      </g>
      <g id="Group_70" data-name="Group 70" transform="matrix(0.914, 0.407, -0.407, 0.914, 861.913, 2090.486)">
        <path id="Path_352-2" data-name="Path 352" d="M68.72,1.659,83.3,68.021l.858-1.544-70.616,15.4,1.552.858L2.427,16.086l-.858,1.552L70.255,2.517c1.578-.352.909-2.779-.669-2.436L.9,15.211a1.287,1.287,0,0,0-.858,1.552L12.711,83.4a1.287,1.287,0,0,0,1.552.858L84.879,68.819a1.287,1.287,0,0,0,.858-1.552L71.156.9c-.343-1.587-2.779-.909-2.427.669Z" transform="translate(0 25.002)" fill="#252a3f"/>
        <path id="Path_353-2" data-name="Path 353" d="M.057,2.625,15.908,74.587c.583,2.642,4.632,1.527,4.048-1.115Q12.039,37.448,4.114,1.51C3.531-1.132-.526-.017.057,2.625Z" transform="translate(33.376 29.269)" fill="#da3636"/>
        <path id="Path_354-2" data-name="Path 354" d="M79.433.059Q40.484,8.859,1.51,17.5c-2.642.583-1.527,4.64,1.115,4.057Q41.617,12.985,80.548,4.116C83.182,3.516,82.066-.533,79.433.059Z" transform="translate(1.131 54.195)" fill="#da3636"/>
        <path id="Path_355-2" data-name="Path 355" d="M5.426,33.12C4.38,26.164,3.556,18.487,5.28,11.574c.695-2.8,1.938-6,4.872-7.076s7.454.172,9.787,2.179c8,6.862-11.339,22.558-17.1,24.977C.383,32.683,1.463,36.748,3.959,35.7,12.742,32.022,35.42,12.544,21.92,2.928c-6.562-4.649-15.7-4-19.35,3.645-3.937,8.268-2.513,18.947-1.2,27.661.4,2.667,4.452,1.535,4.057-1.115Z" transform="translate(33.153 0)" fill="#da3636"/>
        <path id="Path_356-2" data-name="Path 356" d="M34.024,25.428C30.593,17.28,26.3,7.536,18.877,2.218c-7.05-5.061-15.19-.9-18.132,6.81-5.635,14.779,22.3,16.828,30.7,18.981,2.616.678,3.74-3.379,1.115-4.048-4.992-1.287-10.13-1.913-15.122-3.234-3.86-1.012-12.746-2.985-13.175-8.1C4,9.586,7.323,5.726,9.888,4.5c3.139-1.5,6.167.54,8.4,2.71,5.344,5.189,8.843,12.54,11.691,19.333C31,29,35.07,27.924,34.024,25.428Z" transform="translate(3.355 7.967)" fill="#da3636"/>
        <path id="Path_357-2" data-name="Path 357" d="M1.424,0,1.51.069c.06.051.163.12.257.206a4.993,4.993,0,0,1,.66.746,4.178,4.178,0,0,1,.309.506c.094.172.206.326.292.5a3.653,3.653,0,0,1,.335,1.064,4.34,4.34,0,0,1-.274,2.342,5.394,5.394,0,0,1-.463.858,2.924,2.924,0,0,1-.189.257l-.069.137-.1-.051a2.784,2.784,0,0,1-.283-.163,4.082,4.082,0,0,1-.789-.618,3.61,3.61,0,0,1-.72-.969,4.385,4.385,0,0,1-.42-1.235,4.758,4.758,0,0,1,0-1.4,2.907,2.907,0,0,1,.154-.626c.086-.18.18-.352.275-.515A5.061,5.061,0,0,1,1.089.326C1.175.232,1.27.154,1.321.1Z" transform="translate(63.316 35.076)" fill="#252a3f"/>
        <path id="Path_358-2" data-name="Path 358" d="M1.051,0l.1.051a.919.919,0,0,1,.283.137,5.51,5.51,0,0,1,.772.549,3.766,3.766,0,0,1,1.149,1.93,3.611,3.611,0,0,1-.232,2.221,4.666,4.666,0,0,1-.472.858c-.069.1-.154.189-.2.249l-.077.086-.1-.051a1.632,1.632,0,0,1-.283-.137,4.373,4.373,0,0,1-.772-.549A3.594,3.594,0,0,1,.074,3.422a3.714,3.714,0,0,1,.24-2.23A4.184,4.184,0,0,1,.785.335,1.714,1.714,0,0,1,.974.094Z" transform="translate(53.07 34.827)" fill="#252a3f"/>
        <path id="Path_359-2" data-name="Path 359" d="M1.041,0l.1.052A2.27,2.27,0,0,1,1.427.2a5.143,5.143,0,0,1,.781.566,3.954,3.954,0,0,1,1.166,1.99,3.834,3.834,0,0,1-.223,2.29,4.48,4.48,0,0,1-.472.858,2.627,2.627,0,0,1-.189.249l-.077.086-.1-.051a3.055,3.055,0,0,1-.283-.146,4.607,4.607,0,0,1-.78-.566A3.748,3.748,0,0,1,.312,1.184,4.608,4.608,0,0,1,.775.326c.069-.1.154-.2.2-.257Z" transform="translate(44.692 39.905)" fill="#252a3f"/>
        <path id="Path_360-2" data-name="Path 360" d="M1.471,0l.094.069a2.455,2.455,0,0,1,.24.189,4.758,4.758,0,0,1,.66.695,3.08,3.08,0,0,1,.3.463c.086.172.2.309.274.463a2.926,2.926,0,0,1,.317.969A3.868,3.868,0,0,1,3.049,5a4.985,4.985,0,0,1-.48.858,2.482,2.482,0,0,1-.2.24l-.077.094-.1-.051A2.242,2.242,0,0,1,1.917,6a4.5,4.5,0,0,1-.781-.558,3.1,3.1,0,0,1-.7-.9A3.765,3.765,0,0,1,.03,3.4,4.452,4.452,0,0,1,.072,2.084,2.367,2.367,0,0,1,.244,1.51a3.725,3.725,0,0,1,.283-.48,5.027,5.027,0,0,1,.618-.72A2.228,2.228,0,0,1,1.385.1Z" transform="translate(60.67 47.264)" fill="#252a3f"/>
        <path id="Path_361-2" data-name="Path 361" d="M1.429,0l.094.069c.06.051.163.12.249.206a5.519,5.519,0,0,1,.669.746,5.66,5.66,0,0,1,.309.506c.086.172.206.326.283.5a3.2,3.2,0,0,1,.334,1.064A4.34,4.34,0,0,1,3.1,5.429a5.391,5.391,0,0,1-.463.858c-.069.1-.154.2-.2.257l-.069.094-.112-.051c-.06-.043-.18-.086-.283-.163A4.341,4.341,0,0,1,1.2,5.807a3.833,3.833,0,0,1-.729-.969A4.666,4.666,0,0,1,.048,3.6a5.078,5.078,0,0,1,0-1.4,2.918,2.918,0,0,1,.163-.626,3.7,3.7,0,0,1,.275-.515A4.193,4.193,0,0,1,1.095.283,2.565,2.565,0,0,1,1.326.06Z" transform="translate(28.667 43.233)" fill="#252a3f"/>
        <path id="Path_362-2" data-name="Path 362" d="M1.022,0l.1.051a.857.857,0,0,1,.283.154,4.657,4.657,0,0,1,.78.609,4.074,4.074,0,0,1,.995,4.494,4.188,4.188,0,0,1-.463.858,2.012,2.012,0,0,1-.189.257l-.069.094-.112-.051a.858.858,0,0,1-.283-.154A5.052,5.052,0,0,1,1.28,5.7,4.108,4.108,0,0,1,.293,1.2,5.061,5.061,0,0,1,.756.343,1.542,1.542,0,0,1,.945.086Z" transform="translate(17.306 42.521)" fill="#252a3f"/>
        <path id="Path_363-2" data-name="Path 363" d="M.956,0l.112.069a2.94,2.94,0,0,1,.292.2A5.385,5.385,0,0,1,2.174,1a5.7,5.7,0,0,1,1.278,2.5,5.618,5.618,0,0,1-.1,2.813,5.336,5.336,0,0,1-.437,1.021,1.962,1.962,0,0,1-.18.292l-.069.112-.112-.069c-.06-.043-.18-.112-.292-.2A5.891,5.891,0,0,1,1.4,6.742a5.61,5.61,0,0,1-1.278-2.5A5.755,5.755,0,0,1,.236,1.415,5.517,5.517,0,0,1,.665.4,3.1,3.1,0,0,1,.845.112Z" transform="translate(9.258 48.859)" fill="#252a3f"/>
        <path id="Path_364-2" data-name="Path 364" d="M1.014,0l.1.06A1.611,1.611,0,0,1,1.4.214a4.7,4.7,0,0,1,.789.6,4.091,4.091,0,0,1,.995,4.5,4.526,4.526,0,0,1-.463.858,2.209,2.209,0,0,1-.189.266l-.077.094-.1-.06a.857.857,0,0,1-.283-.154,5.5,5.5,0,0,1-.789-.6,4.108,4.108,0,0,1-.986-4.5A4.9,4.9,0,0,1,.756.36,2.909,2.909,0,0,1,.945.1Z" transform="translate(26.879 54.803)" fill="#252a3f"/>
        <path id="Path_365-2" data-name="Path 365" d="M1.1,0l.1.051A1.869,1.869,0,0,1,1.483.18a4.286,4.286,0,0,1,.763.532A3.345,3.345,0,0,1,3.1,4.735a4.159,4.159,0,0,1-.48.8,1.229,1.229,0,0,1-.2.24l-.069.086-.1-.043a.837.837,0,0,1-.283-.137A5.145,5.145,0,0,1,1.2,5.155,3.491,3.491,0,0,1,.068,3.294a3.594,3.594,0,0,1,.249-2.17A5.013,5.013,0,0,1,.8.326c.06-.094.154-.18.2-.24Z" transform="translate(16.854 58.243)" fill="#252a3f"/>
        <path id="Path_366-2" data-name="Path 366" d="M.628,0H.74a1.517,1.517,0,0,1,.309.094,5.147,5.147,0,0,1,.858.455,5.648,5.648,0,0,1,.463.36,2.65,2.65,0,0,1,.412.5,5.147,5.147,0,0,1,.6,1.261,4.445,4.445,0,0,1,.137,1.3A3.782,3.782,0,0,1,3.27,5.155a4.752,4.752,0,0,1-.455.858,2.915,2.915,0,0,1-.189.257l-.077.094-.1-.051c-.069-.043-.18-.086-.283-.154a5.688,5.688,0,0,1-.8-.6A4.289,4.289,0,0,1,.148,3.542,3.363,3.363,0,0,1,0,2.444c0-.2.043-.377.051-.583a4.331,4.331,0,0,1,.069-.583A5.073,5.073,0,0,1,.414.326,2.411,2.411,0,0,1,.551.034Z" transform="translate(70.871 65.774)" fill="#252a3f"/>
        <path id="Path_367-2" data-name="Path 367" d="M1.1,0l.1.043A2.053,2.053,0,0,1,1.483.18,4.2,4.2,0,0,1,2.247.7,3.354,3.354,0,0,1,3.1,4.735a4.16,4.16,0,0,1-.48.8,2.124,2.124,0,0,1-.2.24l-.069.086-.1-.051a1.871,1.871,0,0,1-.283-.129A4.658,4.658,0,0,1,1.2,5.146,3.431,3.431,0,0,1,.068,3.285,3.559,3.559,0,0,1,.317,1.124,4.767,4.767,0,0,1,.8.317a2.064,2.064,0,0,1,.2-.232Z" transform="translate(57.981 66.949)" fill="#252a3f"/>
        <path id="Path_368-2" data-name="Path 368" d="M1.315,0,1.41.086c.06.06.172.146.266.249a6.239,6.239,0,0,1,.695.858A5.885,5.885,0,0,1,2.7,1.8c.1.214.232.412.317.635a5.342,5.342,0,0,1,.395,1.355,6.33,6.33,0,0,1-.146,2.882,7.239,7.239,0,0,1-.429,1.046,3.55,3.55,0,0,1-.189.309l-.069.112-.1-.077a2.382,2.382,0,0,1-.3-.206,6.564,6.564,0,0,1-.858-.781A5.308,5.308,0,0,1,.552,5.867a6.386,6.386,0,0,1-.48-1.5A7.1,7.1,0,0,1,.029,2.719a3.81,3.81,0,0,1,.377-1.4A6.317,6.317,0,0,1,.972.343,2.281,2.281,0,0,1,1.2.069Z" transform="translate(51.039 74.762)" fill="#252a3f"/>
        <path id="Path_369-2" data-name="Path 369" d="M1.386,0l.094.077c.06.051.163.12.257.214a5.026,5.026,0,0,1,.686.781,8,8,0,0,1,.609,1.1,3.861,3.861,0,0,1,.36,1.184,4.982,4.982,0,0,1,.06.635,4.147,4.147,0,0,1,0,.652A6.15,6.15,0,0,1,3.17,5.858a5.834,5.834,0,0,1-.5.961,2.66,2.66,0,0,1-.189.283L2.407,7.2l-.1-.06a3.112,3.112,0,0,1-.283-.172,5.146,5.146,0,0,1-.806-.678A3.861,3.861,0,0,1,.477,5.232,4.616,4.616,0,0,1,.048,3.894a5.464,5.464,0,0,1,0-1.45,3.431,3.431,0,0,1,.42-1.218A4.762,4.762,0,0,1,1.052.369c.077-.1.172-.189.223-.249Z" transform="translate(66.441 76.109)" fill="#252a3f"/>
        <path id="Path_370-2" data-name="Path 370" d="M1.331,0l.094.077a2.576,2.576,0,0,1,.266.2,5.4,5.4,0,0,1,.712.738,4.632,4.632,0,0,1,.944,2.359c0,.232.051.42.06.635a3.579,3.579,0,0,1,0,.609,4.176,4.176,0,0,1-.3,1.158,5,5,0,0,1-.472.858,2.424,2.424,0,0,1-.189.275L2.369,7l-.1-.06a1.915,1.915,0,0,1-.283-.172,4.427,4.427,0,0,1-.789-.686A4.821,4.821,0,0,1,.448,5a4.227,4.227,0,0,1-.266-.643,2.455,2.455,0,0,1-.163-.669A4.709,4.709,0,0,1,.491,1.175,5.246,5.246,0,0,1,1.048.317c.077-.1.172-.189.214-.249Z" transform="translate(60.261 85.501)" fill="#252a3f"/>
        <path id="Path_371-2" data-name="Path 371" d="M1.335,0l.094.069c.051.051.163.129.257.223a5.577,5.577,0,0,1,.686.781,7.424,7.424,0,0,1,.609,1.089,3.928,3.928,0,0,1,.36,1.184c0,.2.06.429.06.643a3.23,3.23,0,0,1,0,.643A5.051,5.051,0,0,1,3.119,5.85a5.294,5.294,0,0,1-.455.935,2.421,2.421,0,0,1-.189.275l-.069.1L2.3,7.1a2.8,2.8,0,0,1-.283-.18,4.981,4.981,0,0,1-.8-.669A4.039,4.039,0,0,1,.477,5.189,4.477,4.477,0,0,1,.048,3.86a5.53,5.53,0,0,1,0-1.458A3.294,3.294,0,0,1,.46,1.184,5.665,5.665,0,0,1,1.043.326a2.13,2.13,0,0,1,.232-.24A.617.617,0,0,1,1.335,0Z" transform="translate(36.044 73.845)" fill="#252a3f"/>
        <path id="Path_372-2" data-name="Path 372" d="M1.38,0l.1.06L1.74.249a4.692,4.692,0,0,1,.695.686,4.151,4.151,0,0,1,.858,2.213,3.748,3.748,0,0,1-.2,2.239,5.32,5.32,0,0,1-.489.858,1.806,1.806,0,0,1-.2.257l-.069.086-.1-.051a2.5,2.5,0,0,1-.283-.154,4.986,4.986,0,0,1-.781-.635A4.485,4.485,0,0,1,.016,3.5,4.22,4.22,0,0,1,.522,1.1,6.013,6.013,0,0,1,1.088.24,2.914,2.914,0,0,1,1.32.009Z" transform="translate(25.706 75.826)" fill="#252a3f"/>
        <path id="Path_373-2" data-name="Path 373" d="M1.451,0l.094.06A2.341,2.341,0,0,1,1.8.249,4.688,4.688,0,0,1,2.5.935a4.058,4.058,0,0,1,.858,2.2,3.714,3.714,0,0,1-.266,2.247,5.227,5.227,0,0,1-.48.858,3.153,3.153,0,0,1-.2.257L2.334,6.6l-.1-.051a2.22,2.22,0,0,1-.283-.163,4.415,4.415,0,0,1-.772-.626A4.529,4.529,0,0,1,.01,3.508,4.289,4.289,0,0,1,.533,1.149,4.572,4.572,0,0,1,1.108.334c.077-.1.172-.18.223-.24Z" transform="translate(28.912 90.647)" fill="#252a3f"/>
        <path id="Path_374-2" data-name="Path 374" d="M1.367,0l.094.06a2.348,2.348,0,0,1,.257.189,5.581,5.581,0,0,1,.7.678,4.04,4.04,0,0,1,.9,2.2c0,.206.043.395.051.583a3.14,3.14,0,0,1,0,.566,3.765,3.765,0,0,1-.309,1.072,5.469,5.469,0,0,1-.489.858,1.957,1.957,0,0,1-.2.257l-.069.094L2.2,6.5c-.06-.043-.172-.086-.274-.154a4.983,4.983,0,0,1-.781-.635,4.229,4.229,0,0,1-.721-1,3.723,3.723,0,0,1-.257-.6,2.16,2.16,0,0,1-.154-.626A4.126,4.126,0,0,1,.527,1.149,4.48,4.48,0,0,1,1.093.343c.077-.1.172-.18.223-.24Z" transform="translate(14.568 78.571)" fill="#252a3f"/>
        <path id="Path_375-2" data-name="Path 375" d="M.975,0l.1.06a3.1,3.1,0,0,1,.292.172,5.842,5.842,0,0,1,.8.66A4.8,4.8,0,0,1,3.394,3.165a4.717,4.717,0,0,1-.154,2.573,5.008,5.008,0,0,1-.455.935,1.826,1.826,0,0,1-.189.274l-.069.1-.1-.06a3.117,3.117,0,0,1-.292-.172,5.36,5.36,0,0,1-.8-.66A4.683,4.683,0,0,1,.272,1.312,5.04,5.04,0,0,1,.718.377,1.826,1.826,0,0,1,.906.1Z" transform="translate(38.394 89.241)" fill="#252a3f"/>
        <path id="Path_376-2" data-name="Path 376" d="M1.378,0l.094.069A2.962,2.962,0,0,1,1.73.274a5.147,5.147,0,0,1,.678.72A6.7,6.7,0,0,1,3,2.024a3.277,3.277,0,0,1,.335,1.089,4.205,4.205,0,0,1,.051.583,3.532,3.532,0,0,1,0,.6,4.889,4.889,0,0,1-.3,1.132,5.392,5.392,0,0,1-.463.858c-.069.112-.154.206-.2.266l-.069.086-.112-.051a.857.857,0,0,1-.283-.154,5.275,5.275,0,0,1-.781-.618,3.594,3.594,0,0,1-.729-.986,4,4,0,0,1-.4-1.244,4.829,4.829,0,0,1,0-1.364A3.432,3.432,0,0,1,.486,1.089a5.2,5.2,0,0,1,.592-.8C1.155.2,1.258.12,1.309.06Z" transform="translate(19.618 92.757)" fill="#252a3f"/>
        <path id="Path_377-2" data-name="Path 377" d="M1.47,0l.086.069A1.719,1.719,0,0,1,1.8.257a4.359,4.359,0,0,1,.66.695,3.931,3.931,0,0,1,.3.463c.086.172.2.3.274.463a2.667,2.667,0,0,1,.309.969A3.791,3.791,0,0,1,3.049,5a5.372,5.372,0,0,1-.48.858c-.069.094-.154.189-.2.24l-.077.086-.1-.043A2.242,2.242,0,0,1,1.916,6a5.017,5.017,0,0,1-.781-.558,3.215,3.215,0,0,1-.7-.9,3.74,3.74,0,0,1-.4-1.149,4.408,4.408,0,0,1,.043-1.3A2.367,2.367,0,0,1,.244,1.51a3.727,3.727,0,0,1,.283-.48,5.027,5.027,0,0,1,.618-.72c.077-.086.18-.154.232-.206Z" transform="translate(51.939 50.772)" fill="#252a3f"/>
        <path id="Path_378-2" data-name="Path 378" d="M1.014,0l.1.051c.069.043.18.086.283.154a5.8,5.8,0,0,1,.789.609A4.289,4.289,0,0,1,3.381,2.908a4.229,4.229,0,0,1-.2,2.41,5.4,5.4,0,0,1-.463.858,1.543,1.543,0,0,1-.189.257l-.077.094-.1-.051a.858.858,0,0,1-.283-.154,4.687,4.687,0,0,1-.789-.6,4.109,4.109,0,0,1-.986-4.5A5.21,5.21,0,0,1,.748.36C.816.257.9.163.945.1Z" transform="translate(75.58 82.628)" fill="#252a3f"/>
      </g>
      <g id="Group_71" data-name="Group 71" transform="translate(933.975 2088.206) rotate(-21)">
        <path id="Path_352-3" data-name="Path 352" d="M54.812,1.324l11.63,52.931.684-1.231L10.8,65.3l1.238.684L1.935,12.831l-.684,1.238L56.036,2.008C57.3,1.727,56.762-.209,55.5.065L.718,12.133a1.026,1.026,0,0,0-.684,1.238l10.1,53.15a1.026,1.026,0,0,0,1.238.684L67.7,54.891a1.026,1.026,0,0,0,.684-1.238L56.755.721c-.274-1.266-2.217-.725-1.936.534Z" transform="translate(0 19.942)" fill="#252a3f"/>
        <path id="Path_353-3" data-name="Path 353" d="M.046,2.093l12.643,57.4c.465,2.107,3.694,1.218,3.229-.889Q9.6,29.869,3.282,1.2C2.816-.9-.42-.014.046,2.093Z" transform="translate(26.621 23.345)" fill="#da3636"/>
        <path id="Path_354-3" data-name="Path 354" d="M63.357.047Q32.291,7.066,1.2,13.962c-2.107.465-1.218,3.7.889,3.236q31.1-6.841,62.153-13.915C66.347,2.8,65.457-.425,63.357.047Z" transform="translate(0.902 43.227)" fill="#da3636"/>
        <path id="Path_355-3" data-name="Path 355" d="M4.328,26.417c-.835-5.548-1.491-11.671-.116-17.185C4.766,7,5.758,4.443,8.1,3.588s5.945.137,7.806,1.738C22.286,10.8,6.859,23.318,2.262,25.247c-1.957.821-1.095,4.064.9,3.229C10.163,25.541,28.252,10,17.484,2.336,12.25-1.372,4.957-.852,2.05,5.243c-3.14,6.6-2,15.112-.958,22.063.322,2.128,3.551,1.225,3.236-.889Z" transform="translate(26.444 0)" fill="#da3636"/>
        <path id="Path_356-3" data-name="Path 356" d="M27.138,20.282C24.4,13.783,20.981,6.011,15.056,1.769,9.433-2.267,2.94,1.051.594,7.2-3.9,18.989,18.381,20.624,25.079,22.341c2.087.54,2.983-2.7.889-3.229-3.982-1.026-8.08-1.526-12.061-2.579C10.828,15.726,3.741,14.152,3.4,10.075,3.194,7.646,5.841,4.567,7.887,3.589c2.5-1.2,4.919.431,6.7,2.162,4.262,4.139,7.053,10,9.325,15.42.821,1.957,4.064,1.1,3.229-.889Z" transform="translate(2.676 6.354)" fill="#da3636"/>
        <path id="Path_357-3" data-name="Path 357" d="M1.136,0,1.2.055c.048.041.13.1.205.164a3.982,3.982,0,0,1,.527.6,3.332,3.332,0,0,1,.246.4c.075.137.164.26.233.4a2.914,2.914,0,0,1,.267.848A3.462,3.462,0,0,1,2.463,4.33a4.3,4.3,0,0,1-.369.684,2.338,2.338,0,0,1-.151.205l-.055.109-.082-.041a2.217,2.217,0,0,1-.226-.13,3.254,3.254,0,0,1-.629-.493,2.879,2.879,0,0,1-.575-.773,3.5,3.5,0,0,1-.335-.985,3.794,3.794,0,0,1,0-1.115,2.32,2.32,0,0,1,.123-.5c.068-.144.144-.281.219-.41A4.036,4.036,0,0,1,.869.26c.068-.075.144-.137.185-.178Z" transform="translate(50.502 27.977)" fill="#252a3f"/>
        <path id="Path_358-3" data-name="Path 358" d="M.839,0,.921.041a.732.732,0,0,1,.226.109,4.39,4.39,0,0,1,.616.438,3,3,0,0,1,.917,1.539A2.88,2.88,0,0,1,2.494,3.9a3.722,3.722,0,0,1-.376.684c-.055.082-.123.151-.157.2L1.9,4.85l-.082-.041A1.3,1.3,0,0,1,1.591,4.7a3.489,3.489,0,0,1-.616-.438A2.867,2.867,0,0,1,.059,2.73,2.962,2.962,0,0,1,.25.951,3.338,3.338,0,0,1,.626.267,1.368,1.368,0,0,1,.777.075Z" transform="translate(42.329 27.779)" fill="#252a3f"/>
        <path id="Path_359-3" data-name="Path 359" d="M.83,0,.913.041a1.8,1.8,0,0,1,.226.116,4.1,4.1,0,0,1,.623.452A3.154,3.154,0,0,1,2.691,2.2a3.058,3.058,0,0,1-.178,1.827,3.575,3.575,0,0,1-.376.684,2.105,2.105,0,0,1-.15.2l-.062.068-.082-.041a2.444,2.444,0,0,1-.226-.116,3.675,3.675,0,0,1-.623-.452A2.99,2.99,0,0,1,.249.944,3.676,3.676,0,0,1,.618.26C.673.178.742.1.776.055Z" transform="translate(35.647 31.829)" fill="#252a3f"/>
        <path id="Path_360-3" data-name="Path 360" d="M1.173,0l.075.055a1.955,1.955,0,0,1,.192.15,3.8,3.8,0,0,1,.527.554,2.457,2.457,0,0,1,.239.369c.068.137.157.246.219.369a2.334,2.334,0,0,1,.253.773,3.085,3.085,0,0,1-.246,1.717,3.974,3.974,0,0,1-.383.684,1.982,1.982,0,0,1-.157.192l-.062.075L1.748,4.9a1.789,1.789,0,0,1-.219-.116,3.593,3.593,0,0,1-.623-.445,2.471,2.471,0,0,1-.561-.718,3,3,0,0,1-.321-.91A3.552,3.552,0,0,1,.058,1.662,1.887,1.887,0,0,1,.195,1.2,2.965,2.965,0,0,1,.42.821,4.008,4.008,0,0,1,.913.246,1.776,1.776,0,0,1,1.1.082Z" transform="translate(48.392 37.698)" fill="#252a3f"/>
        <path id="Path_361-3" data-name="Path 361" d="M1.14,0l.075.055c.048.041.13.1.2.164a4.405,4.405,0,0,1,.534.6,4.515,4.515,0,0,1,.246.4c.068.137.164.26.226.4a2.553,2.553,0,0,1,.267.848,3.462,3.462,0,0,1-.212,1.868,4.3,4.3,0,0,1-.369.684c-.055.082-.123.157-.157.205L1.893,5.3,1.8,5.254c-.048-.034-.144-.068-.226-.13a3.465,3.465,0,0,1-.623-.493,3.058,3.058,0,0,1-.582-.773,3.724,3.724,0,0,1-.335-.985,4.052,4.052,0,0,1,0-1.115,2.33,2.33,0,0,1,.13-.5A2.949,2.949,0,0,1,.387.848,3.342,3.342,0,0,1,.873.226,2.05,2.05,0,0,1,1.058.048Z" transform="translate(22.865 34.483)" fill="#252a3f"/>
        <path id="Path_362-3" data-name="Path 362" d="M.815,0,.9.041a.684.684,0,0,1,.226.123A3.717,3.717,0,0,1,1.746.65a3.25,3.25,0,0,1,.794,3.585,3.341,3.341,0,0,1-.369.684,1.6,1.6,0,0,1-.15.205L1.965,5.2l-.089-.041a.684.684,0,0,1-.226-.123,4.027,4.027,0,0,1-.629-.486A3.277,3.277,0,0,1,.234.958,4.036,4.036,0,0,1,.6.274,1.23,1.23,0,0,1,.754.068Z" transform="translate(13.804 33.915)" fill="#252a3f"/>
        <path id="Path_363-3" data-name="Path 363" d="M.763,0,.852.055a2.342,2.342,0,0,1,.233.157A4.3,4.3,0,0,1,1.734.8a4.55,4.55,0,0,1,1.019,2,4.481,4.481,0,0,1-.082,2.244,4.255,4.255,0,0,1-.349.814,1.568,1.568,0,0,1-.144.233l-.055.089-.089-.055c-.048-.034-.144-.089-.233-.157a4.7,4.7,0,0,1-.684-.588A4.475,4.475,0,0,1,.1,3.38,4.591,4.591,0,0,1,.188,1.129,4.4,4.4,0,0,1,.53.322,2.466,2.466,0,0,1,.674.089Z" transform="translate(7.384 38.971)" fill="#252a3f"/>
        <path id="Path_364-3" data-name="Path 364" d="M.809,0,.891.048a1.285,1.285,0,0,1,.226.123A3.746,3.746,0,0,1,1.746.65a3.263,3.263,0,0,1,.794,3.592,3.609,3.609,0,0,1-.369.684,1.759,1.759,0,0,1-.15.212l-.062.075-.082-.048a.684.684,0,0,1-.226-.123,4.386,4.386,0,0,1-.629-.479A3.277,3.277,0,0,1,.234.971,3.912,3.912,0,0,1,.6.287,2.325,2.325,0,0,1,.754.082Z" transform="translate(21.439 43.712)" fill="#252a3f"/>
        <path id="Path_365-3" data-name="Path 365" d="M.875,0,.957.041a1.489,1.489,0,0,1,.226.1,3.418,3.418,0,0,1,.609.424,2.668,2.668,0,0,1,.684,3.209,3.319,3.319,0,0,1-.383.636.98.98,0,0,1-.157.192l-.055.068L1.8,4.638a.667.667,0,0,1-.226-.109,4.1,4.1,0,0,1-.616-.417,2.784,2.784,0,0,1-.9-1.485A2.867,2.867,0,0,1,.253.9,4,4,0,0,1,.636.26C.684.185.759.116.793.068Z" transform="translate(13.443 46.455)" fill="#252a3f"/>
        <path id="Path_366-3" data-name="Path 366" d="M.5,0H.59A1.208,1.208,0,0,1,.836.075,4.1,4.1,0,0,1,1.52.438,4.5,4.5,0,0,1,1.89.725a2.113,2.113,0,0,1,.328.4A4.106,4.106,0,0,1,2.7,2.128a3.546,3.546,0,0,1,.109,1.033,3.017,3.017,0,0,1-.2.951,3.79,3.79,0,0,1-.363.684A2.325,2.325,0,0,1,2.095,5l-.062.075-.082-.041C1.9,5,1.808,4.967,1.726,4.912a4.537,4.537,0,0,1-.636-.479A3.421,3.421,0,0,1,.118,2.825,2.682,2.682,0,0,1,0,1.95c0-.157.034-.3.041-.465A3.453,3.453,0,0,1,.1,1.019,4.046,4.046,0,0,1,.33.26,1.925,1.925,0,0,1,.439.027Z" transform="translate(56.527 52.462)" fill="#252a3f"/>
        <path id="Path_367-3" data-name="Path 367" d="M.875,0,.957.034a1.638,1.638,0,0,1,.226.109,3.349,3.349,0,0,1,.609.417,2.675,2.675,0,0,1,.684,3.215,3.318,3.318,0,0,1-.383.636,1.7,1.7,0,0,1-.157.192l-.055.068L1.8,4.632a1.493,1.493,0,0,1-.226-.1A3.713,3.713,0,0,1,.957,4.1a2.737,2.737,0,0,1-.9-1.485A2.839,2.839,0,0,1,.253.9,3.8,3.8,0,0,1,.636.253,1.646,1.646,0,0,1,.793.068Z" transform="translate(46.247 53.399)" fill="#252a3f"/>
        <path id="Path_368-3" data-name="Path 368" d="M1.049,0l.075.068c.048.048.137.116.212.2a4.974,4.974,0,0,1,.554.684,4.686,4.686,0,0,1,.267.486c.082.171.185.328.253.506a4.262,4.262,0,0,1,.315,1.081,5.049,5.049,0,0,1-.116,2.3,5.773,5.773,0,0,1-.342.835,2.824,2.824,0,0,1-.151.246l-.055.089L1.98,6.431a1.9,1.9,0,0,1-.239-.164,5.233,5.233,0,0,1-.684-.623A4.233,4.233,0,0,1,.44,4.679a5.094,5.094,0,0,1-.383-1.2A5.667,5.667,0,0,1,.023,2.169a3.039,3.039,0,0,1,.3-1.115A5.04,5.04,0,0,1,.776.274,1.82,1.82,0,0,1,.953.055Z" transform="translate(40.709 59.632)" fill="#252a3f"/>
        <path id="Path_369-3" data-name="Path 369" d="M1.106,0l.075.062c.048.041.13.1.205.171a4.009,4.009,0,0,1,.547.623,6.377,6.377,0,0,1,.486.876,3.079,3.079,0,0,1,.287.944,3.975,3.975,0,0,1,.048.506,3.3,3.3,0,0,1,0,.52,4.9,4.9,0,0,1-.226.971,4.649,4.649,0,0,1-.4.766,2.115,2.115,0,0,1-.15.226L1.92,5.74l-.082-.048a2.476,2.476,0,0,1-.226-.137,4.1,4.1,0,0,1-.643-.54,3.078,3.078,0,0,1-.588-.841A3.681,3.681,0,0,1,.038,3.106a4.357,4.357,0,0,1,0-1.156A2.736,2.736,0,0,1,.374.978,3.8,3.8,0,0,1,.839.294C.9.212.976.144,1.017.1Z" transform="translate(52.995 60.706)" fill="#252a3f"/>
        <path id="Path_370-3" data-name="Path 370" d="M1.062,0l.075.062a2.055,2.055,0,0,1,.212.157,4.308,4.308,0,0,1,.568.588,3.694,3.694,0,0,1,.753,1.881c0,.185.041.335.048.506a2.856,2.856,0,0,1,0,.486,3.331,3.331,0,0,1-.239.924,3.985,3.985,0,0,1-.376.684,1.928,1.928,0,0,1-.151.219l-.062.075-.082-.048A1.531,1.531,0,0,1,1.582,5.4,3.53,3.53,0,0,1,.952,4.85a3.846,3.846,0,0,1-.6-.862,3.37,3.37,0,0,1-.212-.513,1.957,1.957,0,0,1-.13-.534,3.756,3.756,0,0,1,.376-2A4.181,4.181,0,0,1,.836.253C.9.171.973.1,1.007.055Z" transform="translate(48.065 68.197)" fill="#252a3f"/>
        <path id="Path_371-3" data-name="Path 371" d="M1.065,0,1.14.055c.041.041.13.1.205.178a4.449,4.449,0,0,1,.547.623,5.923,5.923,0,0,1,.486.869,3.134,3.134,0,0,1,.287.944c0,.157.048.342.048.513a2.576,2.576,0,0,1,0,.513,4.03,4.03,0,0,1-.226.971,4.221,4.221,0,0,1-.363.746,1.931,1.931,0,0,1-.151.219l-.055.082-.089-.048a2.229,2.229,0,0,1-.226-.144,3.973,3.973,0,0,1-.636-.534,3.222,3.222,0,0,1-.588-.848,3.57,3.57,0,0,1-.342-1.06,4.411,4.411,0,0,1,0-1.163A2.627,2.627,0,0,1,.367.944,4.515,4.515,0,0,1,.832.26,1.7,1.7,0,0,1,1.017.068.491.491,0,0,1,1.065,0Z" transform="translate(28.749 58.9)" fill="#252a3f"/>
        <path id="Path_372-3" data-name="Path 372" d="M1.1,0l.082.048L1.388.2a3.743,3.743,0,0,1,.554.547,3.31,3.31,0,0,1,.684,1.765A2.989,2.989,0,0,1,2.469,4.3a4.246,4.246,0,0,1-.39.684,1.441,1.441,0,0,1-.157.205l-.055.068-.082-.041a1.99,1.99,0,0,1-.226-.123,3.977,3.977,0,0,1-.623-.506A3.578,3.578,0,0,1,.013,2.791,3.366,3.366,0,0,1,.416.876,4.79,4.79,0,0,1,.868.192,2.318,2.318,0,0,1,1.053.007Z" transform="translate(20.504 60.48)" fill="#252a3f"/>
        <path id="Path_373-3" data-name="Path 373" d="M1.157,0l.075.048A1.865,1.865,0,0,1,1.438.2a3.738,3.738,0,0,1,.554.547A3.236,3.236,0,0,1,2.676,2.5,2.962,2.962,0,0,1,2.464,4.3a4.167,4.167,0,0,1-.383.684,2.505,2.505,0,0,1-.157.205l-.062.075L1.78,5.22a1.77,1.77,0,0,1-.226-.13,3.523,3.523,0,0,1-.616-.5A3.612,3.612,0,0,1,.008,2.8,3.421,3.421,0,0,1,.425.917,3.648,3.648,0,0,1,.883.267C.945.185,1.02.123,1.061.075Z" transform="translate(23.06 72.302)" fill="#252a3f"/>
        <path id="Path_374-3" data-name="Path 374" d="M1.091,0l.075.048A1.872,1.872,0,0,1,1.371.2a4.45,4.45,0,0,1,.561.54A3.222,3.222,0,0,1,2.65,2.49c0,.164.034.315.041.465a2.5,2.5,0,0,1,0,.452,3,3,0,0,1-.246.855,4.361,4.361,0,0,1-.39.684,1.559,1.559,0,0,1-.157.205l-.055.075-.089-.041c-.048-.034-.137-.068-.219-.123a3.974,3.974,0,0,1-.623-.506,3.373,3.373,0,0,1-.575-.8,2.969,2.969,0,0,1-.205-.479,1.723,1.723,0,0,1-.123-.5A3.291,3.291,0,0,1,.42.917,3.573,3.573,0,0,1,.872.274C.933.192,1.009.13,1.05.082Z" transform="translate(11.62 62.669)" fill="#252a3f"/>
        <path id="Path_375-3" data-name="Path 375" d="M.778,0,.86.048a2.473,2.473,0,0,1,.233.137,4.656,4.656,0,0,1,.636.527,3.831,3.831,0,0,1,.978,1.813,3.763,3.763,0,0,1-.123,2.052,3.993,3.993,0,0,1-.363.746,1.456,1.456,0,0,1-.151.219l-.055.082-.082-.048A2.488,2.488,0,0,1,1.7,5.439a4.277,4.277,0,0,1-.636-.527A3.735,3.735,0,0,1,.217,1.047,4.02,4.02,0,0,1,.572.3,1.456,1.456,0,0,1,.723.082Z" transform="translate(30.623 71.18)" fill="#252a3f"/>
        <path id="Path_376-3" data-name="Path 376" d="M1.1,0l.075.055a2.353,2.353,0,0,1,.205.164,4.105,4.105,0,0,1,.54.575,5.343,5.343,0,0,1,.472.821,2.614,2.614,0,0,1,.267.869,3.365,3.365,0,0,1,.041.465,2.82,2.82,0,0,1,0,.479,3.9,3.9,0,0,1-.239.9,4.3,4.3,0,0,1-.369.684c-.055.089-.123.164-.157.212L1.879,5.3,1.79,5.254a.683.683,0,0,1-.226-.123,4.209,4.209,0,0,1-.623-.493A2.867,2.867,0,0,1,.36,3.852,3.189,3.189,0,0,1,.039,2.86a3.852,3.852,0,0,1,0-1.088,2.736,2.736,0,0,1,.349-.9A4.145,4.145,0,0,1,.86.233C.921.157,1,.1,1.044.048Z" transform="translate(15.648 73.985)" fill="#252a3f"/>
        <path id="Path_377-3" data-name="Path 377" d="M1.173,0l.068.055a1.368,1.368,0,0,1,.2.151,3.477,3.477,0,0,1,.527.554,3.134,3.134,0,0,1,.239.369c.068.137.157.239.219.369a2.127,2.127,0,0,1,.246.773,3.024,3.024,0,0,1-.239,1.717,4.286,4.286,0,0,1-.383.684c-.055.075-.123.151-.157.192l-.062.068L1.747,4.9a1.786,1.786,0,0,1-.219-.116,4.006,4.006,0,0,1-.623-.445,2.565,2.565,0,0,1-.561-.718A2.983,2.983,0,0,1,.023,2.7a3.515,3.515,0,0,1,.034-1.04A1.886,1.886,0,0,1,.194,1.2,2.973,2.973,0,0,1,.42.821,4.01,4.01,0,0,1,.913.246C.974.178,1.056.123,1.1.082Z" transform="translate(41.427 40.497)" fill="#252a3f"/>
        <path id="Path_378-3" data-name="Path 378" d="M.809,0,.891.041c.055.034.144.068.226.123A4.624,4.624,0,0,1,1.746.65,3.421,3.421,0,0,1,2.7,2.319a3.373,3.373,0,0,1-.157,1.922,4.3,4.3,0,0,1-.369.684,1.23,1.23,0,0,1-.15.205l-.062.075-.082-.041a.684.684,0,0,1-.226-.123,3.739,3.739,0,0,1-.629-.479A3.277,3.277,0,0,1,.234.971,4.155,4.155,0,0,1,.6.287C.651.205.72.13.754.082Z" transform="translate(60.284 65.905)" fill="#252a3f"/>
      </g>
    </g>
  </g>
</svg>
