<svg xmlns="http://www.w3.org/2000/svg" width="1906" height="230" viewBox="0 0 1906 230">
  <g id="Group_91" data-name="Group 91" transform="translate(-20 -3008)">
    <path id="Polygon_6" data-name="Polygon 6" d="M36,0,72,180H0Z" transform="translate(108 3008)" fill="#248451"/>
    <path id="Polygon_7" data-name="Polygon 7" d="M36,0,72,180H0Z" transform="translate(395 3058)" fill="#248451"/>
    <path id="Polygon_8" data-name="Polygon 8" d="M36,0,72,180H0Z" transform="translate(603 3024)" fill="#248451"/>
    <path id="Polygon_9" data-name="Polygon 9" d="M36,0,72,143H0Z" transform="translate(682 3074)" fill="#248451"/>
    <path id="Polygon_10" data-name="Polygon 10" d="M36,0,72,180H0Z" transform="translate(1051 3017)" fill="#248451"/>
    <path id="Polygon_11" data-name="Polygon 11" d="M36,0,72,180H0Z" transform="translate(979 3058)" fill="#248451"/>
    <path id="Polygon_12" data-name="Polygon 12" d="M36,0,72,180H0Z" transform="translate(1317 3008)" fill="#248451"/>
    <path id="Polygon_29" data-name="Polygon 29" d="M36,0,72,140H0Z" transform="translate(1563 3082)" fill="#248451"/>
    <path id="Polygon_13" data-name="Polygon 13" d="M36,0,72,180H0Z" transform="translate(1453 3058)" fill="#248451"/>
    <path id="Polygon_15" data-name="Polygon 15" d="M36,0,72,180H0Z" transform="translate(1741 3024)" fill="#248451"/>
    <path id="Polygon_14" data-name="Polygon 14" d="M36,0,72,180H0Z" transform="translate(1813 3008)" fill="#248451"/>
    <g id="Group_74" data-name="Group 74">
      <path id="Polygon_16" data-name="Polygon 16" d="M20.5,0,41,48H0Z" transform="translate(29 3064)" fill="#248451"/>
      <path id="Polygon_17" data-name="Polygon 17" d="M29,0,58,68H0Z" transform="translate(20 3088)" fill="#248451"/>
      <path id="Polygon_18" data-name="Polygon 18" d="M29,0,58,68H0Z" transform="translate(20 3128)" fill="#248451"/>
    </g>
    <g id="Group_78" data-name="Group 78" transform="translate(1110 -8)">
      <path id="Polygon_16-2" data-name="Polygon 16" d="M20.5,0,41,48H0Z" transform="translate(29 3064)" fill="#248451"/>
      <path id="Polygon_17-2" data-name="Polygon 17" d="M29,0,58,68H0Z" transform="translate(20 3088)" fill="#248451"/>
      <path id="Polygon_18-2" data-name="Polygon 18" d="M29,0,58,68H0Z" transform="translate(20 3128)" fill="#248451"/>
    </g>
    <g id="Group_79" data-name="Group 79" transform="translate(1389 -8)">
      <path id="Polygon_16-3" data-name="Polygon 16" d="M20.5,0,41,48H0Z" transform="translate(29 3064)" fill="#248451"/>
      <path id="Polygon_17-3" data-name="Polygon 17" d="M29,0,58,68H0Z" transform="translate(20 3088)" fill="#248451"/>
      <path id="Polygon_18-3" data-name="Polygon 18" d="M29,0,58,68H0Z" transform="translate(20 3128)" fill="#248451"/>
    </g>
    <g id="Group_87" data-name="Group 87" transform="translate(1626 -6)">
      <path id="Polygon_16-4" data-name="Polygon 16" d="M20.5,0,41,48H0Z" transform="translate(29 3064)" fill="#248451"/>
      <path id="Polygon_17-4" data-name="Polygon 17" d="M29,0,58,68H0Z" transform="translate(20 3088)" fill="#248451"/>
      <path id="Polygon_18-4" data-name="Polygon 18" d="M29,0,58,68H0Z" transform="translate(20 3128)" fill="#248451"/>
    </g>
    <g id="Group_80" data-name="Group 80" transform="translate(1848 -10)">
      <path id="Polygon_16-5" data-name="Polygon 16" d="M20.5,0,41,48H0Z" transform="translate(29 3064)" fill="#248451"/>
      <path id="Polygon_17-5" data-name="Polygon 17" d="M29,0,58,68H0Z" transform="translate(20 3088)" fill="#248451"/>
      <path id="Polygon_18-5" data-name="Polygon 18" d="M29,0,58,68H0Z" transform="translate(20 3128)" fill="#248451"/>
    </g>
    <g id="Group_75" data-name="Group 75" transform="translate(193 30.69)">
      <path id="Polygon_16-6" data-name="Polygon 16" d="M14.5,0,29,34H0Z" transform="translate(26 3064.31)" fill="#248451"/>
      <path id="Polygon_17-6" data-name="Polygon 17" d="M20.5,0,41,48H0Z" transform="translate(20 3081.31)" fill="#248451"/>
      <path id="Polygon_18-6" data-name="Polygon 18" d="M20.5,0,41,48H0Z" transform="translate(20 3109.31)" fill="#248451"/>
    </g>
    <g id="Group_76" data-name="Group 76" transform="translate(554 33.69)">
      <path id="Polygon_16-7" data-name="Polygon 16" d="M14.5,0,29,34H0Z" transform="translate(26 3064.31)" fill="#248451"/>
      <path id="Polygon_17-7" data-name="Polygon 17" d="M20.5,0,41,48H0Z" transform="translate(20 3081.31)" fill="#248451"/>
      <path id="Polygon_18-7" data-name="Polygon 18" d="M20.5,0,41,48H0Z" transform="translate(20 3109.31)" fill="#248451"/>
    </g>
    <g id="Group_77" data-name="Group 77" transform="translate(727 21.69)">
      <path id="Polygon_16-8" data-name="Polygon 16" d="M14.5,0,29,34H0Z" transform="translate(26 3064.31)" fill="#248451"/>
      <path id="Polygon_17-8" data-name="Polygon 17" d="M20.5,0,41,48H0Z" transform="translate(20 3081.31)" fill="#248451"/>
      <path id="Polygon_18-8" data-name="Polygon 18" d="M20.5,0,41,48H0Z" transform="translate(20 3109.31)" fill="#248451"/>
    </g>
    <g id="Group_81" data-name="Group 81">
      <path id="Polygon_19" data-name="Polygon 19" d="M20.5,0,41,48H0Z" transform="translate(270 3032)" fill="#248451"/>
      <path id="Polygon_21" data-name="Polygon 21" d="M20.5,0,41,48H0Z" transform="translate(270 3135)" fill="#248451"/>
      <path id="Polygon_20" data-name="Polygon 20" d="M29,0,58,98H0Z" transform="translate(261 3056)" fill="#248451"/>
    </g>
    <g id="Group_82" data-name="Group 82" transform="translate(65 34)">
      <path id="Polygon_19-2" data-name="Polygon 19" d="M20.5,0,41,48H0Z" transform="translate(270 3032)" fill="#248451"/>
      <path id="Polygon_21-2" data-name="Polygon 21" d="M20.5,0,41,48H0Z" transform="translate(270 3135)" fill="#248451"/>
      <path id="Polygon_20-2" data-name="Polygon 20" d="M29,0,58,98H0Z" transform="translate(261 3056)" fill="#248451"/>
    </g>
    <g id="Group_83" data-name="Group 83" transform="translate(193 -4)">
      <path id="Polygon_19-3" data-name="Polygon 19" d="M20.5,0,41,48H0Z" transform="translate(270 3032)" fill="#248451"/>
      <path id="Polygon_21-3" data-name="Polygon 21" d="M20.5,0,41,48H0Z" transform="translate(270 3135)" fill="#248451"/>
      <path id="Polygon_20-3" data-name="Polygon 20" d="M29,0,58,98H0Z" transform="translate(261 3056)" fill="#248451"/>
    </g>
    <g id="Group_84" data-name="Group 84" transform="translate(522 8)">
      <path id="Polygon_19-4" data-name="Polygon 19" d="M20.5,0,41,48H0Z" transform="translate(270 3032)" fill="#248451"/>
      <path id="Polygon_21-4" data-name="Polygon 21" d="M20.5,0,41,48H0Z" transform="translate(270 3135)" fill="#248451"/>
      <path id="Polygon_20-4" data-name="Polygon 20" d="M29,0,58,98H0Z" transform="translate(261 3056)" fill="#248451"/>
    </g>
    <g id="Group_85" data-name="Group 85" transform="translate(674 53)">
      <path id="Polygon_19-5" data-name="Polygon 19" d="M20.5,0,41,48H0Z" transform="translate(270 3032)" fill="#248451"/>
      <path id="Polygon_21-5" data-name="Polygon 21" d="M20.5,0,41,48H0Z" transform="translate(270 3135)" fill="#248451"/>
      <path id="Polygon_20-5" data-name="Polygon 20" d="M29,0,58,98H0Z" transform="translate(261 3056)" fill="#248451"/>
    </g>
    <g id="Group_86" data-name="Group 86" transform="translate(937)">
      <path id="Polygon_19-6" data-name="Polygon 19" d="M20.5,0,41,48H0Z" transform="translate(270 3032)" fill="#248451"/>
      <path id="Polygon_21-6" data-name="Polygon 21" d="M20.5,0,41,48H0Z" transform="translate(270 3135)" fill="#248451"/>
      <path id="Polygon_20-6" data-name="Polygon 20" d="M29,0,58,98H0Z" transform="translate(261 3056)" fill="#248451"/>
    </g>
  </g>
</svg>
