<svg xmlns="http://www.w3.org/2000/svg" width="600" height="151" viewBox="0 0 600 151">
  <g id="detalii_ribbon" data-name="detalii ribbon" transform="translate(-660 -2508)">
    <path id="Path_745" data-name="Path 745" d="M0,0H600L567.556,77.849,600,151H0L36.081,77.849Z" transform="translate(660 2508)" fill="#51b982"/>
    <g id="Path_746" data-name="Path 746" transform="translate(667 2512)" fill="none">
      <path d="M0,0H585.809L554.133,73.724,585.809,143H0L35.227,73.724Z" stroke="none"/>
      <path d="M 3.17218017578125 2 L 37.031982421875 72.86215209960938 L 37.45721435546875 73.75199890136719 L 37.01019287109375 74.63099670410156 L 3.2607421875 141 L 582.6957397460938 141 L 552.313720703125 74.55615234375 L 551.9449462890625 73.74969482421875 L 552.2950439453125 72.93492126464844 L 582.7733154296875 2 L 233.0994262695313 2 L 3.17218017578125 2 M -6.103515625e-05 0 L 233.0994262695313 0 L 585.8093872070313 0 L 554.132568359375 73.72446441650391 L 585.8093872070313 143 L -6.103515625e-05 143 L 35.2274169921875 73.72446441650391 L -6.103515625e-05 0 Z" stroke="none" fill="#fff"/>
    </g>
  </g>
</svg>
