<svg xmlns="http://www.w3.org/2000/svg" width="453.121" height="76.01" viewBox="0 0 453.121 76.01"><defs><style>.a{fill:#51b982;}.b,.d{fill:none;stroke:#fff;}.b{stroke-linecap:round;stroke-linejoin:round;}.b,.d,.e{stroke-width:1.42px;}.c{fill:#2f8d5b;}.d,.e{stroke-miterlimit:10;}.e,.f{fill:#fff;}.e{stroke:#2f8d5b;}.f{font-size:20px;font-family:Roboto-Bold, Roboto;font-weight:700;}</style></defs><g transform="translate(4)"><g transform="translate(-4)"><path class="a" d="M192.8,76.01h64.36l-4.67-22.75,4.67-21.58H192.8Z" transform="translate(195.961)"/><path class="b" d="M195.38,71.84H250.4l-4.01-17.99,5.02-17.97H196.67" transform="translate(195.961)"/><path class="c" d="M227.8,60.65l-35,15.36V50.35Z" transform="translate(195.961)"/><path class="a" d="M64.36,0H0L4.67,22.75,0,44.33H64.36Z"/><path class="d" d="M62.27,3.56H4.95l4.5,18.61L4.95,41.22H62.27"/><path class="c" d="M29.36,15.36,64.36,0V25.66Z"/><rect class="a" width="394.671" height="45.3" transform="translate(29.34 15.35)"/><line class="d" x2="394.681" transform="translate(29.34 20.2)"/><line class="d" x2="394.681" transform="translate(29.34 56.75)"/><circle class="e" cx="7.26" cy="7.26" r="7.26" transform="translate(37.92 30.74)"/><path class="c" d="M47.58,39.1c.57-.19.69-.37.69-.37L46.61,36c.69-.06.57-.18.57-.18l-2-3.29-2,3.29s-.12.12.57.18l-1.66,2.76s.12.18.69.37l-1.6,2.72a9.55,9.55,0,0,0,8,0Z"/><circle class="e" cx="7.26" cy="7.26" r="7.26" transform="translate(400.931 30.74)"/><path class="c" d="M214.63,39.1c.57-.19.69-.37.69-.37L213.66,36c.69-.06.57-.18.57-.18l-2-3.29-2,3.29s-.12.12.57.18l-1.66,2.76s.12.18.69.37l-1.6,2.72a9.55,9.55,0,0,0,8,0Z" transform="translate(195.961)"/></g><text class="f" transform="translate(58.86 45.6)"><tspan x="0" y="0">COORDONATORUL EVENIMENTULUI</tspan></text></g></svg>