<svg id="green_ribbon" data-name="green ribbon" xmlns="http://www.w3.org/2000/svg" width="453.121" height="76.01" viewBox="0 0 453.121 76.01">
  <path id="Path_736" data-name="Path 736" d="M192.8,76.01h64.36l-4.67-22.75,4.67-21.58H192.8Z" transform="translate(195.961)" fill="#51b982"/>
  <path id="Path_737" data-name="Path 737" d="M195.38,71.84H250.4l-4.01-17.99,5.02-17.97H196.67" transform="translate(195.961)" fill="none" stroke="#fff" stroke-linecap="round" stroke-linejoin="round" stroke-width="1.42"/>
  <path id="Path_738" data-name="Path 738" d="M227.8,60.65l-35,15.36V50.35Z" transform="translate(195.961)" fill="#2f8d5b"/>
  <path id="Path_739" data-name="Path 739" d="M64.36,0H0L4.67,22.75,0,44.33H64.36Z" fill="#51b982"/>
  <path id="Path_740" data-name="Path 740" d="M62.27,3.56H4.95l4.5,18.61L4.95,41.22H62.27" fill="none" stroke="#fff" stroke-miterlimit="10" stroke-width="1.42"/>
  <path id="Path_741" data-name="Path 741" d="M29.36,15.36,64.36,0V25.66Z" fill="#2f8d5b"/>
  <rect id="Rectangle_54" data-name="Rectangle 54" width="394.671" height="45.3" transform="translate(29.34 15.35)" fill="#51b982"/>
  <line id="Line_17" data-name="Line 17" x2="394.681" transform="translate(29.34 20.2)" fill="none" stroke="#fff" stroke-miterlimit="10" stroke-width="1.42"/>
  <line id="Line_18" data-name="Line 18" x2="394.681" transform="translate(29.34 56.75)" fill="none" stroke="#fff" stroke-miterlimit="10" stroke-width="1.42"/>
  <circle id="Ellipse_34" data-name="Ellipse 34" cx="7.26" cy="7.26" r="7.26" transform="translate(37.92 30.74)" fill="#fff" stroke="#2f8d5b" stroke-miterlimit="10" stroke-width="1.42"/>
  <path id="Path_742" data-name="Path 742" d="M47.58,39.1c.57-.19.69-.37.69-.37L46.61,36c.69-.06.57-.18.57-.18l-2-3.29-2,3.29s-.12.12.57.18l-1.66,2.76s.12.18.69.37l-1.6,2.72a9.55,9.55,0,0,0,8,0Z" fill="#2f8d5b"/>
  <circle id="Ellipse_35" data-name="Ellipse 35" cx="7.26" cy="7.26" r="7.26" transform="translate(400.931 30.74)" fill="#fff" stroke="#2f8d5b" stroke-miterlimit="10" stroke-width="1.42"/>
  <path id="Path_744" data-name="Path 744" d="M214.63,39.1c.57-.19.69-.37.69-.37L213.66,36c.69-.06.57-.18.57-.18l-2-3.29-2,3.29s-.12.12.57.18l-1.66,2.76s.12.18.69.37l-1.6,2.72a9.55,9.55,0,0,0,8,0Z" transform="translate(195.961)" fill="#2f8d5b"/>
</svg>
