<svg xmlns="http://www.w3.org/2000/svg" width="66" height="16.078" viewBox="0 0 66 16.078"><defs><style>.a,.b{fill:none;}.a{stroke:#248451;stroke-width:3px;}.c,.e{fill:#248451;}.d,.e{stroke:none;}</style></defs><g transform="translate(-1155.989 -95)"><path class="a" d="M22.489,1h66" transform="translate(1133.5 95.5)"/><g transform="translate(-5 -1)"><g class="b" transform="translate(1208.887 112.078) rotate(180)"><path class="d" d="M14.943,0,29.887,14.232H0Z"/><path class="e" d="M 14.94335842132568 2.761903762817383 L 5.000001907348633 12.23176574707031 L 24.88671493530273 12.23176574707031 L 14.94335842132568 2.761903762817383 M 14.94335842132568 -4.76837158203125e-06 L 29.88671875 14.231764793396 L -1.9073486328125e-06 14.231764793396 L 14.94335842132568 -4.76837158203125e-06 Z"/></g><g class="c" transform="translate(1206 107) rotate(180)"><path class="d" d="M 22.71459770202637 10.5 L 1.285401821136475 10.5 L 12 0.6782850027084351 L 22.71459770202637 10.5 Z"/><path class="e" d="M 12 1.356559753417969 L 2.570793151855469 10 L 21.42920684814453 10 L 12 1.356559753417969 M 12 0 L 24 11 L 0 11 L 12 0 Z"/></g></g></g></svg>