<svg xmlns="http://www.w3.org/2000/svg" xmlns:xlink="http://www.w3.org/1999/xlink" width="458.268" height="582.109" viewBox="0 0 458.268 582.109">
  <defs>
    <clipPath id="clip-path">
      <path id="Path_611" data-name="Path 611" d="M176.51,305.6l68.159-17.19,19.991,77.931-79.27,18.1Z" transform="translate(-176.51 -288.41)" fill="none"/>
    </clipPath>
    <clipPath id="clip-path-2">
      <path id="Path_619" data-name="Path 619" d="M167.422,299.27l70.3.246.046,80.455-81.286-2.124Z" transform="translate(-156.48 -299.27)" fill="none"/>
    </clipPath>
  </defs>
  <g id="ilustratie_" data-name="ilustratie " transform="translate(-17.41 -57.698)">
    <g id="OBJECTS" transform="translate(0.034)">
      <path id="Path_568" data-name="Path 568" d="M462.908,407.691c0,14.866-98.306,26.916-219.589,26.916S23.73,422.557,23.73,407.691s98.322-26.931,219.589-26.931S462.908,392.81,462.908,407.691Z" transform="translate(12.737 205.2)" fill="#d9d9dd"/>
      <path id="Path_569" data-name="Path 569" d="M230.673,147.85s-101.4,16.528-127.253,29.24c0,0,5.155,11.927,14.358,20.006s113.234-5.925,113.234-5.925Z" transform="translate(55.683 79.68)" fill="#51b982"/>
      <path id="Path_570" data-name="Path 570" d="M241.12,357.94l3.955,51.431s24.238,12.527,63.173,2.616c0,0,4.617-16.928-10.988-21.545a91.878,91.878,0,0,1-14.327-5.294L284.841,358Z" transform="translate(129.893 192.902)" fill="#31312d"/>
      <path id="Path_571" data-name="Path 571" d="M243.45,389l.185,6.756s24.223,12.527,63.1,2.616a23.728,23.728,0,0,0,.554-7.371C284.847,397.71,266.226,395.4,243.45,389Z" transform="translate(131.149 209.641)" fill="#1e1e1b"/>
      <path id="Path_572" data-name="Path 572" d="M296.163,405.952a.339.339,0,0,1-.339-.292c-3-16.328-17.544-17.7-27.177-18.606-3.724-.339-6.417-.6-7.418-1.693-3.386-3.663-.893-21.052-.785-21.807a.338.338,0,0,1,.4-.292.369.369,0,0,1,.308.4c0,.185-2.555,17.805.6,21.222.816.877,3.524,1.139,6.971,1.462,9.234.877,24.623,2.339,27.793,19.19a.354.354,0,0,1-.277.416Z" transform="translate(139.777 195.767)" fill="#1e1e1b"/>
      <path id="Path_573" data-name="Path 573" d="M258.377,376.931a.357.357,0,0,1-.077-.708l17.544-3.6a.361.361,0,1,1,.138.708l-17.544,3.6Z" transform="translate(138.997 200.811)" fill="#1e1e1b"/>
      <path id="Path_574" data-name="Path 574" d="M258.578,373.891a.356.356,0,1,1-.077-.708l17.544-3.6a.354.354,0,0,1,.415.277.339.339,0,0,1-.277.415l-17.544,3.617Z" transform="translate(139.089 199.172)" fill="#1e1e1b"/>
      <path id="Path_575" data-name="Path 575" d="M258.806,369.971a.354.354,0,0,1-.354-.277.385.385,0,0,1,.277-.431l17.544-3.6a.369.369,0,0,1,.431.277.354.354,0,0,1-.277.416l-17.544,3.616Z" transform="translate(139.231 197.06)" fill="#1e1e1b"/>
      <path id="Path_576" data-name="Path 576" d="M240.124,357.94l-3.955,51.431s-24.238,12.527-63.1,2.616c0,0-4.617-16.928,10.988-21.545a92.519,92.519,0,0,0,14.343-5.294l-2.016-27.208Z" transform="translate(92.877 192.902)" fill="#31312d"/>
      <path id="Path_577" data-name="Path 577" d="M236.472,389l-.185,6.756s-24.223,12.527-63.1,2.616a23.732,23.732,0,0,1-.554-7.371C195.075,397.71,213.7,395.4,236.472,389Z" transform="translate(92.944 209.641)" fill="#1e1e1b"/>
      <path id="Path_578" data-name="Path 578" d="M174.334,405.952h0a.369.369,0,0,1-.292-.415c3.078-16.851,18.559-18.313,27.793-19.19,3.447-.323,6.156-.585,6.987-1.462,3.078-3.416.616-21.037.585-21.222a.369.369,0,0,1,.308-.4.339.339,0,0,1,.4.292c.108.754,2.6,18.144-.785,21.807-1,1.093-3.693,1.354-7.418,1.693-9.634.908-24.176,2.278-27.177,18.606a.338.338,0,0,1-.4.292Z" transform="translate(93.741 195.767)" fill="#1e1e1b"/>
      <path id="Path_579" data-name="Path 579" d="M205.536,376.931h0l-17.544-3.6a.361.361,0,0,1,.138-.708l17.544,3.6a.361.361,0,0,1-.138.708Z" transform="translate(101.104 200.811)" fill="#1e1e1b"/>
      <path id="Path_580" data-name="Path 580" d="M205.381,373.908H205.3l-17.544-3.663a.338.338,0,0,1-.277-.415.354.354,0,0,1,.415-.277l17.544,3.6a.354.354,0,0,1,.277.415A.339.339,0,0,1,205.381,373.908Z" transform="translate(100.982 199.156)" fill="#1e1e1b"/>
      <path id="Path_581" data-name="Path 581" d="M205.13,369.971h-.077l-17.544-3.616a.354.354,0,0,1-.277-.416.369.369,0,0,1,.431-.277l17.544,3.6a.385.385,0,0,1,.277.431A.354.354,0,0,1,205.13,369.971Z" transform="translate(100.848 197.06)" fill="#1e1e1b"/>
      <path id="Path_582" data-name="Path 582" d="M193.988,247.21s-6.048,140.042-6.048,165.265a83.1,83.1,0,0,0,44.2,0l13.035-121.052a109.8,109.8,0,0,0,17.775-.8L271.1,411.059s20.483,12.111,43.09,3.078l-3.832-165.388Z" transform="translate(101.233 133.227)" fill="#51b982"/>
      <path id="Path_583" data-name="Path 583" d="M185.543,354.292s-1.431,6.233,0,8.556c0,0,17.282,10.157,50.415,1.247,0,0,2.508-7.479,0-9.8s-21.376,2.139-32.317,1.431S189.99,350.907,185.543,354.292Z" transform="translate(99.598 190.224)" fill="#2f8d5b"/>
      <path id="Path_584" data-name="Path 584" d="M290.168,354.292s1.416,6.233,0,8.556c0,0-17.282,10.157-50.43,1.247,0,0-2.493-7.479,0-9.8s21.376,2.139,32.317,1.431S285.706,350.907,290.168,354.292Z" transform="translate(128.551 190.224)" fill="#2f8d5b"/>
      <path id="Path_585" data-name="Path 585" d="M220.031,276.527a51.566,51.566,0,0,1-9.233-.369l-.108-.108V275.9h.369l.154-.308c1.046.339,20.837.339,39.535-.477,5.34-.231,10.08-.508,14.1-.831V275c-4.017.308-8.772.585-14.112.816C240.991,276.25,228.449,276.527,220.031,276.527Z" transform="translate(113.493 147.815)" fill="#747699"/>
      <rect id="Rectangle_40" data-name="Rectangle 40" width="0.708" height="16.174" transform="translate(364.017 423.544) rotate(-54.75)" fill="#747699"/>
      <path id="Path_586" data-name="Path 586" d="M188.863,149.765s-6.294,19.39-2.724,39.335c0,0-8.064,22.776-1.2,44.09,0,0-3.324,20.529,2.432,37.95,0,0-.708,21.868,9.726,33.3,0,0,32.548,19.452,116.342,1.539a48.832,48.832,0,0,0,2.8-11.219A52.831,52.831,0,0,0,314.9,273.34s7.695-19.744.108-35.564c0,0-24.053-28.578-6.848-82.563,0,0,17.482,2.878,19.652,16.928A30.778,30.778,0,0,0,303.051,143.9C278.86,138.392,199.267,140.993,188.863,149.765Z" transform="translate(98.124 75.995)" fill="#494e72"/>
      <path id="Path_587" data-name="Path 587" d="M217.545,159.19s-16.928,95.983,2.478,144.135" transform="translate(113.502 85.791)" fill="none" stroke="#272525" stroke-miterlimit="10" stroke-width="1"/>
      <path id="Path_588" data-name="Path 588" d="M312.943,241.308S238.166,259.452,188.29,240.2" transform="translate(101.422 129.449)" fill="none" stroke="#272525" stroke-miterlimit="10" stroke-width="1"/>
      <path id="Path_589" data-name="Path 589" d="M313.08,227.771s-81.332,14.45-127.53-2.2" transform="translate(99.945 121.565)" fill="none" stroke="#272525" stroke-linecap="round" stroke-linejoin="round" stroke-width="0.5"/>
      <path id="Path_590" data-name="Path 590" d="M314.04,205.507s-95.69,12-130.07-4.617" transform="translate(99.094 108.264)" fill="none" stroke="#272525" stroke-linecap="round" stroke-linejoin="round" stroke-width="0.5"/>
      <path id="Path_591" data-name="Path 591" d="M300.565,175.63s-84.056,8.187-115.835-3.37" transform="translate(99.503 92.835)" fill="none" stroke="#272525" stroke-linecap="round" stroke-linejoin="round" stroke-width="0.5"/>
      <path id="Path_592" data-name="Path 592" d="M273.724,232.272c-8.2-6.787-12.681-16.082-16.143-30.778s-.816-50.507,9.911-53.462c12.865-3.54,19.744,15.8,19.744,15.8" transform="translate(137.993 79.544)" fill="none" stroke="#272525" stroke-linecap="round" stroke-linejoin="round" stroke-width="0.5"/>
      <path id="Path_593" data-name="Path 593" d="M268.532,117.58l-50.784,20.175C221.7,144.5,204.19,155.9,204.19,155.9c1.862.585,1.077,28.886,26.392,27.177,22.668,1.708,36.365-30.271,36.365-30.271a24.887,24.887,0,0,1-1.293-6.248C264.562,134.57,268.532,117.58,268.532,117.58Z" transform="translate(109.991 63.366)" fill="#9a614f"/>
      <path id="Path_594" data-name="Path 594" d="M289.761,57.556s20.545,0,25.392,17.205,2.124,41.92-9.234,51.923S193.7,114.573,193.7,114.573s-10.849,9.234-19.467-.139c-5.833-8.464-2.662-14.22,3.078-16.113A14.635,14.635,0,0,1,166.2,86.842c-1.8-9.7,8.772-12.788,13.958-13.85,2.216-.477,14.327-12.835,23.084-20.006C215.555,42.659,262.646,21.807,289.761,57.556Z" transform="translate(89.408 20.205)" fill="#1e1e1b"/>
      <path id="Path_595" data-name="Path 595" d="M281.183,98.86s12.742-5.309,17.944,3.463,5.694,26.377-14.928,27.5c0,0-5.94,39.52-45.875,41.551S189.74,143.3,187.94,128.915,184,100.568,184,100.568s9.941-1.539,29.163-14.25,41.551-23.3,49.245-22.822C262.3,63.5,266.994,92.242,281.183,98.86Z" transform="translate(99.11 34.211)" fill="#9a614f"/>
      <path id="Path_596" data-name="Path 596" d="M282.744,118.327s-4.832,1.785-4.2-12.665,1.17-19.621-3.493-20.729-8.818,5.432-9.234,16.928-3.878,27.5-16.143,28.332-12.912-11.665-28.609-10.126S205.675,135.255,200.3,132.7s-7.572-12.865-13.6-13.342c.631,10.772,2.324,51.169,44.029,49.076S282.775,142.2,282.744,118.327Z" transform="translate(100.565 45.707)" fill="#1e1e1b"/>
      <path id="Path_597" data-name="Path 597" d="M212.683,116.962a4.617,4.617,0,0,0,2.154-1.17,5.648,5.648,0,0,0,1.462-3.955.508.508,0,0,0-.523-.477.492.492,0,0,0-.462.523,4.725,4.725,0,0,1-1.185,3.216,4.494,4.494,0,0,1-3.586,1.047.477.477,0,0,0-.523.446.508.508,0,0,0,.462.539,7.234,7.234,0,0,0,2.2-.169Z" transform="translate(113.132 60.014)" fill="#9a614f"/>
      <path id="Path_598" data-name="Path 598" d="M194.176,103.085a2.909,2.909,0,1,0,1.539-4.217,3.247,3.247,0,0,0-1.539,4.217Z" transform="translate(104.446 53.193)" fill="#272525"/>
      <path id="Path_599" data-name="Path 599" d="M219.341,99.527a2.909,2.909,0,1,0,1.616-4.217A3.247,3.247,0,0,0,219.341,99.527Z" transform="translate(118.015 51.287)" fill="#272525"/>
      <path id="Path_600" data-name="Path 600" d="M211.621,117.633a.523.523,0,0,0,.354-.339.492.492,0,0,0-.323-.616c-.092,0-8.88-2.832-8.649-6.864a2.447,2.447,0,0,1,.539-1.708c.431-.354,1.339-.215,2.493,0a16.7,16.7,0,0,0,5.555,0,2.293,2.293,0,0,0,1.647-1.247c2.6-4.617-4.278-22.084-4.617-22.822a.49.49,0,1,0-.908.369c1.954,4.909,6.587,18.467,4.617,21.976a1.324,1.324,0,0,1-.97.754,15.7,15.7,0,0,1-5.232,0c-1.4-.2-2.493-.354-3.262.262a3.247,3.247,0,0,0-.893,2.416c-.277,4.786,8.941,7.695,9.341,7.864a.508.508,0,0,0,.308-.046Z" transform="translate(108.792 45.124)" fill="#272525"/>
      <path id="Path_601" data-name="Path 601" d="M251.123,111.36a.445.445,0,0,0,.185-.108.492.492,0,0,0,0-.693c-3.078-3.77-3.755-10.772-1.416-15.866,1.539-3.339,4.032-5.217,7.033-5.278,5.894-.108,6.694,6.771,6.74,7.064a.492.492,0,1,0,.97-.108s-.939-8.064-7.695-7.941c-3.386,0-6.156,2.154-7.895,5.848-2.493,5.448-1.816,12.865,1.539,16.928a.539.539,0,0,0,.539.154Z" transform="translate(133.355 47.656)" fill="#272525"/>
      <path id="Path_602" data-name="Path 602" d="M259.519,98.616l.2-.108a.508.508,0,0,0,0-.708,8.3,8.3,0,0,0-6.156-2.8c-2.216.185-4.186,1.693-5.879,4.463a.494.494,0,1,0,.846.508c1.539-2.478,3.232-3.832,5.109-3.986a7.4,7.4,0,0,1,5.386,2.478A.523.523,0,0,0,259.519,98.616Z" transform="translate(133.393 51.198)" fill="#272525"/>
      <path id="Path_603" data-name="Path 603" d="M243.047,87.35s-8.295-7.233-14.481-8.787-14.727-4.124-16.036.693,1,7.156,4.463,8.218S246.386,92.182,243.047,87.35Z" transform="translate(114.285 41.212)" fill="#1e1e1b"/>
      <path id="Path_604" data-name="Path 604" d="M185.5,101c-.785-1.647-2.124-9.5,2.986-12.665s11.973-7.925,14.42-3.586,1.016,7.218-1.77,9.234a94.935,94.935,0,0,1-15.635,7.079" transform="translate(99.505 44.735)" fill="#1e1e1b"/>
      <path id="Path_605" data-name="Path 605" d="M213.943,139.131a12.681,12.681,0,0,0-10.772,3.078c-5.14,4.447,7.141,26.454,19.1,27.962C222.254,170.11,208.542,151.35,213.943,139.131Z" transform="translate(108.794 74.871)" fill="#3b4263"/>
      <path id="Path_606" data-name="Path 606" d="M215.15,171.469s34.333-9.064,45.044-32.81l-.416-2.247s10.018-.492,12.188,7.094S247.236,175.162,215.15,171.469Z" transform="translate(115.897 73.512)" fill="#3b4263"/>
      <path id="Path_607" data-name="Path 607" d="M186.184,306.168s-2.97-21.991,13.419-25.361,22.653,16.282,22.653,16.282l-3.94,1.062s-6.756-15.789-17.928-13.5-9.418,20.314-9.418,20.314Z" transform="translate(100.173 151.123)" fill="#59966d"/>
      <path id="Path_608" data-name="Path 608" d="M176.51,305.6l68.159-17.19,19.991,77.931-79.27,18.1Z" transform="translate(95.073 155.431)" fill="#51b982"/>
      <path id="Path_609" data-name="Path 609" d="M220.8,288.41l26.762,71.975-6.771,5.956Z" transform="translate(118.942 155.431)" fill="#2f8d5b"/>
      <g id="Group_66" data-name="Group 66" transform="translate(271.583 443.84)" clip-path="url(#clip-path)">
        <rect id="Rectangle_41" data-name="Rectangle 41" width="1.568" height="69.554" transform="matrix(0.541, -0.841, 0.841, 0.541, -13.477, 70.443)" fill="#fff"/>
        <rect id="Rectangle_42" data-name="Rectangle 42" width="1.57" height="69.652" transform="matrix(0.536, -0.844, 0.844, 0.536, -4.417, 55.396)" fill="#fff"/>
        <rect id="Rectangle_43" data-name="Rectangle 43" width="1.57" height="95.736" transform="translate(-7.267 36.812) rotate(-57.45)" fill="#fff"/>
        <rect id="Rectangle_44" data-name="Rectangle 44" width="1.57" height="128.623" transform="matrix(0.55, -0.835, 0.835, 0.55, -13.187, 12.958)" fill="#fff"/>
        <path id="Path_610" data-name="Path 610" d="M273,353.8l-93.536-58.31.831-1.323,93.536,58.294Z" transform="translate(-174.92 -285.306)" fill="#fff"/>
        <rect id="Rectangle_45" data-name="Rectangle 45" width="1.568" height="69.554" transform="matrix(0.541, -0.841, 0.841, 0.541, 27.561, 10.035)" fill="#fff"/>
        <rect id="Rectangle_46" data-name="Rectangle 46" width="1.57" height="69.652" transform="matrix(0.536, -0.844, 0.844, 0.536, 36.221, -4.909)" fill="#fff"/>
      </g>
      <path id="Path_612" data-name="Path 612" d="M85.159,114.923S69,119.539,71.416,144.531s25.854,19.575,27.362,42.09S86.3,215.03,85.174,226.294s4.432,16.3,6.156,31.163-6.156,36.657-6.156,36.657,85.779,12.758,117.789-5.248c0,0,8.064-68.928,20.775-76.531s21.022-25.715,17.1-46.291c-2.678-14.112-27.224-35.872-28.055-52.954s-5.248-49.876-44.413-52.323S97.732,79.158,85.159,114.923Z" transform="translate(38.303 32.645)" fill="#9a614f"/>
      <path id="Path_613" data-name="Path 613" d="M203.732,272.71l5.032,12.742-21.453,7.218L185.48,277Z" transform="translate(99.907 146.969)" fill="#83df7d"/>
      <path id="Path_614" data-name="Path 614" d="M170.31,161.85s24.453,13.281,30.332,41.689,11.25,128.915,11.25,128.915l-12.942,2.77L186.915,275.53Z" transform="translate(91.732 87.225)" fill="#2f8d5b"/>
      <path id="Path_615" data-name="Path 615" d="M173.5,306.749s2.57-22.007,19.237-21.253,17.913,21.391,17.913,21.391h-4.078s-2.632-16.928-14.02-17.528-14.158,17.359-14.158,17.359Z" transform="translate(93.451 153.85)" fill="#ff5656"/>
      <path id="Path_616" data-name="Path 616" d="M167.422,299.27l70.3.246.046,80.455-81.286-2.124Z" transform="translate(84.279 161.283)" fill="#ff9191"/>
      <path id="Path_617" data-name="Path 617" d="M209.27,299.43l8.079,76.346-8.033,4.109Z" transform="translate(112.728 161.369)" fill="#ff5656"/>
      <g id="Group_67" data-name="Group 67" transform="translate(240.759 460.553)" clip-path="url(#clip-path-2)">
        <path id="Path_618" data-name="Path 618" d="M195.281,380.061,147.59,329.292l1.154-1.062,47.676,50.754Z" transform="translate(-161.271 -283.663)" fill="#fff"/>
        <rect id="Rectangle_47" data-name="Rectangle 47" width="1.57" height="69.652" transform="matrix(0.729, -0.685, 0.685, 0.729, -2.816, 35.957)" fill="#fff"/>
        <rect id="Rectangle_48" data-name="Rectangle 48" width="1.57" height="95.736" transform="translate(-0.949 17.177) rotate(-43.1)" fill="#fff"/>
        <rect id="Rectangle_49" data-name="Rectangle 49" width="1.57" height="128.623" transform="translate(-0.786 -7.321) rotate(-42.3)" fill="#fff"/>
        <rect id="Rectangle_50" data-name="Rectangle 50" width="1.57" height="110.218" transform="matrix(0.723, -0.691, 0.691, 0.723, 17.087, -5.62)" fill="#fff"/>
        <rect id="Rectangle_51" data-name="Rectangle 51" width="1.57" height="69.652" transform="matrix(0.729, -0.685, 0.685, 0.729, 40.664, -2.777)" fill="#fff"/>
        <rect id="Rectangle_52" data-name="Rectangle 52" width="1.57" height="69.652" transform="matrix(0.729, -0.685, 0.685, 0.729, 51.543, -12.454)" fill="#fff"/>
      </g>
      <path id="Path_620" data-name="Path 620" d="M185.65,283.842s10.772-12.835,19.791-4.894-2.2,18.606-12,18.128S185.65,283.842,185.65,283.842Z" transform="translate(99.907 148.934)" fill="#2f8d5b"/>
      <path id="Path_621" data-name="Path 621" d="M188.528,369.14s-.246-4.217-19.791-3.37c-18.467.8-19.267,3.263-19.267,3.263s10.772,13.466,21.545,11.742S188.528,369.14,188.528,369.14Z" transform="translate(80.501 197.061)" fill="#634c47"/>
      <path id="Path_622" data-name="Path 622" d="M153.018,371.985s-.246-4.217-19.791-3.355c-18.467.8-19.267,3.247-19.267,3.247s10.772,13.466,21.545,11.742S153.018,371.985,153.018,371.985Z" transform="translate(61.364 198.601)" fill="#634c47"/>
      <path id="Path_623" data-name="Path 623" d="M209.038,351.393c-2.909,36.38-8.156,97.244-8.156,97.244s-8.664,5.74-22.1.154c0,0-6.279-73.283-9.926-96.737s-6.971-48.615-6.971-48.615h-2.016s-.846,57.294-5.048,92.335-7.541,54.062-7.541,54.062a25.238,25.238,0,0,1-23.622-1.539s-10.6-87.811-12.65-108.709c-1.539-15.512-.985-56.34-.616-76.361a361.4,361.4,0,0,1,96.675,9.9C208.868,295.715,210.838,329.156,209.038,351.393Z" transform="translate(59.221 141.754)" fill="#31312d"/>
      <path id="Path_624" data-name="Path 624" d="M206.4,252.882l-1.677,1.693s1.077,9.941,2.2,24.238a361.4,361.4,0,0,0-96.675-9.9c.138-6.941.231-11.373.231-11.373S145.26,250.973,206.4,252.882Z" transform="translate(59.364 136.096)" fill="#1e1e1b"/>
      <path id="Path_625" data-name="Path 625" d="M166.468,404.182s.754,7.941-9.357,7.556-26.746-4.817-33.395-10.942-4.771-10.526-4.771-10.526Z" transform="translate(63.919 210.325)" fill="#634c47"/>
      <path id="Path_626" data-name="Path 626" d="M152.981,370.33s.662,16.836-.215,27.147c0,0,23.838,15.112,13.727,21.052s-41.459-7.387-45.952-16.59A109.986,109.986,0,0,1,114,370.9S137.638,379.056,152.981,370.33Z" transform="translate(61.385 199.579)" fill="#83df7d"/>
      <path id="Path_627" data-name="Path 627" d="M128.969,393.357a60.724,60.724,0,0,0,18.467-4.17l-.292-.646A63.881,63.881,0,0,1,120.12,392.8v.708a73.681,73.681,0,0,0,8.849-.154Z" transform="translate(64.683 209.393)" fill="#634c47"/>
      <path id="Path_628" data-name="Path 628" d="M201.253,401.968s.754,7.941-9.357,7.571-26.039-5.463-32.671-11.588-4.771-10.542-4.771-10.542Z" transform="translate(83.057 208.784)" fill="#634c47"/>
      <path id="Path_629" data-name="Path 629" d="M188.512,367.47s.662,16.851-.215,27.147c0,0,23.084,15.759,13,21.7s-40.751-8.018-45.244-17.251a110.326,110.326,0,0,1-6.587-31.04S173.169,376.211,188.512,367.47Z" transform="translate(80.501 198.038)" fill="#83df7d"/>
      <path id="Path_630" data-name="Path 630" d="M164.479,390.491a59.783,59.783,0,0,0,18.467-4.17l-.292-.631a64.251,64.251,0,0,1-27.023,4.263v.693A67.976,67.976,0,0,0,164.479,390.491Z" transform="translate(83.82 207.857)" fill="#634c47"/>
      <path id="Path_631" data-name="Path 631" d="M162.386,290.048a.355.355,0,0,0-.015-.708l-28.147-.77a.323.323,0,0,0-.354.339.339.339,0,0,0,.339.354l28.131.785Z" transform="translate(72.093 155.516)" fill="#1e1e1b"/>
      <path id="Path_632" data-name="Path 632" d="M160.757,413.2h0a.323.323,0,0,0,.308-.385L148.338,289.268a.339.339,0,0,0-.369-.308h0a.354.354,0,0,0-.308.4l12.727,123.545a.354.354,0,0,0,.369.292Z" transform="translate(79.524 155.726)" fill="#1e1e1b"/>
      <path id="Path_633" data-name="Path 633" d="M120.835,399.477h0a.354.354,0,0,0,.308-.385L114.895,321.7a.323.323,0,0,0-.385-.308h0a.323.323,0,0,0-.308.385l6.248,77.392a.339.339,0,0,0,.385.308Z" transform="translate(61.491 173.202)" fill="#1e1e1b"/>
      <path id="Path_634" data-name="Path 634" d="M178.181,257.854a.347.347,0,0,0-.015-.693c-.292,0-28.686-1.447-48.307,2.462a.346.346,0,1,0,.139.677c19.529-3.878,47.845-2.447,48.137-2.447Z" transform="translate(69.78 138.449)" fill="#1e1e1b"/>
      <path id="Path_635" data-name="Path 635" d="M147.935,298.155a.369.369,0,0,0,.323-.369l-2.016-43.967a.339.339,0,0,0-.354-.339.354.354,0,0,0-.339.369l1.939,43.967a.369.369,0,0,0,.369.339Z" transform="translate(78.388 136.606)" fill="#1e1e1b"/>
      <path id="Path_636" data-name="Path 636" d="M149.33,294.234a12.612,12.612,0,0,0,1.339-.169.354.354,0,0,0,.292-.4.369.369,0,0,0-.415-.292c-1.354.246-5.078.554-6.156-.954s-2.616-23.469-3.463-37.95a.354.354,0,0,0-.369-.339.369.369,0,0,0-.339.369c.215,3.709,2.154,36.288,3.6,38.334C144.9,294.327,147.653,294.358,149.33,294.234Z" transform="translate(75.516 136.956)" fill="#1e1e1b"/>
      <path id="Path_637" data-name="Path 637" d="M141.763,257.466a2.478,2.478,0,1,0,.581-1.828A2.493,2.493,0,0,0,141.763,257.466Z" transform="translate(76.342 137.298)" fill="#272525"/>
      <rect id="Rectangle_53" data-name="Rectangle 53" width="61.788" height="140.042" transform="translate(186.589 256.738)" fill="#e24444"/>
      <path id="Path_638" data-name="Path 638" d="M132.535,209.3l-6.063,34.164,24.992,34.595c.139-43.813-14.527-105.493-14.527-105.493a16.6,16.6,0,0,0-4.232-5.74c-5.6,10.3-15.974,28.132-15.974,28.132Z" transform="translate(62.856 89.908)" fill="#2f8d5b"/>
      <path id="Path_639" data-name="Path 639" d="M146.141,244.634,152.2,210.47l-15.8-14.343S146.772,178.292,152.374,168c-7.294-6.156-19.16-3.078-33.225,3.54-17.267,8.079-17.636,24.977-20.852,50.015s-1.247,84.487-1.247,84.487L80.26,392.648c31.271,24.253,81.855,19.59,81.855,19.59s6.617-81.3,8.818-125.145c.123-2.539.185-5.171.2-7.864Z" transform="translate(43.202 88.742)" fill="#51b982"/>
      <path id="Path_640" data-name="Path 640" d="M70.515,375.014s-.539-3.078-14.7-.8C42.46,376.338,42.06,378.2,42.06,378.2s9,8.895,16.713,6.74S70.515,375.014,70.515,375.014Z" transform="translate(22.615 201.22)" fill="#634c47"/>
      <path id="Path_641" data-name="Path 641" d="M100.6,375.014s-.539-3.078-14.7-.8C72.55,376.338,72.15,378.2,72.15,378.2s9,8.895,16.7,6.74S100.6,375.014,100.6,375.014Z" transform="translate(38.831 201.22)" fill="#634c47"/>
      <path id="Path_642" data-name="Path 642" d="M111.15,322.38l-66.82,8.772v19.36c21.206-7.695,44.059-11.634,66.574-15.128Z" transform="translate(23.838 173.738)" fill="#2f8d5b"/>
      <path id="Path_643" data-name="Path 643" d="M44.36,345.936l.139,59.849H66.305l6.156-48.969,9.234-1.954,9.126,50.923,19.021-2.385,1.093-72.529C88.435,334.3,65.566,338.18,44.36,345.936Z" transform="translate(23.855 178.313)" fill="#51b982"/>
      <path id="Path_644" data-name="Path 644" d="M113.919,393.8s1.031,2.2-5.863,4.925c-.477.2-17.436,4.217-27.931-1.277-.846-.431-7.017-2.847-6.156-6.648Z" transform="translate(39.767 210.611)" fill="#634c47"/>
      <path id="Path_645" data-name="Path 645" d="M100.506,374.11s-2.724,12.558-2.447,20.145c0,0,22.484,4.848,15.62,10s-34.733,2.278-38.7-4.047A165.437,165.437,0,0,0,72.19,377.8S90.072,381.758,100.506,374.11Z" transform="translate(38.853 201.616)" fill="#ff9191"/>
      <path id="Path_646" data-name="Path 646" d="M81.855,392.768a43.721,43.721,0,0,0,13.065-4.617l-.262-.431a47.045,47.045,0,0,1-19.329,5.355v.523A54.97,54.97,0,0,0,81.855,392.768Z" transform="translate(40.545 208.951)" fill="#634c47"/>
      <path id="Path_647" data-name="Path 647" d="M83.529,393.8s1.016,2.2-5.863,4.925c-.477.2-17.436,4.217-27.931-1.277-.846-.431-7.017-2.847-6.156-6.648Z" transform="translate(23.389 210.611)" fill="#634c47"/>
      <path id="Path_648" data-name="Path 648" d="M70.138,374.11s-2.724,12.558-2.508,20.145c0,0,22.5,4.848,15.635,10s-34.687,2.278-38.719-4.047A165.433,165.433,0,0,0,41.76,377.8S59.688,381.758,70.138,374.11Z" transform="translate(22.453 201.616)" fill="#ff9191"/>
      <path id="Path_649" data-name="Path 649" d="M51.465,392.768a43.721,43.721,0,0,0,13.065-4.617l-.262-.431a47.045,47.045,0,0,1-19.329,5.355v.523a54.97,54.97,0,0,0,6.525-.831Z" transform="translate(24.167 208.951)" fill="#634c47"/>
      <path id="Path_650" data-name="Path 650" d="M56.065,352.882a.369.369,0,0,1-.092-.723l31.1-7.833a.354.354,0,0,1,.446.262.369.369,0,0,1-.277.446l-31.086,7.833Z" transform="translate(29.97 185.556)" fill="#4d825f"/>
      <path id="Path_651" data-name="Path 651" d="M74.461,350.485a.432.432,0,0,1-.185,0L68.567,346.9a.369.369,0,0,1,.4-.616l5.694,3.586a.354.354,0,0,1,.108.492A.338.338,0,0,1,74.461,350.485Z" transform="translate(36.828 186.599)" fill="#4d825f"/>
      <path id="Path_652" data-name="Path 652" d="M86.06,267s8.172,4.032,9.634,12.85,1.724,34.733,1.724,34.733L105,302.4l14.681,7.818s-9.911,27.947-19.59,31.84c-6.156,2.478-11.773-5.679-11.773-5.679Z" transform="translate(46.328 143.892)" fill="#da3636"/>
      <path id="Path_653" data-name="Path 653" d="M43,264.359s44.029-17.713,63.1-10.434c11.834,4.509-13.05,30.332-28.116,29.239S43,264.359,43,264.359Z" transform="translate(23.122 135.9)" fill="#2f8d5b"/>
      <path id="Path_654" data-name="Path 654" d="M75.4,216.441s-6.971,4.617-6.864,9.634,3.432,2.878,3.432,2.878-1.185,8.618,2,9.634,2.662-1.123,2.662-1.123,2.247,7.787,5.432,7.587,1.539-4.109,1.539-4.109,3.893,6.879,7.387,5.54,2.878-5.94,2.878-5.94,3.186,2.662,5.648,1.123,1.016-7.479,1.016-7.479,2.986,2.247,3.909-1.139-2.262-6.556-2.262-6.556,3.278-2.878,1.123-6.156a4.955,4.955,0,0,0-4.617-2.047s3.216-2.4-.508-4.617a9.126,9.126,0,0,0-5.125-1.031s.415-3.278-2.355-3.693-5.648,2.062-5.648,2.062a9.526,9.526,0,0,0-7.387.4A4.217,4.217,0,0,0,75.4,216.441Z" transform="translate(36.885 112.581)" fill="#ffc7c7"/>
      <path id="Path_655" data-name="Path 655" d="M91.754,261.646c7.279,1.385-24.884,22.268-37.073,12.6,0,0-.139-2.816-.631-6.525,10.957-.493,22.145-4.709,32.163-9.9a10.48,10.48,0,0,0,5.54,3.816Z" transform="translate(29.077 138.95)" fill="#e2aea1"/>
      <path id="Path_656" data-name="Path 656" d="M80.186,248.8s3.155,8.649,7.695,13.85c-10.018,5.186-21.206,9.4-32.163,9.9-.662-5.063-1.985-11.819-4.617-15.482Z" transform="translate(27.487 134.084)" fill="#d1897d"/>
      <path id="Path_657" data-name="Path 657" d="M72.76,251.712s7.125,21.037,16.513,20.006c5.956-.893,1.293-9.6,1.293-9.6s8.849,6.54,14.7,3.078-5.971-13.281-5.971-13.281,10.772,3.616,14.589-2.154c8.279-12.311-26.162-14.727-26.162-14.727Z" transform="translate(39.16 126.663)" fill="#1e1e1b"/>
      <path id="Path_658" data-name="Path 658" d="M40.391,244.78s-21.114,6.879-20.221,16.266c.831,5.986,9.587,1.416,9.587,1.416s-6.648,8.787-3.2,14.666,13.373-5.848,13.373-5.848-3.74,10.665,1.985,14.62c12.311,8.418,17.344-30.64,17.344-30.64Z" transform="translate(10.803 131.917)" fill="#1e1e1b"/>
      <path id="Path_659" data-name="Path 659" d="M54.761,196.036A42.336,42.336,0,0,1,82.892,185.11c23.884.092,47.214,21.314,38.919,42.659-13.127,33.856-53.431,61.557-60.141,62.5s-28.362,2.4-41.92-18.344-8.064-39.673-2.108-51.323C26.029,204.223,43.511,196.221,54.761,196.036Z" transform="translate(6.051 99.76)" fill="#1e1e1b"/>
      <path id="Path_660" data-name="Path 660" d="M116.045,218s3.078,13.635,8.418,22.714,1.247,31.763-24.392,42.351S52.287,281.531,43.3,269.45c0,0-11.757,5.956-19.775-6.694s5.525-19.637,11.711-16.3c0,0,10.372,1.339,10.511-14.1,0,0,3.54,4.355,7.479,1.247,11.8-9.234,9.449-27.331,9.449-27.331s20.56,12.311,28.27,8.556c5.432-2.616.662-13.2.662-13.2S106.211,217.389,116.045,218Z" transform="translate(11.295 108.663)" fill="#db9a8d"/>
      <path id="Path_661" data-name="Path 661" d="M39.372,249.933h-.2a.508.508,0,0,1-.323-.6,15.2,15.2,0,0,0-4.617-12.742c-2.2-2.031-4.54-2.6-6.587-1.539-4.017,1.97-2.17,7.541-2.093,7.772a.462.462,0,0,1-.246.616.431.431,0,0,1-.554-.308s-2.216-6.648,2.508-8.972c2.37-1.154,5.032-.539,7.51,1.739,3.616,3.355,5.771,9.387,4.909,13.743A.446.446,0,0,1,39.372,249.933Z" transform="translate(13.008 125.887)" fill="#272525"/>
      <path id="Path_662" data-name="Path 662" d="M28.419,243.368a.509.509,0,0,1-.215,0,.523.523,0,0,1-.308-.616,6.679,6.679,0,0,1,3.247-4.417c1.539-.631,3.478-.169,5.617,1.4a.508.508,0,0,1,.154.662.4.4,0,0,1-.6.123c-1.893-1.37-3.509-1.816-4.848-1.277a5.879,5.879,0,0,0-2.755,3.8.431.431,0,0,1-.292.323Z" transform="translate(14.973 128.297)" fill="#272525"/>
      <path id="Path_663" data-name="Path 663" d="M74.912,239.652a.446.446,0,0,1-.369,0,.508.508,0,0,1-.185-.677s2-3.478,1.4-5.632a2,2,0,0,0-.97-1.385c-1.231-.677-2.231.431-3.6,2.2-1.062,1.37-2.262,2.909-3.663,1.985-2.278-1.539-3.355-12.8-3.555-15.066a.508.508,0,0,1,1,0c.431,5.017,1.647,13.358,3.078,14.327.585.385,1.262-.416,2.324-1.785,1.247-1.539,2.8-3.6,4.863-2.447a2.986,2.986,0,0,1,1.447,1.877c.708,2.555-1.4,6.156-1.539,6.387a.462.462,0,0,1-.231.215Z" transform="translate(34.423 118.917)" fill="#272525"/>
      <path id="Path_664" data-name="Path 664" d="M52.748,233.642a2.924,2.924,0,1,0-.184-3.255,2.924,2.924,0,0,0,.184,3.255Z" transform="translate(28.055 123.388)" fill="#272525"/>
      <path id="Path_665" data-name="Path 665" d="M75.785,226.253a2.924,2.924,0,1,0,1.046-4.432A3.247,3.247,0,0,0,75.785,226.253Z" transform="translate(40.536 119.389)" fill="#272525"/>
      <path id="Path_666" data-name="Path 666" d="M48.5,244.043c.431,3.509,5.34,5.786,10.988,5.109s9.88-4.078,9.449-7.571-5.34-5.786-10.988-5.109S48.084,240.55,48.5,244.043Z" transform="translate(26.07 127.376)" fill="#d1897d"/>
      <path id="Path_667" data-name="Path 667" d="M74.454,240.054c1.539,3.078,6.987,3.632,12.065,1.077s7.91-7.187,6.325-10.342-7-3.616-12.065-1.077S72.869,236.9,74.454,240.054Z" transform="translate(39.836 122.916)" fill="#d1897d"/>
      <path id="Path_668" data-name="Path 668" d="M55.008,218.9s-7.818.908-9.988,11.619" transform="translate(24.21 117.97)" fill="none" stroke="#272525" stroke-linecap="round" stroke-linejoin="round" stroke-width="0.75"/>
      <path id="Path_669" data-name="Path 669" d="M73.22,213.479s7.695-1.939,13.466,7.31" transform="translate(39.408 114.957)" fill="none" stroke="#272525" stroke-linecap="round" stroke-linejoin="round" stroke-width="0.75"/>
      <path id="Path_670" data-name="Path 670" d="M75.291,241.4a7.971,7.971,0,0,1-3.77,1.539,6.371,6.371,0,0,1-7.541-5.078A17.59,17.59,0,0,1,75.291,241.4Z" transform="translate(34.428 128.183)" fill="#e24444"/>
      <path id="Path_671" data-name="Path 671" d="M68.141,235.893s3.416,3.447,6.91,1.954c1.8-.77,3.078,2.847.262,5.094a17.59,17.59,0,0,0-11.28-3.555,4.756,4.756,0,0,1,0-1.862C64.725,234.092,66.571,234.815,68.141,235.893Z" transform="translate(34.407 126.647)" fill="#1c1e1e"/>
      <path id="Path_672" data-name="Path 672" d="M28.436,251.317s-11.4-37.95,36.7-56.817c45.521-10.465,50.569,31.425,50.569,31.425h3.709s-4.232-27.27-22.822-34.256-36-.816-44.336,4.109-33.595,15.328-29.07,55.54Z" transform="translate(12.155 101.604)" fill="#ffc7c7"/>
      <path id="Path_673" data-name="Path 673" d="M23.754,233.331s-6.971,4.617-6.864,9.649,3.432,2.862,3.432,2.862-1.185,8.618,2,9.649,2.662-1.139,2.662-1.139,2.262,7.8,5.432,7.587,1.539-4.094,1.539-4.094,3.893,6.864,7.387,5.54,2.878-5.956,2.878-5.956,3.17,2.678,5.632,1.139,1.031-7.495,1.031-7.495,2.97,2.262,3.893-1.123-2.262-6.571-2.262-6.571,3.278-2.862,1.139-6.156a4.986,4.986,0,0,0-4.617-2.062s3.2-2.385-.523-4.617a9.033,9.033,0,0,0-5.125-1.016s.416-3.278-2.355-3.693-5.648,2.047-5.648,2.047a9.449,9.449,0,0,0-7.371.416,4.186,4.186,0,0,0-2.262,5.032Z" transform="translate(9.05 121.683)" fill="#ffc7c7"/>
      <path id="Path_674" data-name="Path 674" d="M115.616,268.169a47.029,47.029,0,0,1,2.632,21.545s5.294,12.019,1.877,24.238c0,0,2.478,11.111-.4,21.083,0,0,1,12.019-4.771,19.021,0,0-18.467,12.865-67.713,8.495a24.346,24.346,0,0,1-1.924-6,27.855,27.855,0,0,1,.2-11.9S40.5,334.266,44.5,325.032c0,0,13.235-17.328,1.785-45.983,0,0-10.1,2.724-10.988,10.665,0,0-.292-12.511,13.65-17.19S109.322,263.968,115.616,268.169Z" transform="translate(18.972 143.554)" fill="#747699"/>
      <path id="Path_675" data-name="Path 675" d="M74.252,354.944l-1.385-.492c9.772-27.316-1.539-74.869-1.677-75.407l1.416-.354C72.729,279.167,84.178,327.212,74.252,354.944Z" transform="translate(38.314 150.192)" fill="#3b4263"/>
      <path id="Path_676" data-name="Path 676" d="M60.78,329.88c-11.049,0-18.806-.862-18.99-.877l.169-1.462c.446,0,44.121,4.909,72.129-8.741l.646,1.323C98.161,328.187,76.246,329.88,60.78,329.88Z" transform="translate(22.47 171.808)" fill="#3b4263"/>
      <path id="Path_677" data-name="Path 677" d="M52.9,321.288c-6.463,0-10.6-.215-10.772-.231a.369.369,0,0,1-.354-.385.415.415,0,0,1,.354-.308c.477,0,47.907,2.478,73.961-9.572a.369.369,0,0,1,.492.169.385.385,0,0,1-.185.492C97.818,320.011,68.5,321.288,52.9,321.288Z" transform="translate(22.459 167.473)" fill="#3b4263"/>
      <path id="Path_678" data-name="Path 678" d="M41.8,308.846h-.323a.369.369,0,1,1,0-.723h.339c4.617,0,56.555-.262,75.038-11.034a.366.366,0,1,1,.369.631C98.585,308.6,46.462,308.846,41.8,308.846Z" transform="translate(22.061 160.079)" fill="#3b4263"/>
      <path id="Path_679" data-name="Path 679" d="M45.584,291.51a.369.369,0,0,1,0-.739c.492,0,49.245-1.108,67.159-9.449a.369.369,0,1,1,.308.662c-18.036,8.4-66.958,9.51-67.451,9.526Z" transform="translate(24.323 151.577)" fill="#3b4263"/>
      <path id="Path_680" data-name="Path 680" d="M44.723,320.987a.369.369,0,0,1-.277-.108.385.385,0,0,1,0-.523c4.324-4.032,6.771-9.234,8.464-17.805,1.539-7.525-1.816-24.977-4.771-28.639-.339-.415-.646-.646-.923-.646h-.108c-5.355,0-9.926,7.233-9.972,7.294a.354.354,0,0,1-.508.123.369.369,0,0,1-.108-.508c.185-.308,4.909-7.772,10.772-7.695a2,2,0,0,1,1.539.908c3.37,4.171,6.356,21.93,4.925,29.24-1.724,8.787-4.232,14.066-8.68,18.205A.385.385,0,0,1,44.723,320.987Z" transform="translate(19.598 146.845)" fill="#3b4263"/>
      <path id="Path_681" data-name="Path 681" d="M44.862,276.4s19.329,1.123,32.317-5.694a158.653,158.653,0,0,0,20.16-11.942c3.078-2.154,9.757-9.234,12.311-1.539,2.37,5.032,1.154,7.695,1.154,7.695a8.418,8.418,0,0,1,.954,10.5c-3.878,6.571-24.884,24.623-52.539,13.065C40.676,280.648,44.862,276.4,44.862,276.4Z" transform="translate(23.907 136.738)" fill="#2f8d5b"/>
      <path id="Path_682" data-name="Path 682" d="M98.3,269.9s2.462,21.76,3.078,32.81-10.326,23.33-7.818,36c0,0-14.281,4.263-23.7-1.539,0,0-3.293-6.617.616-17.251s6.971-23.976,6.294-33.41-2.524-20.16-2.524-20.16Z" transform="translate(36.9 143.542)" fill="#2f8d5b"/>
      <path id="Path_683" data-name="Path 683" d="M114.1,266.423s-19.375,5.833-34.718,2.447A179.183,179.183,0,0,1,55.3,262.36c-3.832-1.293-12.742-6.51-13.035,1.539-.908,5.417,1.154,7.695,1.154,7.695s-3.37,5.325,2.185,10.357c5.94,5.371,32.794,17.621,57.51-.308C119.684,269.5,114.1,266.423,114.1,266.423Z" transform="translate(22.599 139.852)" fill="#51b982"/>
      <path id="Path_684" data-name="Path 684" d="M62.5,295.53S51.559,285.6,56.037,280.54s11.7,11.111,11.7,11.111S65.671,272.815,75.9,272.63s.677,20.668.677,20.668L74,293.39s5.34-17.113,1.908-18.19c-4.617-1.447-5.571,17.605-5.571,17.605l-4.4,1.339s-5.879-12.988-7.987-10.772,6.063,11.2,6.063,11.2Z" transform="translate(29.567 146.926)" fill="#bc2222"/>
      <path id="Path_685" data-name="Path 685" d="M72.018,284.7l3.616,35.857L53.073,331.576,46.61,300.7Z" transform="translate(25.067 153.431)" fill="#fff"/>
      <path id="Path_686" data-name="Path 686" d="M63.12,284.7l3.616,35.857,25.485,2.262V289.286Z" transform="translate(33.965 153.431)" fill="#fff"/>
      <path id="Path_687" data-name="Path 687" d="M98.855,310.472l-23.469,9.911L50.81,319.229l22.5-11.619Z" transform="translate(27.331 165.778)" fill="#fff"/>
      <path id="Path_688" data-name="Path 688" d="M70.44,285.85l3,34.687,5.986.677V287.266Z" transform="translate(37.91 154.051)" fill="#bc2222"/>
      <path id="Path_689" data-name="Path 689" d="M80.318,308.39,57.68,319.3l9.018.431L86.3,309.067Z" transform="translate(31.033 166.198)" fill="#bc2222"/>
      <path id="Path_690" data-name="Path 690" d="M50.06,294.5,58.2,325.108l5.479-2.832L57.231,289.99Z" transform="translate(26.926 156.282)" fill="#bc2222"/>
      <path id="Path_691" data-name="Path 691" d="M55.35,313.936l22.068,2.878,4.447-1.878L60.829,310.72Z" transform="translate(29.777 167.454)" fill="#bc2222"/>
      <path id="Path_692" data-name="Path 692" d="M58.3,310.931s2.57-8.649,7.695-6.694c1.908,1.4-1.062,4.617-1.062,4.617s7.094-11.757,12.727-7.695S78.891,319,64.933,321.9Z" transform="translate(31.367 161.841)" fill="#83df7d"/>
      <path id="Path_693" data-name="Path 693" d="M40.32,284.5s-.139.323-.369.939c-2.447,6.156-16,41.351-13.558,53.17,0,0,7.587,26.362,37.457,13.219,15.389-7.941,18.375-15.866,18.375-15.866l-7.356-12.311L50.831,330.8l-2.4-8.31s5.971-8.987,6.74-16.143,3-28.347-3.863-31.533C47.984,273.231,44.091,274.585,40.32,284.5Z" transform="translate(14.013 147.803)" fill="#da3636"/>
      <path id="Path_694" data-name="Path 694" d="M169.079,201.674l6.063,34.164-24.992,34.61c-.154-43.813,14.527-105.493,14.527-105.493a16.82,16.82,0,0,1,4.232-5.756c5.6,10.311,15.959,28.147,15.959,28.147Z" transform="translate(80.867 85.796)" fill="#2f8d5b"/>
      <path id="Path_695" data-name="Path 695" d="M175.147,237l-6.063-34.149,15.789-14.343s-10.357-17.836-15.959-28.147c7.294-6.156-2.893-3.078,11.173,3.555,17.267,8.079,17.636,24.977,20.852,50s1.247,84.5,1.247,84.5l16.79,86.611c-31.271,24.223-59.818,19.575-59.818,19.575s-6.617-81.3-8.818-125.16c-.138-2.539-.2-5.155-.2-7.849Z" transform="translate(80.862 84.63)" fill="#51b982"/>
      <path id="Path_696" data-name="Path 696" d="M144.5,172.842s-8.079,16.805,0,41.212,8.8,33.5,2.939,61.28,7.31,34.349,7.695,60.449c0,0,23.084.846,34.21-9.357l.508-.492c-.923-3.724-4.217-10.034-3.493-21.76s5.155-19.129,1.539-40.212-8.418-33.487-5.509-44.967c7.525-29.747-2.139-49.122-7.125-59.095Z" transform="translate(75.886 86.174)" fill="#ead9be"/>
      <path id="Path_697" data-name="Path 697" d="M105.387,154.636s-8.726,21.822,10.619,34.3,72.637,3.247,84.01-16.3-.662-39.012-20.437-35.734S105.387,154.636,105.387,154.636Z" transform="translate(55.686 73.587)" fill="#faefda"/>
      <path id="Path_698" data-name="Path 698" d="M169.489,118.91l2.478,32.01s-2.416,8.88-34.549,20.668c-10.988,4.032-7.356-46.291-7.356-46.291Z" transform="translate(69.731 64.083)" fill="#e2aea1"/>
      <path id="Path_699" data-name="Path 699" d="M90.528,141.256S103.3,157.307,105.5,167.094s25.346,27.424,54.355,16.4,37.842-38.473,34.533-54.724c0,0,14.7-8.818,7.341-23.869s-20.56-5.94-20.191,1.8c0,0-13.235,11.773-36-3.463,0,0,1.093,16.513-8.449,21.76s-49.246-8.726-49.246-8.726S94.637,130.96,90.528,141.256Z" transform="translate(47.292 52.171)" fill="#f2c3b6"/>
      <path id="Path_700" data-name="Path 700" d="M160.758,121.286a.631.631,0,0,0,.108-.169.493.493,0,0,0-.308-.585,14.912,14.912,0,0,1-7.772-10.772c-.431-2.893.385-5.094,2.324-6.156,3.817-2.154,7.31,2.4,7.448,2.6a.477.477,0,0,0,.631.123.415.415,0,0,0,0-.616s-4.155-5.448-8.633-2.893c-2.247,1.262-3.2,3.77-2.724,7.017.723,4.771,4.417,9.849,8.4,11.527a.416.416,0,0,0,.523-.077Z" transform="translate(81.709 55.044)" fill="#272525"/>
      <path id="Path_701" data-name="Path 701" d="M161.269,108.809a.369.369,0,0,0,.108-.185.508.508,0,0,0-.308-.585c-.139,0-3.216-1.231-5.386.231-1.4.939-2.062,2.724-1.97,5.309a.539.539,0,0,0,.462.492.385.385,0,0,0,.431-.416c0-2.293.462-3.847,1.631-4.617a5.694,5.694,0,0,1,4.617-.139A.416.416,0,0,0,161.269,108.809Z" transform="translate(82.783 57.964)" fill="#272525"/>
      <path id="Path_702" data-name="Path 702" d="M123.858,144.031a.585.585,0,0,0,.2-.323.492.492,0,0,0-.4-.554s-3.847-.708-5.094-2.508a2.016,2.016,0,0,1-.339-1.539c.262-1.354,1.724-1.4,3.909-1.323,1.693,0,3.616.154,3.8-1.539.308-2.647-7.479-10.588-9.033-12.142a.484.484,0,1,0-.693.677c3.493,3.493,8.957,9.664,8.772,11.357-.092.677-1.123.693-2.8.616-2-.077-4.478-.169-4.909,2.108a2.909,2.909,0,0,0,.492,2.262c1.539,2.139,5.556,2.878,5.725,2.909a.6.6,0,0,0,.369,0Z" transform="translate(62.5 66.801)" fill="#272525"/>
      <path id="Path_703" data-name="Path 703" d="M130.768,141.286a5.555,5.555,0,0,0,2.308-5.833.462.462,0,0,0-.554-.4.492.492,0,0,0-.4.554,4.848,4.848,0,0,1-3.493,5.679.477.477,0,0,0-.354.585.462.462,0,0,0,.585.339A6.494,6.494,0,0,0,130.768,141.286Z" transform="translate(69.07 72.778)" fill="#272525"/>
      <path id="Path_704" data-name="Path 704" d="M97.953,136.642s-2.185-8.71,2.37-13.373,6.771-.831,6.248,1.031S99.939,131.563,97.953,136.642Z" transform="translate(52.455 65.234)" fill="#9a614f"/>
      <path id="Path_705" data-name="Path 705" d="M146.2,114.477s-9.464-7.695-15.928-7.033-4.817,4.832-3.078,5.571S141.047,112.938,146.2,114.477Z" transform="translate(67.656 57.882)" fill="#9a614f"/>
      <path id="Path_706" data-name="Path 706" d="M148.214,124.778c2.355,2.524.97,7.695-3.078,11.434s-9.234,4.832-11.619,2.308-.97-7.695,3.078-11.434S145.874,122.254,148.214,124.778Z" transform="translate(71.277 66.51)" fill="#e2aea1"/>
      <path id="Path_707" data-name="Path 707" d="M126.164,144.695c1.077,3.293-2.339,7.341-7.695,9.08s-10.449.477-11.511-2.8,2.339-7.341,7.695-9.08S125.086,141.417,126.164,144.695Z" transform="translate(57.486 76.048)" fill="#e2aea1"/>
      <path id="Path_708" data-name="Path 708" d="M138.744,126.341a.662.662,0,0,0,.092-.831c-.185-.246-4.294-6.233-8.372-6.633a4.109,4.109,0,0,0-3.386,1.262c-4.617,4.617,1.539,12.311,1.877,12.573a.662.662,0,1,0,1.016-.831s-5.786-7.033-1.985-10.772a2.77,2.77,0,0,1,2.355-.893c3.463.339,7.371,6,7.4,6.063a.646.646,0,0,0,.908.169.154.154,0,0,0,.092-.108Z" transform="translate(67.512 64.055)" fill="#272525"/>
      <path id="Path_709" data-name="Path 709" d="M132.682,123.128a.616.616,0,0,0,.154-.231l1.2-3.216a.662.662,0,0,0-.385-.846.646.646,0,0,0-.831.385l-1.216,3.216a.662.662,0,0,0,.385.846.631.631,0,0,0,.693-.154Z" transform="translate(70.851 64.021)" fill="#272525"/>
      <path id="Path_710" data-name="Path 710" d="M133.839,124.275a.754.754,0,0,0,.154-.231l1.2-3.216a.662.662,0,0,0-1.231-.462l-1.2,3.216a.662.662,0,0,0,1.077.693Z" transform="translate(71.478 64.674)" fill="#272525"/>
      <path id="Path_711" data-name="Path 711" d="M107.936,145.512h.108a.677.677,0,0,0,.246-.908s-3.509-6-2.339-9.234a2.77,2.77,0,0,1,1.816-1.739c5.032-1.847,8.88,6.294,8.926,6.387a.662.662,0,1,0,1.185-.554c-.169-.385-4.4-9.31-10.557-7.079a4.109,4.109,0,0,0-2.6,2.539c-1.385,3.863,2.278,10.126,2.431,10.4a.662.662,0,0,0,.785.185Z" transform="translate(56.215 71.153)" fill="#272525"/>
      <path id="Path_712" data-name="Path 712" d="M107.054,138.835a.692.692,0,0,0,.431-.569.662.662,0,0,0-.6-.708l-3.416-.277a.646.646,0,0,0-.708.6.662.662,0,0,0,.6.708l3.416.277A.569.569,0,0,0,107.054,138.835Z" transform="translate(55.327 73.982)" fill="#272525"/>
      <path id="Path_713" data-name="Path 713" d="M107.615,140.38a.631.631,0,0,0,.431-.554.646.646,0,0,0-.6-.723l-3.416-.292a.662.662,0,0,0-.708.6.646.646,0,0,0,.6.708l3.416.277a.554.554,0,0,0,.277-.015Z" transform="translate(55.628 74.807)" fill="#272525"/>
      <path id="Path_714" data-name="Path 714" d="M169.82,122.316a5.34,5.34,0,0,0,.631-3.078,6.771,6.771,0,0,0-3.216-5.248c-3.678-2.016-8.941.262-9.233.354a.477.477,0,0,0-.231.631.462.462,0,0,0,.616.231s5.063-2.17,8.326-.385a5.817,5.817,0,0,1,2.739,4.524,3.909,3.909,0,0,1-3.078,4.34c-3.232.908-7.495-.539-8.433-2.308a.468.468,0,1,0-.831.431c1.216,2.308,6.156,3.74,9.526,2.785a4.986,4.986,0,0,0,3.186-2.278Z" transform="translate(84.589 60.985)" fill="#f2c757"/>
      <path id="Path_715" data-name="Path 715" d="M95.766,281.52s-6.848,23.93,7.4,30.594,12.311-17.559,12.311-17.559,3.924,4.617,6.864,0-6.771-10.588-6.771-10.588Z" transform="translate(50.672 151.717)" fill="#83df7d"/>
      <path id="Path_716" data-name="Path 716" d="M93.694,192.5s-5.386,93,3.2,136.964c0,0,11.25,6.664,19.667,2.447l13.5-119.451Z" transform="translate(49.543 103.742)" fill="#51b982"/>
      <path id="Path_717" data-name="Path 717" d="M95.19,322.494s11.25,6.664,19.667,2.447l13.5-119.451" transform="translate(51.248 110.743)" fill="none" stroke="#2f8c5a" stroke-miterlimit="10" stroke-width="0.5"/>
      <path id="Path_718" data-name="Path 718" d="M120.811,163.643a61.065,61.065,0,0,1-12.111-1.016l.323-1.431c.323.077,33.179,7.141,68.513-17.836l.846,1.2C155.591,160.673,133.784,163.643,120.811,163.643Z" transform="translate(58.529 77.26)" fill="#ead9be"/>
      <path id="Path_719" data-name="Path 719" d="M288.472,167.574s41.258,115.635,7.094,134.748c-21.129,13.589-40.4,0-40.4,0v-1.231s13.85-12.081,15.512-21.406c0,0,10.572-5.171,7.818-38.7,0,0-7.818-15.943-11.711-25.608s-9.233-54.755,2.031-64.8C277.192,145.583,286.518,161.8,288.472,167.574Z" transform="translate(137.465 80.639)" fill="#51b982"/>
      <path id="Path_720" data-name="Path 720" d="M207.983,206.343,203.92,162.93l76.961-6.51,2.37,44.736Z" transform="translate(109.845 84.298)" fill="#ffc7c7"/>
      <path id="Path_721" data-name="Path 721" d="M231.567,165.042s-25.208-21.176-15.836-28.686,21.191,25.423,21.191,25.423,4.355-30.455,16.266-30.778-.277,22.16-9.141,33.856h-3.893s16.082-21.545,12.758-30.163-14.574,30.163-14.574,30.163l-4.278.369s-9.1-26.916-15.8-26.531,14.8,26.285,14.8,26.285Z" transform="translate(115.085 70.598)" fill="#2f8d5b"/>
      <path id="Path_722" data-name="Path 722" d="M202.442,168.506l-1.062-13.281,84.3-3.355v15.051Z" transform="translate(108.476 81.846)" fill="#da3636"/>
      <path id="Path_723" data-name="Path 723" d="M225.29,153.24l3.878,52.308h8.6l-2.462-52.708Z" transform="translate(121.362 82.369)" fill="#2f8d5b"/>
      <path id="Path_724" data-name="Path 724" d="M194.529,255.446l37.088-2.57c-13.85-11.7-27.039-23.869-40.628-35.826Z" transform="translate(102.877 116.973)" fill="#e24444"/>
      <path id="Path_725" data-name="Path 725" d="M279.538,181.07,230,184.471c15.235,11.85,30.64,23.392,46.414,34.472Z" transform="translate(123.9 97.583)" fill="#e24444"/>
      <path id="Path_726" data-name="Path 726" d="M245.192,183.28l-43.382,2.986c27.27,23.176,56.832,43.921,87.211,63.1l2.585-31.625C275.878,206.672,260.474,195.16,245.192,183.28Z" transform="translate(108.708 98.774)" fill="#fff"/>
      <path id="Path_727" data-name="Path 727" d="M188.15,186.65l1.539,17.236c27.916,20.283,54.755,42.29,82.625,63.4l22.653-1.539,1.416-17.405c-30.378-19.19-59.941-39.935-87.211-63.1Z" transform="translate(101.346 99.835)" fill="#e24444"/>
      <path id="Path_728" data-name="Path 728" d="M191.975,227.661c13.589,11.957,26.839,24.13,40.628,35.826l39.212-2.724c-27.87-21.114-54.709-43.09-82.625-63.4Z" transform="translate(101.907 106.362)" fill="#fff"/>
      <path id="Path_729" data-name="Path 729" d="M208.57,185.083l9.48,85.795,7.618-.339-3.6-86.38Z" transform="translate(112.351 99.248)" fill="#2f8d5b"/>
      <path id="Path_730" data-name="Path 730" d="M190.49,214.257l.923,10.1L296.6,219.3l1.046-12.835Z" transform="translate(102.607 111.271)" fill="#2f8d5b"/>
      <path id="Path_731" data-name="Path 731" d="M264.643,261.058s-32.81-7.171-26.162-26.731,34.58,2.432,34.58,2.432-1.539-9.726,2.939-10.526,4.124,12.188,4.124,12.188S271.06,257.473,264.643,261.058Z" transform="translate(127.992 121.902)" fill="#83df7d"/>
      <path id="Path_732" data-name="Path 732" d="M97.42,167.123s7.418,32.317,25.746,22.745-7.6-33.856-7.6-33.856,9.849,0,9.972-4.478-12.681-2.262-12.681-2.262S99.851,151.1,97.42,167.123Z" transform="translate(52.45 80.15)" fill="#83df7d"/>
    </g>
  </g>
</svg>
