<svg id="Top_ribbon" data-name="Top ribbon" xmlns="http://www.w3.org/2000/svg" xmlns:xlink="http://www.w3.org/1999/xlink" width="1920" height="50" viewBox="0 0 1920 50">
  <defs>
    <clipPath id="clip-path">
      <rect width="1920" height="50" fill="none"/>
    </clipPath>
    <clipPath id="clip-path-2">
      <rect width="1868" height="50" fill="none"/>
    </clipPath>
    <clipPath id="clip-path-3">
      <rect width="1816" height="50" fill="none"/>
    </clipPath>
  </defs>
  <rect id="Rectangle_5" data-name="Rectangle 5" width="1920" height="50" fill="#fff"/>
  <g id="Repeat_Grid_1" data-name="Repeat Grid 1" clip-path="url(#clip-path)">
    <path id="Path_94" data-name="Path 94" d="M26,0H52L26,50H0Z" fill="#ff5656"/>
    <g transform="translate(155)">
      <path id="Path_94-2" data-name="Path 94" d="M26,0H52L26,50H0Z" fill="#ff5656"/>
    </g>
    <g transform="translate(310)">
      <path id="Path_94-3" data-name="Path 94" d="M26,0H52L26,50H0Z" fill="#ff5656"/>
    </g>
    <g transform="translate(465)">
      <path id="Path_94-4" data-name="Path 94" d="M26,0H52L26,50H0Z" fill="#ff5656"/>
    </g>
    <g transform="translate(620)">
      <path id="Path_94-5" data-name="Path 94" d="M26,0H52L26,50H0Z" fill="#ff5656"/>
    </g>
    <g transform="translate(775)">
      <path id="Path_94-6" data-name="Path 94" d="M26,0H52L26,50H0Z" fill="#ff5656"/>
    </g>
    <g transform="translate(930)">
      <path id="Path_94-7" data-name="Path 94" d="M26,0H52L26,50H0Z" fill="#ff5656"/>
    </g>
    <g transform="translate(1085)">
      <path id="Path_94-8" data-name="Path 94" d="M26,0H52L26,50H0Z" fill="#ff5656"/>
    </g>
    <g transform="translate(1240)">
      <path id="Path_94-9" data-name="Path 94" d="M26,0H52L26,50H0Z" fill="#ff5656"/>
    </g>
    <g transform="translate(1395)">
      <path id="Path_94-10" data-name="Path 94" d="M26,0H52L26,50H0Z" fill="#ff5656"/>
    </g>
    <g transform="translate(1550)">
      <path id="Path_94-11" data-name="Path 94" d="M26,0H52L26,50H0Z" fill="#ff5656"/>
    </g>
    <g transform="translate(1705)">
      <path id="Path_94-12" data-name="Path 94" d="M26,0H52L26,50H0Z" fill="#ff5656"/>
    </g>
    <g transform="translate(1860)">
      <path id="Path_94-13" data-name="Path 94" d="M26,0H52L26,50H0Z" fill="#ff5656"/>
    </g>
  </g>
  <g id="Repeat_Grid_2" data-name="Repeat Grid 2" transform="translate(52)" clip-path="url(#clip-path-2)">
    <path id="Path_94-14" data-name="Path 94" d="M26,0H52L26,50H0Z" fill="#83df7d"/>
    <g transform="translate(155)">
      <path id="Path_94-15" data-name="Path 94" d="M26,0H52L26,50H0Z" fill="#83df7d"/>
    </g>
    <g transform="translate(310)">
      <path id="Path_94-16" data-name="Path 94" d="M26,0H52L26,50H0Z" fill="#83df7d"/>
    </g>
    <g transform="translate(465)">
      <path id="Path_94-17" data-name="Path 94" d="M26,0H52L26,50H0Z" fill="#83df7d"/>
    </g>
    <g transform="translate(620)">
      <path id="Path_94-18" data-name="Path 94" d="M26,0H52L26,50H0Z" fill="#83df7d"/>
    </g>
    <g transform="translate(775)">
      <path id="Path_94-19" data-name="Path 94" d="M26,0H52L26,50H0Z" fill="#83df7d"/>
    </g>
    <g transform="translate(930)">
      <path id="Path_94-20" data-name="Path 94" d="M26,0H52L26,50H0Z" fill="#83df7d"/>
    </g>
    <g transform="translate(1085)">
      <path id="Path_94-21" data-name="Path 94" d="M26,0H52L26,50H0Z" fill="#83df7d"/>
    </g>
    <g transform="translate(1240)">
      <path id="Path_94-22" data-name="Path 94" d="M26,0H52L26,50H0Z" fill="#83df7d"/>
    </g>
    <g transform="translate(1395)">
      <path id="Path_94-23" data-name="Path 94" d="M26,0H52L26,50H0Z" fill="#83df7d"/>
    </g>
    <g transform="translate(1550)">
      <path id="Path_94-24" data-name="Path 94" d="M26,0H52L26,50H0Z" fill="#83df7d"/>
    </g>
    <g transform="translate(1705)">
      <path id="Path_94-25" data-name="Path 94" d="M26,0H52L26,50H0Z" fill="#83df7d"/>
    </g>
    <g transform="translate(1860)">
      <path id="Path_94-26" data-name="Path 94" d="M26,0H52L26,50H0Z" fill="#83df7d"/>
    </g>
  </g>
  <g id="Repeat_Grid_3" data-name="Repeat Grid 3" transform="translate(104)" clip-path="url(#clip-path-3)">
    <path id="Path_94-27" data-name="Path 94" d="M26,0H52L26,50H0Z" fill="#248451"/>
    <g transform="translate(155)">
      <path id="Path_94-28" data-name="Path 94" d="M26,0H52L26,50H0Z" fill="#248451"/>
    </g>
    <g transform="translate(310)">
      <path id="Path_94-29" data-name="Path 94" d="M26,0H52L26,50H0Z" fill="#248451"/>
    </g>
    <g transform="translate(465)">
      <path id="Path_94-30" data-name="Path 94" d="M26,0H52L26,50H0Z" fill="#248451"/>
    </g>
    <g transform="translate(620)">
      <path id="Path_94-31" data-name="Path 94" d="M26,0H52L26,50H0Z" fill="#248451"/>
    </g>
    <g transform="translate(775)">
      <path id="Path_94-32" data-name="Path 94" d="M26,0H52L26,50H0Z" fill="#248451"/>
    </g>
    <g transform="translate(930)">
      <path id="Path_94-33" data-name="Path 94" d="M26,0H52L26,50H0Z" fill="#248451"/>
    </g>
    <g transform="translate(1085)">
      <path id="Path_94-34" data-name="Path 94" d="M26,0H52L26,50H0Z" fill="#248451"/>
    </g>
    <g transform="translate(1240)">
      <path id="Path_94-35" data-name="Path 94" d="M26,0H52L26,50H0Z" fill="#248451"/>
    </g>
    <g transform="translate(1395)">
      <path id="Path_94-36" data-name="Path 94" d="M26,0H52L26,50H0Z" fill="#248451"/>
    </g>
    <g transform="translate(1550)">
      <path id="Path_94-37" data-name="Path 94" d="M26,0H52L26,50H0Z" fill="#248451"/>
    </g>
    <g transform="translate(1705)">
      <path id="Path_94-38" data-name="Path 94" d="M26,0H52L26,50H0Z" fill="#248451"/>
    </g>
  </g>
</svg>
