<svg xmlns="http://www.w3.org/2000/svg" width="1126.266" height="549.956" viewBox="0 0 1126.266 549.956">
  <g id="Ilsutratie" transform="translate(-795.19 -120.793)">
    <path id="Path_549" data-name="Path 549" d="M1487.885,253.772c51.19-35.564,106.039-70.006,172.956-79.786s94.714,40.665,94.714,40.665v83.9s-55.207-20.59-125.6-21.62-173.876,39.306-173.876,39.306S1436.695,289.336,1487.885,253.772Z" transform="translate(0 61)" fill="#fee"/>
    <path id="Path_512" data-name="Path 512" d="M309.268-11.334c82.016-7.649,87.167-9.528,143.371-4.123s53,9.217,90.038,24.843c28.959,12.219,55.115,23.119,89.412,62.4s75.485,115.68,72.668,135.721c-4.438,31.57-197.9-43.345-264.268-26-49.508,12.937-7.588,3.156-33.036,11.408-8.279,2.684-63.2,16.047-81.923,24.146-73.728,31.885-151.477,100.3-179.951,91.987-52.224-15.244-117.128-17.9-173.284-52.27-27.179-16.637-34.182-23.88-42.147-34.315-8.129-10.645-16.389-24.69-19.595-50.518C-95.662,121.89-20.547,64.3,55.655,45.422,65.832,42.9,190.361,10.516,309.268-11.334Z" transform="translate(885 254)" fill="#e7f1e6"/>
    <path id="Path_543" data-name="Path 543" d="M1261.488,451.3c1.966-41.3,139.479-13,230.076-21.631,68.257-6.5,139.047-46.132,186.932-55.663,111.1-22.114,119.091-24.053,179.67-13.517s62.647,55.659,62.647,55.659,1.448,103.321,0,106.313-22.149,95.625-161.984,83.259S1271.32,550.61,1261.488,451.3Z" fill="#ffbaba"/>
    <path id="Path_541" data-name="Path 541" d="M63.5,6.632c35.07,0,75.394-17.961,75.394,5.234S98.57,90.632,63.5,90.632,0,71.828,0,48.632,28.43,6.632,63.5,6.632Z" transform="translate(1322.691 211.424) rotate(-180)" fill="#e7f1e6"/>
    <path id="Path_546" data-name="Path 546" d="M0,0H64.547L111,46H0Z" transform="translate(1787 182)" fill="#ff9191"/>
    <path id="Path_542" data-name="Path 542" d="M43.1,14.469c23.8,0,47.218-19.875,60.216-13.037s-2.769,32.057-8.226,40.389C85.211,56.909,58.6,70.547,43.1,70.547,19.3,70.547,0,57.994,0,42.508S19.3,14.469,43.1,14.469Z" transform="translate(1656.842 207.781) rotate(174)" fill="#fee"/>
    <path id="Path_545" data-name="Path 545" d="M0-7.677,49.24-52.636,97-7.677V133.257H0Z" transform="translate(1738 234.743)" fill="#ffbaba"/>
    <g id="brad" transform="translate(492.459 -65.892)">
      <path id="Polygon_5" data-name="Polygon 5" d="M30,0,60,104H0Z" transform="translate(1258.541 299.892)" fill="#51b982"/>
      <line id="Line_2" data-name="Line 2" y2="92.501" transform="translate(1288.27 335.89)" fill="none" stroke="#2f8d5b" stroke-linecap="round" stroke-width="3"/>
      <line id="Line_3" data-name="Line 3" x2="11.84" y2="11.84" transform="translate(1275.69 379.551)" fill="none" stroke="#2f8d5b" stroke-linecap="round" stroke-width="3"/>
      <line id="Line_5" data-name="Line 5" x1="11.84" y2="11.84" transform="translate(1289.01 389.171)" fill="none" stroke="#2f8d5b" stroke-linecap="round" stroke-width="3"/>
      <line id="Line_6" data-name="Line 6" x1="6.66" y2="7.4" transform="translate(1288.27 355.871)" fill="none" stroke="#2f8d5b" stroke-linecap="round" stroke-width="3"/>
      <line id="Line_7" data-name="Line 7" x2="4.44" y2="5.18" transform="translate(1283.09 346.251)" fill="none" stroke="#2f8d5b" stroke-linecap="round" stroke-width="3"/>
    </g>
    <g id="brad-2" data-name="brad" transform="translate(111.459 15.108)">
      <path id="Polygon_5-2" data-name="Polygon 5" d="M30,0,60,104H0Z" transform="translate(1258.541 299.892)" fill="#51b982"/>
      <line id="Line_2-2" data-name="Line 2" y2="92.501" transform="translate(1288.27 335.89)" fill="none" stroke="#2f8d5b" stroke-linecap="round" stroke-width="3"/>
      <line id="Line_3-2" data-name="Line 3" x2="11.84" y2="11.84" transform="translate(1275.69 379.551)" fill="none" stroke="#2f8d5b" stroke-linecap="round" stroke-width="3"/>
      <line id="Line_5-2" data-name="Line 5" x1="11.84" y2="11.84" transform="translate(1289.01 389.171)" fill="none" stroke="#2f8d5b" stroke-linecap="round" stroke-width="3"/>
      <line id="Line_6-2" data-name="Line 6" x1="6.66" y2="7.4" transform="translate(1288.27 355.871)" fill="none" stroke="#2f8d5b" stroke-linecap="round" stroke-width="3"/>
      <line id="Line_7-2" data-name="Line 7" x2="4.44" y2="5.18" transform="translate(1283.09 346.251)" fill="none" stroke="#2f8d5b" stroke-linecap="round" stroke-width="3"/>
    </g>
    <g id="brad-3" data-name="brad" transform="translate(25)">
      <path id="Polygon_5-3" data-name="Polygon 5" d="M35.5,0,71,162H0Z" transform="translate(1262 300)" fill="#51b982"/>
      <line id="Line_2-3" data-name="Line 2" y2="125" transform="translate(1297.5 348.5)" fill="none" stroke="#2f8d5b" stroke-linecap="round" stroke-width="3"/>
      <line id="Line_3-3" data-name="Line 3" x2="16" y2="16" transform="translate(1280.5 407.5)" fill="none" stroke="#2f8d5b" stroke-linecap="round" stroke-width="3"/>
      <line id="Line_5-3" data-name="Line 5" x1="16" y2="16" transform="translate(1298.5 420.5)" fill="none" stroke="#2f8d5b" stroke-linecap="round" stroke-width="3"/>
      <line id="Line_6-3" data-name="Line 6" x1="9" y2="10" transform="translate(1297.5 375.5)" fill="none" stroke="#2f8d5b" stroke-linecap="round" stroke-width="3"/>
      <line id="Line_7-3" data-name="Line 7" x2="6" y2="7" transform="translate(1290.5 362.5)" fill="none" stroke="#2f8d5b" stroke-linecap="round" stroke-width="3"/>
      <line id="Line_4" data-name="Line 4" x2="16" y2="16" transform="translate(1280.5 432.5)" fill="none" stroke="#2f8d5b" stroke-linecap="round" stroke-width="3"/>
    </g>
    <g id="brad-4" data-name="brad" transform="translate(434.599 -1.467)">
      <path id="Polygon_5-4" data-name="Polygon 5" d="M22.5,0,45,78H0Z" transform="translate(1258.401 299.467)" fill="#51b982"/>
      <line id="Line_2-4" data-name="Line 2" y2="69.161" transform="translate(1280.769 326.807)" fill="none" stroke="#2f8d5b" stroke-linecap="round" stroke-width="3"/>
      <line id="Line_3-4" data-name="Line 3" x2="8.853" y2="8.853" transform="translate(1271.363 359.451)" fill="none" stroke="#2f8d5b" stroke-linecap="round" stroke-width="3"/>
      <line id="Line_5-4" data-name="Line 5" x1="8.853" y2="8.853" transform="translate(1281.322 366.643)" fill="none" stroke="#2f8d5b" stroke-linecap="round" stroke-width="3"/>
      <line id="Line_6-4" data-name="Line 6" x1="4.98" y2="5.533" transform="translate(1280.769 341.746)" fill="none" stroke="#2f8d5b" stroke-linecap="round" stroke-width="3"/>
      <line id="Line_7-4" data-name="Line 7" x2="3.32" y2="3.873" transform="translate(1276.896 334.553)" fill="none" stroke="#2f8d5b" stroke-linecap="round" stroke-width="3"/>
    </g>
    <g id="brad-5" data-name="brad" transform="translate(399.823 -3.967)">
      <path id="Polygon_5-5" data-name="Polygon 5" d="M19,0,38,61H0Z" transform="translate(1258.177 299.967)" fill="#ffbaba"/>
      <line id="Line_2-5" data-name="Line 2" y2="69.161" transform="translate(1277.178 310.307)" fill="none" stroke="#ffbaba" stroke-linecap="round" stroke-width="3"/>
      <line id="Line_3-5" data-name="Line 3" x2="8.853" y2="8.853" transform="translate(1268.773 348.159)" fill="none" stroke="#ffbaba" stroke-linecap="round" stroke-width="3"/>
      <line id="Line_5-5" data-name="Line 5" x1="8.853" y2="8.853" transform="translate(1276.741 353.997)" fill="none" stroke="#ffbaba" stroke-linecap="round" stroke-width="3"/>
      <line id="Line_6-5" data-name="Line 6" x1="4.98" y2="5.533" transform="translate(1276.731 334.077)" fill="none" stroke="#ffbaba" stroke-linecap="round" stroke-width="3"/>
      <line id="Line_7-5" data-name="Line 7" x2="3.32" y2="3.873" transform="translate(1273.69 328.303)" fill="none" stroke="#ffbaba" stroke-linecap="round" stroke-width="3"/>
    </g>
    <g id="brad-6" data-name="brad" transform="translate(416.459 -159.018)">
      <path id="Polygon_5-6" data-name="Polygon 5" d="M21,0,42,94H0Z" transform="translate(1258.541 300.018)" fill="#ff9191"/>
      <line id="Line_2-6" data-name="Line 2" y2="103.024" transform="translate(1279.36 311.494)" fill="none" stroke="#ff9191" stroke-linecap="round" stroke-width="3"/>
      <line id="Line_3-6" data-name="Line 3" x2="9.869" y2="9.869" transform="translate(1269.989 371.361)" fill="none" stroke="#ff9191" stroke-linecap="round" stroke-width="3"/>
      <line id="Line_5-6" data-name="Line 5" x1="9.869" y2="9.869" transform="translate(1278.873 380.016)" fill="none" stroke="#ff9191" stroke-linecap="round" stroke-width="3"/>
      <line id="Line_6-6" data-name="Line 6" x1="5.551" y2="6.168" transform="translate(1278.862 349.926)" fill="none" stroke="#ff9191" stroke-linecap="round" stroke-width="3"/>
      <line id="Line_7-6" data-name="Line 7" x2="3.701" y2="4.318" transform="translate(1275.472 341.244)" fill="none" stroke="#ff9191" stroke-linecap="round" stroke-width="3"/>
    </g>
    <g id="brad-7" data-name="brad" transform="translate(340.142 -85.655)">
      <path id="Polygon_5-7" data-name="Polygon 5" d="M15.5,0,31,50H0Z" transform="translate(1257.858 299.655)" fill="#ffbaba"/>
      <line id="Line_2-7" data-name="Line 2" y2="55.839" transform="translate(1273.518 308.315)" fill="none" stroke="#ffbaba" stroke-linecap="round" stroke-width="3"/>
      <line id="Line_3-7" data-name="Line 3" x2="7.147" y2="7.147" transform="translate(1266.732 338.876)" fill="none" stroke="#ffbaba" stroke-linecap="round" stroke-width="3"/>
      <line id="Line_5-7" data-name="Line 5" x1="7.147" y2="7.147" transform="translate(1273.166 343.59)" fill="none" stroke="#ffbaba" stroke-linecap="round" stroke-width="3"/>
      <line id="Line_6-7" data-name="Line 6" x1="4.02" y2="4.467" transform="translate(1273.158 327.507)" fill="none" stroke="#ffbaba" stroke-linecap="round" stroke-width="3"/>
      <line id="Line_7-7" data-name="Line 7" x2="2.68" y2="3.127" transform="translate(1270.702 322.845)" fill="none" stroke="#ffbaba" stroke-linecap="round" stroke-width="3"/>
    </g>
    <g id="brad-8" data-name="brad" transform="translate(448.39 -94.655)">
      <path id="Polygon_5-8" data-name="Polygon 5" d="M12.5,0,25,40H0Z" transform="translate(1257.61 299.655)" fill="#ffbaba"/>
      <line id="Line_2-8" data-name="Line 2" y2="44.585" transform="translate(1270.362 306.57)" fill="none" stroke="#ffbaba" stroke-linecap="round" stroke-width="3"/>
      <line id="Line_3-8" data-name="Line 3" x2="5.707" y2="5.707" transform="translate(1264.943 330.971)" fill="none" stroke="#ffbaba" stroke-linecap="round" stroke-width="3"/>
      <line id="Line_5-8" data-name="Line 5" x1="5.707" y2="5.707" transform="translate(1270.08 334.735)" fill="none" stroke="#ffbaba" stroke-linecap="round" stroke-width="3"/>
      <line id="Line_6-8" data-name="Line 6" x1="3.21" y2="3.567" transform="translate(1270.074 321.893)" fill="none" stroke="#ffbaba" stroke-linecap="round" stroke-width="3"/>
      <line id="Line_7-8" data-name="Line 7" x2="2.14" y2="2.497" transform="translate(1268.114 318.171)" fill="none" stroke="#ffbaba" stroke-linecap="round" stroke-width="3"/>
    </g>
    <g id="brad-9" data-name="brad" transform="translate(368.39 -99.655)">
      <path id="Polygon_5-9" data-name="Polygon 5" d="M12.5,0,25,40H0Z" transform="translate(1257.61 299.655)" fill="#ff9191"/>
      <line id="Line_2-9" data-name="Line 2" y2="44.585" transform="translate(1270.362 306.57)" fill="none" stroke="#ff9191" stroke-linecap="round" stroke-width="3"/>
      <line id="Line_3-9" data-name="Line 3" x2="5.707" y2="5.707" transform="translate(1264.943 330.971)" fill="none" stroke="#ff9191" stroke-linecap="round" stroke-width="3"/>
      <line id="Line_5-9" data-name="Line 5" x1="5.707" y2="5.707" transform="translate(1270.08 334.735)" fill="none" stroke="#ff9191" stroke-linecap="round" stroke-width="3"/>
      <line id="Line_6-9" data-name="Line 6" x1="3.21" y2="3.567" transform="translate(1270.074 321.893)" fill="none" stroke="#ff9191" stroke-linecap="round" stroke-width="3"/>
      <line id="Line_7-9" data-name="Line 7" x2="2.14" y2="2.497" transform="translate(1268.114 318.171)" fill="none" stroke="#ff9191" stroke-linecap="round" stroke-width="3"/>
    </g>
    <g id="brad-10" data-name="brad" transform="translate(258.142 -65.655)">
      <path id="Polygon_5-10" data-name="Polygon 5" d="M15.5,0,31,50H0Z" transform="translate(1257.858 299.655)" fill="#ffbaba"/>
      <line id="Line_2-10" data-name="Line 2" y2="55.839" transform="translate(1273.518 308.315)" fill="none" stroke="#ffbaba" stroke-linecap="round" stroke-width="3"/>
      <line id="Line_3-10" data-name="Line 3" x2="7.147" y2="7.147" transform="translate(1266.732 338.876)" fill="none" stroke="#ffbaba" stroke-linecap="round" stroke-width="3"/>
      <line id="Line_5-10" data-name="Line 5" x1="7.147" y2="7.147" transform="translate(1273.166 343.59)" fill="none" stroke="#ffbaba" stroke-linecap="round" stroke-width="3"/>
      <line id="Line_6-10" data-name="Line 6" x1="4.02" y2="4.467" transform="translate(1273.158 327.507)" fill="none" stroke="#ffbaba" stroke-linecap="round" stroke-width="3"/>
      <line id="Line_7-10" data-name="Line 7" x2="2.68" y2="3.127" transform="translate(1270.702 322.845)" fill="none" stroke="#ffbaba" stroke-linecap="round" stroke-width="3"/>
    </g>
    <g id="brad-11" data-name="brad" transform="translate(220.142 -60.655)">
      <path id="Polygon_5-11" data-name="Polygon 5" d="M15.5,0,31,50H0Z" transform="translate(1257.858 299.655)" fill="#e7f1e6"/>
      <line id="Line_2-11" data-name="Line 2" y2="55.839" transform="translate(1273.518 308.315)" fill="none" stroke="#e7f1e6" stroke-linecap="round" stroke-width="3"/>
      <line id="Line_3-11" data-name="Line 3" x2="7.147" y2="7.147" transform="translate(1266.732 338.876)" fill="none" stroke="#e7f1e6" stroke-linecap="round" stroke-width="3"/>
      <line id="Line_5-11" data-name="Line 5" x1="7.147" y2="7.147" transform="translate(1273.166 343.59)" fill="none" stroke="#e7f1e6" stroke-linecap="round" stroke-width="3"/>
      <line id="Line_6-11" data-name="Line 6" x1="4.02" y2="4.467" transform="translate(1273.158 327.507)" fill="none" stroke="#e7f1e6" stroke-linecap="round" stroke-width="3"/>
      <line id="Line_7-11" data-name="Line 7" x2="2.68" y2="3.127" transform="translate(1270.702 322.845)" fill="none" stroke="#e7f1e6" stroke-linecap="round" stroke-width="3"/>
    </g>
    <g id="brad-12" data-name="brad" transform="translate(65.142 -116.655)">
      <path id="Polygon_5-12" data-name="Polygon 5" d="M15.5,0,31,50H0Z" transform="translate(1257.858 299.655)" fill="#51b982"/>
      <line id="Line_2-12" data-name="Line 2" y2="55.839" transform="translate(1273.518 308.315)" fill="none" stroke="#51b982" stroke-linecap="round" stroke-width="3"/>
      <line id="Line_3-12" data-name="Line 3" x2="7.147" y2="7.147" transform="translate(1266.732 338.876)" fill="none" stroke="#51b982" stroke-linecap="round" stroke-width="3"/>
      <line id="Line_5-12" data-name="Line 5" x1="7.147" y2="7.147" transform="translate(1273.166 343.59)" fill="none" stroke="#51b982" stroke-linecap="round" stroke-width="3"/>
      <line id="Line_6-12" data-name="Line 6" x1="4.02" y2="4.467" transform="translate(1273.158 327.507)" fill="none" stroke="#51b982" stroke-linecap="round" stroke-width="3"/>
      <line id="Line_7-12" data-name="Line 7" x2="2.68" y2="3.127" transform="translate(1270.702 322.845)" fill="none" stroke="#51b982" stroke-linecap="round" stroke-width="3"/>
    </g>
    <g id="brad-13" data-name="brad" transform="translate(29.142 -95.171)">
      <path id="Polygon_5-13" data-name="Polygon 5" d="M12.5,0,25,41H0Z" transform="translate(1257.858 299.171)" fill="#51b982"/>
      <line id="Line_2-13" data-name="Line 2" y2="45.032" transform="translate(1270.487 306.639)" fill="none" stroke="#51b982" stroke-linecap="round" stroke-width="3"/>
      <line id="Line_3-13" data-name="Line 3" x2="5.764" y2="5.764" transform="translate(1265.014 331.285)" fill="none" stroke="#51b982" stroke-linecap="round" stroke-width="3"/>
      <line id="Line_5-13" data-name="Line 5" x1="5.764" y2="5.764" transform="translate(1270.203 335.087)" fill="none" stroke="#51b982" stroke-linecap="round" stroke-width="3"/>
      <line id="Line_6-13" data-name="Line 6" x1="3.242" y2="3.603" transform="translate(1270.196 322.116)" fill="none" stroke="#51b982" stroke-linecap="round" stroke-width="3"/>
      <line id="Line_7-13" data-name="Line 7" x2="2.162" y2="2.522" transform="translate(1268.216 318.357)" fill="none" stroke="#51b982" stroke-linecap="round" stroke-width="3"/>
    </g>
    <g id="brad-14" data-name="brad" transform="translate(263 -52.282)">
      <path id="Polygon_5-14" data-name="Polygon 5" d="M50,0l50,227H0Z" transform="translate(1262 300.282)" fill="#51b982"/>
      <line id="Line_2-14" data-name="Line 2" x1="1.378" y2="158.627" transform="translate(1310.5 368.156)" fill="none" stroke="#2f8d5b" stroke-linecap="round" stroke-width="3"/>
      <line id="Line_3-14" data-name="Line 3" x2="22.48" y2="22.48" transform="translate(1287.993 451.052)" fill="none" stroke="#2f8d5b" stroke-linecap="round" stroke-width="3"/>
      <line id="Line_5-14" data-name="Line 5" x1="22.48" y2="22.48" transform="translate(1313.283 469.317)" fill="none" stroke="#2f8d5b" stroke-linecap="round" stroke-width="3"/>
      <line id="Line_6-14" data-name="Line 6" x1="12.645" y2="14.05" transform="translate(1311.878 406.091)" fill="none" stroke="#2f8d5b" stroke-linecap="round" stroke-width="3"/>
      <line id="Line_7-14" data-name="Line 7" x2="8.43" y2="9.835" transform="translate(1302.043 387.826)" fill="none" stroke="#2f8d5b" stroke-linecap="round" stroke-width="3"/>
      <line id="Line_4-2" data-name="Line 4" x2="22.48" y2="22.48" transform="translate(1287.993 486.177)" fill="none" stroke="#2f8d5b" stroke-linecap="round" stroke-width="3"/>
    </g>
    <g id="Group_33" data-name="Group 33">
      <rect id="Rectangle_34" data-name="Rectangle 34" width="42" height="35" transform="translate(1848 248)" fill="#ff9191"/>
      <rect id="Rectangle_35" data-name="Rectangle 35" width="42" height="35" transform="translate(1848 296)" fill="#ff9191"/>
      <line id="Line_8" data-name="Line 8" y2="37" transform="translate(1859.5 247.5)" fill="none" stroke="#fff" stroke-width="3"/>
      <line id="Line_9" data-name="Line 9" y2="46" transform="translate(1892 266) rotate(90)" fill="none" stroke="#fff" stroke-width="3"/>
      <line id="Line_10" data-name="Line 10" y2="37" transform="translate(1861.5 295.5)" fill="none" stroke="#fff" stroke-width="3"/>
      <line id="Line_11" data-name="Line 11" y2="46" transform="translate(1894 314) rotate(90)" fill="none" stroke="#fff" stroke-width="3"/>
      <path id="Path_547" data-name="Path 547" d="M0,0H46.392L79.778,33.061H0Z" transform="translate(1400.222 151.317)" fill="#51b982"/>
      <path id="Path_548" data-name="Path 548" d="M0-20.323,35.39-52.636,69.716-20.323V80.97H0Z" transform="translate(1365.004 204.03)" fill="#e7f1e6"/>
      <rect id="Rectangle_36" data-name="Rectangle 36" width="30" height="25" transform="translate(1444 199)" fill="#51b982"/>
      <rect id="Rectangle_37" data-name="Rectangle 37" width="30" height="24" transform="translate(1444 234)" fill="#51b982"/>
      <line id="Line_12" data-name="Line 12" y2="26.593" transform="translate(1452.329 198.394)" fill="none" stroke="#fff" stroke-width="3"/>
      <line id="Line_13" data-name="Line 13" y2="33.061" transform="translate(1475.688 211.69) rotate(90)" fill="none" stroke="#fff" stroke-width="3"/>
      <line id="Line_14" data-name="Line 14" y2="26.593" transform="translate(1453.767 232.892)" fill="none" stroke="#fff" stroke-width="3"/>
      <line id="Line_15" data-name="Line 15" y2="33.061" transform="translate(1477.125 246.189) rotate(90)" fill="none" stroke="#fff" stroke-width="3"/>
      <circle id="Ellipse_14" data-name="Ellipse 14" cx="8" cy="8" r="8" transform="translate(1549 371)" fill="#ff9191"/>
      <circle id="Ellipse_17" data-name="Ellipse 17" cx="8" cy="8" r="8" transform="translate(1598 444)" fill="#ff9191"/>
      <circle id="Ellipse_15" data-name="Ellipse 15" cx="5" cy="5" r="5" transform="translate(1582 400)" fill="#ff9191"/>
      <circle id="Ellipse_19" data-name="Ellipse 19" cx="5" cy="5" r="5" transform="translate(1577 326)" fill="#ff9191"/>
      <circle id="Ellipse_18" data-name="Ellipse 18" cx="5" cy="5" r="5" transform="translate(1581 440)" fill="#ff9191"/>
      <circle id="Ellipse_16" data-name="Ellipse 16" cx="5" cy="5" r="5" transform="translate(1542 440)" fill="#ff9191"/>
      <path id="Path_550" data-name="Path 550" d="M0,0S11.22,9.343,19.27,11.843,32.2,10,32.2,10" transform="translate(1559.802 314.5)" fill="none" stroke="#fff" stroke-width="1"/>
      <path id="Path_551" data-name="Path 551" d="M0,0S10.977,9.343,18.852,11.843c6.749,2.142,10.726-.147,11.976-1.035h0" transform="translate(1560.5 310.5)" fill="none" stroke="#fff" stroke-width="1"/>
      <path id="Path_552" data-name="Path 552" d="M1543.53,393.833s17.36,4.913,32.57,2.3,28.268-12.749,28.268-12.749" transform="translate(0 -2)" fill="none" stroke="#fff" stroke-width="1"/>
      <path id="Path_553" data-name="Path 553" d="M1543.53,393.833s17.875,4.913,33.535,2.3,29.106-12.749,29.106-12.749" transform="translate(-0.82 1)" fill="none" stroke="#fff" stroke-width="1"/>
      <path id="Path_554" data-name="Path 554" d="M1535.573,424.158s32.484,11.615,52.246,13.5a57.475,57.475,0,0,0,6.252.258c14.961-.164,20.61-7.127,20.61-7.127" fill="none" stroke="#fff" stroke-width="1"/>
      <path id="Path_555" data-name="Path 555" d="M1535.573,424.158s32.937,11.615,52.975,13.5a59.084,59.084,0,0,0,6.34.258c15.17-.164,20.9-7.127,20.9-7.127" transform="translate(0 3)" fill="none" stroke="#fff" stroke-width="1"/>
    </g>
    <g id="mascota_" data-name="mascota " transform="translate(279 -178)">
      <path id="Path_537" data-name="Path 537" d="M2963.037,961.127a261.335,261.335,0,0,1,9.8,31.361c3.513,15.279,0,31.8,0,31.8H2966.4a69.528,69.528,0,0,0-4.39-27.292c-5.362-13.416-17.059-26.37-17.059-26.37Z" transform="translate(-2152.528 -197.079)" fill="#ff6c6c"/>
      <path id="Path_529" data-name="Path 529" d="M82.5,0c45.563,0,90.256-1.673,90.256,17.933S128.063,66.105,82.5,66.105-2.573,45.372-2.573,25.766,36.937,0,82.5,0Z" transform="translate(658 722)" fill="#ff6c6c"/>
      <path id="Path_538" data-name="Path 538" d="M2960.568,963.172a288.607,288.607,0,0,0-14.054,29.315c-6.47,15.882-11.827,34.213-11.827,34.213l7.48,3.273s6.015-18.942,15.171-32.978a100.425,100.425,0,0,1,21.455-23.165Z" transform="translate(-2293.528 -208.079)" fill="#ff6c6c"/>
      <path id="Path_528" data-name="Path 528" d="M98.5,0c54.4,0,97.077,34.677,97.077,86.315,0,2.014.153,7.5,0,9.784-.145,2.169,12.959,10.457,17.279,19.165s11.448,21.389,3.615,22.293-34.945-18.678-34.945-18.678,6.756,32.658,0,33.74c-11.562,1.853-30.728-30.125-30.728-30.125s-2.867,39.507-10.242,38.56c-17.1-2.2-32.535-30.125-32.535-30.125s-8.177,30.125-15.062,30.125c-7.513,0-23.5-30.125-23.5-30.125s-29.27,35.087-35.548,30.125c-10.743-8.491-4.82-38.56-4.82-38.56s-33.834,28.577-37.958,24.1C-16.016,138.831,7.4,104.368,7.4,102.611c0-1.274-2.5-2.281-3.914-12.131-.144-1-.948-3.91-1.056-5.473-.906-13.133,9.7-40.536,26.66-60.118C47.1,4.089,71.11,0,98.5,0Z" transform="translate(642 620)" fill="#2f8d5b"/>
      <path id="Path_534" data-name="Path 534" d="M58.112,0c30.376,0,62.453,4.157,62.453,10.784,0,4.957-6.283,22.753-29.2,26.8-7.34,1.3-23.514-10.849-38.916-8.051S38.779,44.582,29.754,48.777s-11.1,2.925-16.086-.815S11.786,36.235,16.188,26.1,33.954,5.763,33.954,5.763,50.389,0,58.112,0Z" transform="matrix(-0.875, 0.485, -0.485, -0.875, 906.724, 635.134)" fill="#2f8d5b"/>
      <path id="Path_532" data-name="Path 532" d="M2965.523,838.573s14.97,15.411,21.86,30.5a66.925,66.925,0,0,1,5.7,29.871l1.575,14.7s10.237,7.875,14.175,13.913,14.178,22.556,6.7,24.2-36.623-17.634-36.623-17.634,3.331,13.528,3.58,23.564c.073,2.928-.434,6.387-1.593,8.307a3.318,3.318,0,0,1-1.988,1.367,147.6,147.6,0,0,0-8.285-23.805c-5.929-12.581-16.39-25.708-16.39-25.708l-4.725-15.488a59.746,59.746,0,0,0,4.725-21.4c.066-8.089-4.326-16.5-4.725-23.432-.919-15.947-23.888-18.7-3.675-18.958S2965.523,838.573,2965.523,838.573Z" transform="translate(-2156 -195)" fill="#51b982" stroke="#51b982" stroke-width="1"/>
      <path id="Path_527" data-name="Path 527" d="M263.534,298.679s-30.414,7.543-33.383,11.556,21.506,4.494,21.506,4.494-7.463,23.994,0,25.679,22.19-6.229,22.19-6.229,4.212,16.26,11.836,18.427S312,330.137,312,330.137s6.5,25.278,14.766,24.716,20.918-20.674,20.918-20.674,18.323,15.859,25.3,14.254,0-26.963,0-26.963,25.118,7.945,23.753,2.247-29.21-25.037-29.21-25.037Z" transform="translate(432.026 325.616)" fill="#fff"/>
      <ellipse id="Ellipse_12" data-name="Ellipse 12" cx="12.5" cy="15" rx="12.5" ry="15" transform="translate(575.401 691.422) rotate(51)" fill="#ffa9a9"/>
      <g id="guler">
        <ellipse id="Ellipse_9" data-name="Ellipse 9" cx="20.5" cy="26.5" rx="20.5" ry="26.5" transform="translate(712.858 602.414) rotate(21)" fill="#2f8d5b"/>
        <ellipse id="Ellipse_10" data-name="Ellipse 10" cx="20.5" cy="26.5" rx="20.5" ry="26.5" transform="matrix(-0.848, 0.53, -0.53, -0.848, 800.928, 644.11)" fill="#2f8d5b"/>
        <path id="Path_524" data-name="Path 524" d="M18.013-2.655c1.723,0,3.472-.513,4.573.193,3.234,2.009-.592,10-.592,20.675,0,13.255,14.372,16.878,5.535,16.878s-28.178,2.258-28.178-11S9.177-2.655,18.013-2.655Z" transform="matrix(-0.848, 0.53, -0.53, -0.848, 799.278, 641.87)" fill="#51b982"/>
      </g>
      <g id="Caciula">
        <path id="Path_513" data-name="Path 513" d="M57.449-12.185c20.5,0,17.058,43.984,26.233,81.512s19.611,61.549,10.466,68.6c-10.4,8.021-33.5-26.027-72.544-24.212S-64.83,161.942-71.573,151.28c-4.3-6.794-5.777-17.076,4.075-37.564s15.4-28.3,27.619-44.388C-10.008,29.984,36.952-12.185,57.449-12.185Z" transform="translate(734.967 401.306)" fill="#ff6c6c"/>
        <path id="Path_523" data-name="Path 523" d="M58.95-13.129c6.834,0,8.356-.239,5.031,5.826-1,1.821-11.822,10.258-18.3,25.4s-6.052,22.6-7.624,35.182c-.565,4.508-1.41,17.235,0,23,9.175,37.528,20.6,39.167,11.452,46.218-10.4,8.021,11.144-10.605-27.9-8.789S-64.83,161.942-71.573,151.28c-4.3-6.794-5.777-17.076,4.075-37.564s15.4-28.3,27.619-44.388C-10.008,29.984,38.453-13.129,58.95-13.129Z" transform="translate(734.967 401.306)" fill="#ef5d5d"/>
        <g id="Group_30" data-name="Group 30" transform="translate(427.026 326.616)">
          <path id="Path_504" data-name="Path 504" d="M2320.915,468.553s2.508-26.872,22.1-44.961c14.519-13.4,32.213-18.2,61.075-20.281s40.15,1.765,54.373,11.955c16.118,11.547,25.807,31.3,25.807,31.3s21.924-26.5,19.18-35.336-30.156,0-30.156,0,8.21-33.6,1.249-38.886-29.094,17.73-29.094,17.73-7.687-34.051-18.027-35.461-23.332,29.82-23.332,29.82-10.033-34.554-18.791-33.446-16.242,37.879-16.242,37.879-28.371-22.113-35.773-16.522,6.165,38.886,6.165,38.886-31.405-10.056-36.607-3.4,15.8,30.014,15.8,30.014-24.074-4.633-23.506,3.045S2320.915,468.553,2320.915,468.553Z" transform="translate(-2086 -222)" fill="#fff"/>
        </g>
        <circle id="Ellipse_11" data-name="Ellipse 11" cx="16" cy="16" r="16" transform="translate(785 367)" fill="#ffe167"/>
        <path id="Path_522" data-name="Path 522" d="M16,0c3.87,0,3.546,6.415,1.666,8.951-1.987,2.686-4.085,4.415-4.085,9.381,0,4.074.524,7.753,2.42,10.289,1.82,2.433,4.763,3.48,0,3.48A16.051,16.051,0,0,1,16,0Z" transform="translate(785 367)" fill="#ffca35"/>
        <path id="Path_525" data-name="Path 525" d="M2,0A12.822,12.822,0,0,0-.419,4.817,11.436,11.436,0,0,0,0,10" transform="translate(795.5 376.5)" fill="none" stroke="#c9852a" stroke-linecap="round" stroke-width="2"/>
        <path id="Path_526" data-name="Path 526" d="M2,0A12.822,12.822,0,0,0-.419,4.817,11.436,11.436,0,0,0,0,10" transform="translate(803.5 378.5)" fill="none" stroke="#ed9f38" stroke-linecap="round" stroke-width="2"/>
      </g>
      <g id="cap" transform="translate(2)">
        <g id="urechi" transform="translate(425 331)">
          <path id="Path_500" data-name="Path 500" d="M11.847,51.822C24.6,68.64,29.04,28.6,29.062,28.072,29.607,15.116,21.773,0,14.026,0S0,10.26,0,22.916C0,29.307,6.947,46.387,11.847,51.822Z" transform="matrix(-0.819, -0.574, 0.574, -0.819, 403.743, 259.462)" fill="#fdb7b7"/>
          <g id="Group_31" data-name="Group 31" transform="translate(4)">
            <path id="Path_499" data-name="Path 499" d="M11.847-5.359C24.6-22.177,29.04,17.86,29.062,18.391c.545,12.955-7.289,28.072-15.036,28.072S0,36.2,0,23.547C0,17.156,6.947.076,11.847-5.359Z" transform="translate(201.35 247.873) rotate(-51)" fill="#ffa9a9"/>
            <path id="Path_520" data-name="Path 520" d="M6.452-7.236C13.4-16.4,15.815,5.408,15.827,5.7c.1,2.455.273,9.191-.618,11.774S14.8,22.437,12.379,23.3c-1.084.39-3.816.188-4.861.188C3.3,23.485,0,15.4,0,8.506,0,5.025,3.783-4.276,6.452-7.236Z" transform="matrix(0.616, -0.788, 0.788, 0.616, 221.017, 253.295)" fill="#fc7e7e"/>
          </g>
          <path id="Path_521" data-name="Path 521" d="M6.452,30.775C13.4,39.933,15.815,18.13,15.827,17.84c.1-2.455.273-9.191-.618-11.774S14.8,1.1,12.379.24C11.3-.15,8.564.053,7.518.053,3.3.053,0,8.14,0,15.032,0,18.513,3.783,27.815,6.452,30.775Z" transform="translate(396.405 249.653) rotate(-135)" fill="#f99"/>
        </g>
        <g id="fata" transform="translate(425 331)">
          <path id="Path_518" data-name="Path 518" d="M76,0c36.559,0,68.639,10.93,76,34.536.985,3.153,1.935,13.3,1.935,16.964,0,11.576-1.253,28-10.968,36.777C129.3,100.628,100.89,103,76,103c-21.658,0-41.771,1.237-55.823-8.763C7.4,85.147,3.248,63.895,3.248,50.128,3.248,21.686,34.026,0,76,0Z" transform="translate(241 199)" fill="#ffd4d4"/>
          <ellipse id="Ellipse_3" data-name="Ellipse 3" cx="5" cy="8" rx="5" ry="8" transform="translate(335.166 231.915)" fill="#804a3f"/>
          <ellipse id="Ellipse_8" data-name="Ellipse 8" cx="5" cy="8" rx="5" ry="8" transform="translate(298.166 231.915)" fill="#804a3f"/>
          <path id="Path_519" data-name="Path 519" d="M8.5,0C13.194,0,17,3.358,17,7.5S13.194,15,8.5,15,0,11.642,0,7.5,3.806,0,8.5,0Z" transform="translate(313 245)" fill="#f99"/>
          <circle id="Ellipse_6" data-name="Ellipse 6" cx="16" cy="16" r="16" transform="translate(258 254)" fill="#fc7e7e"/>
          <circle id="Ellipse_7" data-name="Ellipse 7" cx="16" cy="16" r="16" transform="translate(353 251)" fill="#f99"/>
          <path id="Path_501" data-name="Path 501" d="M0-.07S4.38,4.472,8.505,4.472a7.27,7.27,0,0,0,4.221-1.783,20.2,20.2,0,0,0,3.955-4.3" transform="translate(313.5 265.5)" fill="none" stroke="#804a3f" stroke-linecap="round" stroke-width="3"/>
        </g>
        <path id="Path_515" data-name="Path 515" d="M34.9-26.475c-6.923-1.884-29.434-.492-42.56,2.506S-.146-8.457-.146-8.457,3.818-3.375,12.1,1.957c5.04,3.244,19.762,0,19.762,0s6.747,15.014,11.391,17.6c6.241,3.479,21.015,0,21.015,0s5.82,18.486,13,18.486,13-8.277,13-18.486C90.272,14.6,84.777-2,72.8-10.725,60.545-19.651,38.591-26.475,34.9-26.475Z" transform="translate(735 532.953)" fill="#b77060"/>
        <path id="Path_514" data-name="Path 514" d="M51.292-21.25c18.717-6.44,33.736-8.139,41.48-5.889,2.455.713,1.4,1.94,0,3.647-2.368,2.922-9.514,7.471-11.29,12.317-2.6,7.106-3.188,15.5-7.341,18.927-4.868,4.021-17.727,0-17.727,0s-6.517,18.609-11,21.818c-6.028,4.312-20.3,0-20.3,0S19.491,52.482,12.557,52.482,0,42.224,0,29.57C0,23.42,5.287,11.251,17.9-1.377a60.9,60.9,0,0,1,12.193-9.8A89.7,89.7,0,0,1,51.292-21.25Z" transform="translate(660.079 532.018)" fill="#a26253"/>
        <path id="Path_516" data-name="Path 516" d="M7.04-1.781C10.63-1.781,13,4.925,13,11S10.09,22,6.5,22,0,17.075,0,11C0,7.537-2.7,4.248-1.029,1.981-.1.711,5.5-1.781,7.04-1.781Z" transform="matrix(0.342, -0.94, 0.94, 0.342, 758.214, 538.507)" fill="#804a3f"/>
        <path id="Path_517" data-name="Path 517" d="M8.613,23.781c3.59,0,5.96-6.706,5.96-12.781s-2.91-11-6.5-11-6.5,4.925-6.5,11c0,3.463-2.7,6.752-1.029,9.019a7.934,7.934,0,0,0,3.263,2.938A14.041,14.041,0,0,0,8.613,23.781Z" transform="translate(708.445 551.077) rotate(-122)" fill="#794338"/>
      </g>
      <path id="Path_530" data-name="Path 530" d="M-3.81.517s51.505,1.426,100.323,0,93.628-5.7,93.628-5.7a33.215,33.215,0,0,1,1.579,7.893,28.56,28.56,0,0,1-.792,7.646A811.368,811.368,0,0,1,98.677,18.22C50.744,19.3-.8,14.679-.8,14.679A14.981,14.981,0,0,1-3.81,8.574,25.834,25.834,0,0,1-3.81.517Z" transform="translate(648 709)" fill="#ffe167"/>
      <path id="Path_531" data-name="Path 531" d="M-3.917.517s35.092,1.426,68.354,0c6.519-.28,11.431.1,15.737,0,16.288-.374,14.647,0,14.647,0S90.716,2.655,90.85,6.539c.058,1.678,3.184,4.469,3.972,6.951a5.832,5.832,0,0,1-.646,4.729s2.781-.129-9.368,0c-3.939.042-10.341-.283-18.9,0C33.253,19.3-1.868,14.679-1.868,14.679A18.12,18.12,0,0,1-3.917,8.574,37.779,37.779,0,0,1-3.917.517Z" transform="translate(648 709)" fill="#ffca35"/>
      <ellipse id="Ellipse_13" data-name="Ellipse 13" cx="12.5" cy="15" rx="12.5" ry="15" transform="translate(846.087 576.172) rotate(-18)" fill="#fdb7b7"/>
      <path id="Path_533" data-name="Path 533" d="M58.112-6.47c30.376,0,62.453,4.157,62.453,10.784,0,4.957-6.283,22.753-29.2,26.8-7.34,1.3-17.188-3.044-38.916-8.051-9.039-2.083-30.317-3.025-38.233-3.186C3.771,19.666,0,15.87,0,12,0,8.534,1.045,3.326,11.465.348c4.206-1.2,8.164-2.969,16.116-4.588C35.995-5.952,50.389-6.47,58.112-6.47Z" transform="matrix(0.875, -0.485, 0.485, 0.875, 571.078, 696.169)" fill="#2f8d5b"/>
      <path id="Path_535" data-name="Path 535" d="M13.851,4.882C19.1,4.882,16,9.826,16,21.424s2.014,16.447-3.233,16.447c-2.676,0-6.647-.455-9.4-3.56C1.1,31.764,0,26.683,0,21,0,15.236,1.017,10.324,4.017,7.544,6.614,5.129,11.212,4.882,13.851,4.882Z" transform="matrix(0.809, -0.588, 0.588, 0.809, 559.471, 692.595)" fill="#fff"/>
      <path id="Path_536" data-name="Path 536" d="M13.851,32.989C19.1,32.989,16,28.045,16,16.447S18.011,0,12.765,0c-2.676,0-6.647.455-9.4,3.56C1.1,6.107,0,11.188,0,16.871c0,5.764,1.017,10.676,4.017,13.456C6.614,32.742,11.212,32.989,13.851,32.989Z" transform="translate(880.453 587.474) rotate(79)" fill="#fff"/>
      <path id="Path_539" data-name="Path 539" d="M0,0H19l1.276,23.374S-18.188,37.68-22.615,36.242,2.566,17.622,2.566,17.622Z" transform="translate(639.717 803.25) rotate(29)" fill="#2f8d5b"/>
      <path id="Path_540" data-name="Path 540" d="M23.067,36.344h19l1.276-23.374S4.879-1.337.451.1s25.181,18.62,25.181,18.62Z" transform="translate(849.377 848.748) rotate(-177)" fill="#2f8d5b"/>
    </g>
  </g>
</svg>
