<svg xmlns="http://www.w3.org/2000/svg" width="70.364" height="69.34" viewBox="0 0 70.364 69.34">
  <g id="Group_25" data-name="Group 25" transform="translate(-447.63 -163.27)">
    <path id="Path_445" data-name="Path 445" d="M516.82,226.54c-8.16-4.64-25.14-.74-31.18,6.07-2.53-6.76-1.95-10.73-10-14.32-4.39-1.71-9.74-2.27-14.32-.26-.3-9-2.18-20-13.69-22,3.42-8.79,6.18-17.73.31-26.29,4,.26,7.94,1.17,12.54.53,5.07-1.21,8.5-4.18,12.58-7,5.5,10.18,14.49,11.25,25,10.27,1.4,11.62,9.78,15.29,19.7,18.29-2.18,10.79-9,25.3-.92,34.71" fill="#51b982"/>
    <path id="Path_446" data-name="Path 446" d="M461.7,182.51c20.73,11.23,36.49,28.72,53.69,44.43,1.43,1.3,3.56-.81,2.13-2.12-17.4-15.89-33.35-33.55-54.31-44.9-1.7-.92-3.21,1.67-1.51,2.59Z" fill="#2f8d5b"/>
    <path id="Path_447" data-name="Path 447" d="M474,177.05c.06,4.22.94,8.33,1.5,12.5.2,1.57,2.71,1.59,2.5,0-.56-4.17-1.44-8.28-1.5-12.5a1.25,1.25,0,0,0-2.5,0Z" transform="translate(1)" fill="#2f8d5b"/>
    <path id="Path_448" data-name="Path 448" d="M491.21,182.55c.19,6.42-.22,12.83-.25,19.25a1.25,1.25,0,0,0,2.5,0c0-6.42.44-12.83.25-19.25A1.251,1.251,0,0,0,491.21,182.55Z" transform="translate(1)" fill="#2f8d5b"/>
    <path id="Path_449" data-name="Path 449" d="M460.71,197.05c6.84-.3,13.64-1.17,20.5-1.25a1.25,1.25,0,0,0,0-2.5c-6.86.08-13.66.95-20.5,1.25C459.1,194.62,459.09,197.12,460.71,197.05Z" transform="translate(1)" fill="#2f8d5b"/>
    <path id="Path_450" data-name="Path 450" d="M471.71,211.55A158,158,0,0,0,498,209.76c1.58-.23.91-2.64-.67-2.41a154.115,154.115,0,0,1-25.66,1.7,1.25,1.25,0,0,0,0,2.5Z" fill="#2f8d5b"/>
  </g>
</svg>
