<svg xmlns="http://www.w3.org/2000/svg" width="115.402" height="105.108" viewBox="0 0 115.402 105.108">
  <g id="Group_42" data-name="Group 42" transform="matrix(0.574, -0.819, 0.819, 0.574, -508.755, 507.584)">
    <path id="Path_169" data-name="Path 169" d="M700.946,173.205c.649-.523,1.3-1.028,1.939-1.458a47.549,47.549,0,0,0-3.3-13.857,35.821,35.821,0,0,0-9.659,7.384C693.5,168,697.128,170.727,700.946,173.205Z" transform="translate(-3.36 -0.775)" fill="#51b982"/>
    <path id="Path_170" data-name="Path 170" d="M684.359,172.75a40.458,40.458,0,0,0-2.444,4.08c-3.987,6.743,5.057,11.876,8.867,7.535,1.239-1.424,2.529-2.832,3.785-4.172C691.1,177.833,687.731,175.279,684.359,172.75Z" transform="translate(-1.945 -3.11)" fill="#51b982"/>
    <path id="Path_171" data-name="Path 171" d="M712.164,168.886h.244c3.742-3.86,7.308-7.889,10.865-11.927a20.027,20.027,0,0,0-14.523-1.871,52.263,52.263,0,0,1,3.414,13.8Z" transform="translate(-6.317 -0.24)" fill="#51b982"/>
    <path id="Path_172" data-name="Path 172" d="M729.923,162.38c-3.565,4.037-7.131,8.075-10.856,11.961a7.925,7.925,0,0,1-.287,3.11c4.67.244,9.348.464,14.009.767C734.18,172.41,733.817,166.856,729.923,162.38Z" transform="translate(-7.893 -1.481)" fill="#51b982"/>
    <path id="Path_173" data-name="Path 173" d="M723.94,198.374c.843-1.5,1.686-3.034,2.529-4.644s1.618-3.372,2.31-5.057c-4.965-.3-9.946-.531-14.919-.843-2.25,3.633-5.116,7.266-6.92,9.988l-.059.093A118.745,118.745,0,0,0,723.94,198.374Z" transform="translate(-6.023 -5.479)" fill="#51b982"/>
    <path id="Path_174" data-name="Path 174" d="M711.922,217.122c2.04-3.026,4.122-6.01,6.17-9.12a94.219,94.219,0,0,1-17.026-.952c-1.9,2.807-3.827,5.664-5.335,7.982C701.15,215.529,706.527,216.347,711.922,217.122Z" transform="translate(-4.272 -8.499)" fill="#51b982"/>
    <path id="Path_175" data-name="Path 175" d="M701.65,233.568c1.888-3.211,3.532-5.968,4.661-7.721-5.386-.767-10.772-1.5-16.192-1.837-1.214,1.871-2.967,4.636-4.939,7.889C690.676,232.3,696.154,233.012,701.65,233.568Z" transform="translate(-2.614 -11.164)" fill="#51b982"/>
    <path id="Path_176" data-name="Path 176" d="M692.1,249.859c1.45-2.419,2.933-4.931,4.383-7.392-5.529-.607-11.05-1.264-16.6-1.517-1.45,2.529-2.908,5.133-4.29,7.771C681.1,249.193,686.6,249.632,692.1,249.859Z" transform="translate(-1.109 -13.825)" fill="#51b982"/>
    <path id="Path_177" data-name="Path 177" d="M671.461,257.69c-2.765,6.06-1.441,7.586,2.984,9.567,3.321,1.863,5.7,2.579,11.413-6.119.455-.691.936-1.45,1.433-2.234C682.005,258.6,676.746,258.145,671.461,257.69Z" transform="translate(-0.232 -16.455)" fill="#51b982"/>
    <path id="Path_178" data-name="Path 178" d="M681.023,174.343c5.428-10.039,15.863-19.842,28.135-18.779,5.622.48,11.362,3.869,13.874,9.053,2.967,6.119.657,13.393-1.888,19.235-4.678,10.764-12.045,19.993-18.291,29.847-4.383,6.937-8.378,14.118-12.593,21.165a125.648,125.648,0,0,1-7.409,11.632c-1.13,1.5-2.992,4.155-5.142,4.214-1.4.059-3.169-1.037-4.332-1.728-4.172-2.478-1.408-6.625.379-10.115q4.434-8.6,9.44-16.858c3.709-6.136,7.519-12.247,11.5-18.2,4.965-7.426,10.78-14.616,15.172-22.4,1.627-2.916,3.641-6.945,2.166-10.308-1.188-2.714-4.4-3.978-7.207-3.717-5.057.472-9.44,4.99-12.761,8.429-2.1,2.175-4.273,6.263-7.78,5.673s-4.762-4.214-3.237-7.2c.716-1.416-1.424-2.672-2.141-1.247-1.559,3.085-1.585,6.457,1.1,8.943a7.256,7.256,0,0,0,8.252,1.273c2.217-1.256,3.827-3.886,5.563-5.689,2.579-2.664,5.42-5.529,8.876-7,3.835-1.635,8.125.219,7.08,4.83-.624,2.739-2.3,5.327-3.818,7.653-11.8,18.08-24.343,35.359-34.314,54.585-1.492,2.866-4.147,7.114-2.663,10.477,1.028,2.343,4.214,3.776,6.448,4.594,7.493,2.723,12.854-9.786,15.779-14.624,5.4-8.926,10.41-18.105,16.15-26.829,7.148-10.84,16.015-21.738,18.872-34.71,2.588-11.725-4.712-22.556-17.043-23.508-13.141-1.02-24.444,9.179-30.276,20.01-.759,1.4,1.382,2.655,2.141,1.247Z" transform="translate(0 0)" fill="#51b982"/>
  </g>
</svg>
