<?xml version="1.0" encoding="utf-8"?>
<!-- Generator: Adobe Illustrator 19.0.0, SVG Export Plug-In . SVG Version: 6.00 Build 0)  -->
<svg version="1.1" id="Layer_1" xmlns="http://www.w3.org/2000/svg" xmlns:xlink="http://www.w3.org/1999/xlink" x="0px" y="0px"
	 viewBox="-237 239 24 24" style="enable-background:new -237 239 24 24;" xml:space="preserve">
<style type="text/css">
	.st0{fill:none;}
	.st1{fill:#248451;}
</style>
<path class="st0" d="M-237,239h24v24h-24V239z"/>
<path class="st1" d="M-233,257h16c0.6,0,1-0.5,1-1c0-0.6-0.4-1-1-1h-16c-0.6,0-1,0.4-1,1C-234,256.5-233.6,257-233,257z M-233,252
	h16c0.6,0,1-0.4,1-1s-0.4-1-1-1h-16c-0.6,0-1,0.4-1,1S-233.6,252-233,252z M-234,246c0,0.6,0.4,1,1,1h16c0.6,0,1-0.4,1-1s-0.4-1-1-1
	h-16C-233.6,245-234,245.4-234,246z"/>
</svg>
