<?xml version="1.0" encoding="utf-8"?>
<!-- Generator: Adobe Illustrator 19.0.0, SVG Export Plug-In . SVG Version: 6.00 Build 0)  -->
<svg version="1.1" id="Layer_1" xmlns="http://www.w3.org/2000/svg" xmlns:xlink="http://www.w3.org/1999/xlink" x="0px" y="0px"
	 viewBox="-237 239 24 24" style="enable-background:new -237 239 24 24;" xml:space="preserve">
<style type="text/css">
	.st0{fill:none;}
	.st1{fill:#248451;}
</style>
<path class="st0" d="M-237,239h24v24h-24V239z"/>
<path class="st1" d="M-233,257h11c0.6,0,1-0.5,1-1l0,0c0-0.6-0.4-1-1-1h-11c-0.6,0-1,0.4-1,1l0,0C-234,256.5-233.6,257-233,257z
	 M-233,252h8c0.6,0,1-0.4,1-1l0,0c0-0.6-0.4-1-1-1h-8c-0.6,0-1,0.4-1,1l0,0C-234,251.6-233.6,252-233,252z M-234,246L-234,246
	c0,0.6,0.4,1,1,1h11c0.6,0,1-0.4,1-1l0,0c0-0.6-0.4-1-1-1h-11C-233.6,245-234,245.4-234,246z M-216.7,253.9l-2.9-2.9l2.9-2.9
	c0.4-0.4,0.4-1,0-1.4l0,0c-0.4-0.4-1-0.4-1.4,0l-3.6,3.6c-0.4,0.4-0.4,1,0,1.4l3.6,3.6c0.4,0.4,1,0.4,1.4,0l0,0
	C-216.3,254.9-216.3,254.3-216.7,253.9z"/>
<path class="st0" d="M-237,239h24v24h-24V239z"/>
</svg>
