<svg xmlns="http://www.w3.org/2000/svg" width="123.204" height="117.287" viewBox="0 0 123.204 117.287">
  <g id="Group_38" data-name="Group 38" transform="translate(-394.009 -30.245)">
    <g id="Group_39" data-name="Group 39">
      <path id="Path_379" data-name="Path 379" d="M516.35,85.81l-17.16,59.9,1.81-1c-34.71-8.81-68.7-20.19-103.13-30l1,1.8,17.66-58.23-1.81,1,89.72,24.75,12.91,3.56a1.473,1.473,0,0,0,.78-2.84L428.44,60l-12.92-3.56a1.51,1.51,0,0,0-1.81,1l-17.65,58.23a1.49,1.49,0,0,0,1,1.81c34.43,9.79,68.43,21.17,103.13,30a1.49,1.49,0,0,0,1.81-1l17.16-59.9a1.47,1.47,0,0,0-2.83-.78Z" transform="translate(-2)" fill="#707070"/>
      <path id="Path_384" data-name="Path 384" d="M504.68,93.75c3.15,0,3.15-4.9,0-4.9S501.52,93.75,504.68,93.75Z" transform="translate(-2)" fill="#707070"/>
      <path id="Path_385" data-name="Path 385" d="M410.18,113.69c3.15,0,3.16-4.9,0-4.9S407.02,113.69,410.18,113.69Z" transform="translate(-2)" fill="#707070"/>
      <path id="Path_386" data-name="Path 386" d="M422.84,70.7c3.15,0,3.16-4.9,0-4.9S419.68,70.7,422.84,70.7Z" transform="translate(-2)" fill="#707070"/>
      <path id="Path_387" data-name="Path 387" d="M447.29,90.9c3.15,0,3.15-4.9,0-4.9S444.13,90.9,447.29,90.9Z" transform="translate(-2)" fill="#707070"/>
      <path id="Path_388" data-name="Path 388" d="M450.9,79c3.15,0,3.15-4.9,0-4.9S447.74,79,450.9,79Z" transform="translate(-2)" fill="#707070"/>
      <path id="Path_389" data-name="Path 389" d="M420,83.57c3.16,0,3.16-4.9,0-4.9S416.84,83.57,420,83.57Z" transform="translate(-2)" fill="#707070"/>
      <path id="Path_390" data-name="Path 390" d="M445.41,108.93c3.16,0,3.16-4.9,0-4.9S442.25,108.93,445.41,108.93Z" transform="translate(-2)" fill="#707070"/>
      <path id="Path_391" data-name="Path 391" d="M418.47,100c3.16,0,3.16-4.9,0-4.9S415.31,100,418.47,100Z" transform="translate(-2)" fill="#707070"/>
      <path id="Path_392" data-name="Path 392" d="M439.24,122.82c3.15,0,3.15-4.9,0-4.9S436.08,122.82,439.24,122.82Z" transform="translate(-2)" fill="#707070"/>
      <path id="Path_393" data-name="Path 393" d="M466.75,115.23c3.15,0,3.16-4.9,0-4.9S463.59,115.23,466.75,115.23Z" fill="#707070"/>
      <path id="Path_394" data-name="Path 394" d="M499,124.79c3.15,0,3.16-4.9,0-4.9S495.84,124.79,499,124.79Z" fill="#707070"/>
      <path id="Path_395" data-name="Path 395" d="M492.61,136.74c3.16,0,3.16-4.9,0-4.9S489.46,136.74,492.61,136.74Z" fill="#707070"/>
      <path id="Path_396" data-name="Path 396" d="M463.65,129c3.15,0,3.15-4.9,0-4.9S460.49,129,463.65,129Z" fill="#707070"/>
      <path id="Path_397" data-name="Path 397" d="M482.68,120.79c3.15,0,3.16-4.9,0-4.9S479.52,120.79,482.68,120.79Z" fill="#707070"/>
      <path id="Path_398" data-name="Path 398" d="M425.33,115.55c3.15,0,3.16-4.9,0-4.9S422.17,115.55,425.33,115.55Z" transform="translate(-2)" fill="#707070"/>
      <path id="Path_399" data-name="Path 399" d="M433.71,85.27c3.15,0,3.16-4.9,0-4.9S430.55,85.27,433.71,85.27Z" transform="translate(-2)" fill="#707070"/>
      <path id="Path_400" data-name="Path 400" d="M475.83,84.68c3.15,0,3.16-4.9,0-4.9S472.67,84.68,475.83,84.68Z" transform="translate(-2)" fill="#707070"/>
      <path id="Path_401" data-name="Path 401" d="M472.14,98c3.16,0,3.16-4.9,0-4.9S468.98,98,472.14,98Z" fill="#707070"/>
      <path id="Path_402" data-name="Path 402" d="M498.8,105.39c3.15,0,3.15-4.9,0-4.9S495.64,105.39,498.8,105.39Z" fill="#707070"/>
      <path id="Path_403" data-name="Path 403" d="M486,99.68c3.15,0,3.16-4.9,0-4.9S482.84,99.68,486,99.68Z" transform="translate(-2)" fill="#707070"/>
      <path id="Path_404" data-name="Path 404" d="M436.69,75.09c3.15,0,3.16-4.9,0-4.9S433.53,75.09,436.69,75.09Z" transform="translate(-2)" fill="#707070"/>
      <path id="Path_405" data-name="Path 405" d="M431.31,103.55c3.15,0,3.15-4.9,0-4.9S428.15,103.55,431.31,103.55Z" transform="translate(-2)" fill="#707070"/>
      <path id="Path_406" data-name="Path 406" d="M479.71,133.79c3.15,0,3.15-4.9,0-4.9S476.55,133.79,479.71,133.79Z" fill="#707070"/>
      <path id="Path_407" data-name="Path 407" d="M491.54,88.8c3.15,0,3.15-4.9,0-4.9S488.38,88.8,491.54,88.8Z" transform="translate(-2)" fill="#707070"/>
    </g>
    <path id="Path_380" data-name="Path 380" d="M464.87,68.51,444.42,135c-.93,3,3.8,4.32,4.72,1.31l20.46-66.5c.92-3-3.8-4.31-4.73-1.3Z" transform="translate(-2)" fill="#51b982"/>
    <path id="Path_381" data-name="Path 381" d="M514.66,113.3c-36.93-10.24-73.53-21.69-110.46-31.93-3.05-.85-4.35,3.88-1.31,4.72,36.94,10.25,73.53,21.69,110.47,31.94C516.36,118.87,517.7,114.15,514.66,113.3Z" transform="translate(-2)" fill="#51b982"/>
    <path id="Path_382" data-name="Path 382" d="M468.93,71c.38-1.33.79-2.66,1.25-4,.21-.6.43-1.2.66-1.79.11-.28.21-.56.33-.83a4.2,4.2,0,0,0,.16-.41l.09-.21-.1.24a46.1,46.1,0,0,1,3.08-6c.52-.85,1.08-1.68,1.67-2.48.13-.19.27-.37.4-.55-.59.8,0,0,.14-.16l.86-1c.57-.64,1.17-1.26,1.8-1.84.3-.29.61-.56.93-.83l.44-.36.22-.18a3.358,3.358,0,0,0-.33.26l.16-.13a20.42,20.42,0,0,1,3.75-2.26l.45-.21-.31.13.28-.11.93-.34a19.111,19.111,0,0,1,1.86-.51l.93-.17h.22c.42-.07-.64.07-.38,0l.49-.06a16.17,16.17,0,0,1,3.5,0h-.2l.42.07.83.17c.52.13,1,.29,1.55.47l.36.14.18.07-.33-.14c.24.11.47.21.7.33a13.426,13.426,0,0,1,1.33.76l.63.43.14.11-.32-.25.3.25a12,12,0,0,1,1,1c.16.17.32.36.47.54.34.41-.43-.57-.15-.2l.22.3a9.319,9.319,0,0,1,.69,1.18c.05.1.1.19.14.29a1,1,0,0,0,.07.15c.13.28-.3-.73-.17-.38s.17.42.23.64a9.3,9.3,0,0,1,.3,1.29c-.19-1.12,0-.27,0,.06v.67a2.725,2.725,0,0,1-.06.69c.11-1.06.05-.29,0,.08a9.458,9.458,0,0,1-.43,1.37c-.12.32.31-.7.16-.38l-.07.16c-.05.12-.11.23-.17.35a7.686,7.686,0,0,1-.39.69c-.15.24-.3.47-.47.69a1.671,1.671,0,0,1-.12.16c-.18.25.48-.6.23-.29l-.28.33a13.391,13.391,0,0,1-1.29,1.32c-.25.23-.5.44-.77.65s-.49.35.26-.19l-.2.15-.44.31a25.082,25.082,0,0,1-4.24,2.36c-.22.1-1,.42-.08,0l-.66.27-1.38.52c-1,.35-2,.66-3,.94a64.761,64.761,0,0,1-7.17,1.51l-1,.14-.5.07c-.39.06.27,0,.28,0h-.37c-.73.1-1.46.18-2.19.26-1.52.16-3.05.28-4.57.38s-3.33.17-5,.21a2.45,2.45,0,1,0,0,4.9,99.85,99.85,0,0,0,18.66-2,41.89,41.89,0,0,0,11.95-4.3,17.88,17.88,0,0,0,6.62-6.1,10.92,10.92,0,0,0,1.44-7.36,11.49,11.49,0,0,0-3-5.93,15.471,15.471,0,0,0-6.16-3.95,17,17,0,0,0-7.48-.93,20.92,20.92,0,0,0-8.77,2.89A28.851,28.851,0,0,0,471.89,53a48,48,0,0,0-6.45,12.8c-.45,1.29-.86,2.6-1.23,3.91a2.45,2.45,0,0,0,4.72,1.3Z" transform="translate(-2)" fill="#51b982"/>
    <path id="Path_383" data-name="Path 383" d="M468.13,71.44c1.86-11.42,3-35.8-11.06-40.55-6.13-2.08-15.66,1-18.18,7.33-2.59,6.48,2.69,13.3,6.72,17.86,5.5,6.22,12.15,11.08,18.42,16.44,2.39,2,5.87-1.41,3.47-3.47-5.32-4.54-32.8-23.73-21.88-31.51C464.06,24.4,465,60.43,463.4,70.14,462.9,73.22,467.62,74.55,468.13,71.44Z" transform="translate(-2)" fill="#51b982"/>
  </g>
</svg>
