<svg xmlns="http://www.w3.org/2000/svg" width="100.008" height="127.433" viewBox="0 0 100.008 127.433">
  <g id="Group_69" data-name="Group 69" transform="translate(-331.421 -317.316)">
    <path id="Path_352" data-name="Path 352" d="M411.54,348.4l17,77.37,1-1.8-82.33,17.95,1.81,1-14.77-77.7-1,1.81,80.08-17.63c1.84-.41,1.06-3.24-.78-2.84L332.47,364.2a1.5,1.5,0,0,0-1,1.81l14.77,77.69a1.5,1.5,0,0,0,1.81,1l82.33-18a1.5,1.5,0,0,0,1-1.81l-17-77.37c-.4-1.85-3.24-1.06-2.83.78Z" fill="#252a3f"/>
    <path id="Path_353" data-name="Path 353" d="M370.4,354.5l18.48,83.9c.68,3.08,5.4,1.78,4.72-1.3q-9.23-42-18.47-83.9C374.45,350.12,369.72,351.42,370.4,354.5Z" fill="#da3636"/>
    <path id="Path_354" data-name="Path 354" d="M425.35,380.57q-45.41,10.26-90.85,20.34c-3.08.68-1.78,5.41,1.3,4.73q45.46-10,90.85-20.34C429.72,384.6,428.42,379.88,425.35,380.57Z" fill="#da3636"/>
    <path id="Path_355" data-name="Path 355" d="M376.4,355.93c-1.22-8.11-2.18-17.06-.17-25.12.81-3.26,2.26-7,5.68-8.25s8.69.2,11.41,2.54c9.33,8-13.22,26.3-19.94,29.12-2.86,1.2-1.6,5.94,1.31,4.72,10.24-4.29,36.68-27,20.94-38.21-7.65-5.42-18.31-4.66-22.56,4.25-4.59,9.64-2.93,22.09-1.4,32.25.47,3.11,5.19,1.79,4.73-1.3Z" fill="#da3636"/>
    <path id="Path_356" data-name="Path 356" d="M375,356.25c-4-9.5-9-20.86-17.66-27.06-8.22-5.9-17.71-1.05-21.14,7.94-6.57,17.23,26,19.62,35.79,22.13,3.05.79,4.36-3.94,1.3-4.72-5.82-1.5-11.81-2.23-17.63-3.77-4.5-1.18-14.86-3.48-15.36-9.44-.3-3.55,3.57-8.05,6.56-9.48,3.66-1.75,7.19.63,9.79,3.16,6.23,6.05,10.31,14.62,13.63,22.54,1.2,2.86,5.94,1.61,4.72-1.3Z" fill="#da3636"/>
    <path id="Path_357" data-name="Path 357" d="M406.9,358.21l.1.08c.07.06.19.14.3.24a5.821,5.821,0,0,1,.77.87,4.871,4.871,0,0,1,.36.59c.11.2.24.38.34.58a4.26,4.26,0,0,1,.39,1.24,5.06,5.06,0,0,1-.32,2.73,6.288,6.288,0,0,1-.54,1,3.405,3.405,0,0,1-.22.3L408,366l-.12-.06a3.24,3.24,0,0,1-.33-.19,4.759,4.759,0,0,1-.92-.72,4.21,4.21,0,0,1-.84-1.13,5.112,5.112,0,0,1-.49-1.44,5.548,5.548,0,0,1,0-1.63,3.388,3.388,0,0,1,.18-.73c.1-.21.21-.41.32-.6a5.9,5.9,0,0,1,.71-.91c.1-.11.21-.2.27-.26Z" fill="#252a3f"/>
    <path id="Path_358" data-name="Path 358" d="M394.52,357.92l.12.06a1.071,1.071,0,0,1,.33.16,6.42,6.42,0,0,1,.9.64,4.39,4.39,0,0,1,1.34,2.25,4.21,4.21,0,0,1-.27,2.59,5.438,5.438,0,0,1-.55,1c-.08.12-.18.22-.23.29l-.09.1-.12-.06a1.9,1.9,0,0,1-.33-.16,5.1,5.1,0,0,1-.9-.64,4.19,4.19,0,0,1-1.34-2.24,4.33,4.33,0,0,1,.28-2.6,4.878,4.878,0,0,1,.55-1,2,2,0,0,1,.22-.28Z" fill="#252a3f"/>
    <path id="Path_359" data-name="Path 359" d="M384.74,363.84l.12.06a2.647,2.647,0,0,1,.33.17,6,6,0,0,1,.91.66,4.61,4.61,0,0,1,1.36,2.32,4.47,4.47,0,0,1-.26,2.67,5.221,5.221,0,0,1-.55,1,3.056,3.056,0,0,1-.22.29l-.09.1-.12-.06a3.567,3.567,0,0,1-.33-.17,5.372,5.372,0,0,1-.91-.66,4.37,4.37,0,0,1-1.09-5,5.372,5.372,0,0,1,.54-1c.08-.12.18-.23.23-.3Z" fill="#252a3f"/>
    <path id="Path_360" data-name="Path 360" d="M403.87,372.42l.11.08a2.854,2.854,0,0,1,.28.22,5.548,5.548,0,0,1,.77.81,3.594,3.594,0,0,1,.35.54c.1.2.23.36.32.54a3.411,3.411,0,0,1,.37,1.13,4.51,4.51,0,0,1-.36,2.51,5.81,5.81,0,0,1-.56,1,2.887,2.887,0,0,1-.23.28l-.09.11-.12-.06a2.612,2.612,0,0,1-.32-.17,5.253,5.253,0,0,1-.91-.65,3.61,3.61,0,0,1-.82-1.05,4.39,4.39,0,0,1-.47-1.33,5.19,5.19,0,0,1,.05-1.53,2.759,2.759,0,0,1,.2-.67,4.34,4.34,0,0,1,.33-.56,5.858,5.858,0,0,1,.72-.84,2.593,2.593,0,0,1,.28-.24Z" fill="#252a3f"/>
    <path id="Path_361" data-name="Path 361" d="M366.51,367.72l.11.08c.07.06.19.14.29.24a6.433,6.433,0,0,1,.78.87,6.591,6.591,0,0,1,.36.59c.1.2.24.38.33.58a3.73,3.73,0,0,1,.39,1.24,5.06,5.06,0,0,1-.31,2.73,6.287,6.287,0,0,1-.54,1c-.08.12-.18.23-.23.3l-.08.11-.13-.06c-.07-.05-.21-.1-.33-.19a5.061,5.061,0,0,1-.91-.72,4.47,4.47,0,0,1-.85-1.13,5.44,5.44,0,0,1-.49-1.44,5.922,5.922,0,0,1,0-1.63,3.4,3.4,0,0,1,.19-.73,4.307,4.307,0,0,1,.32-.6,4.89,4.89,0,0,1,.71-.91,3,3,0,0,1,.27-.26Z" fill="#252a3f"/>
    <path id="Path_362" data-name="Path 362" d="M352.79,366.89l.12.06a1,1,0,0,1,.33.18,5.429,5.429,0,0,1,.91.71,4.75,4.75,0,0,1,1.16,5.24,4.881,4.881,0,0,1-.54,1,2.348,2.348,0,0,1-.22.3l-.08.11-.13-.06a1,1,0,0,1-.33-.18,5.892,5.892,0,0,1-.92-.71,4.79,4.79,0,0,1-1.15-5.25,5.9,5.9,0,0,1,.54-1,1.8,1.8,0,0,1,.22-.3Z" fill="#252a3f"/>
    <path id="Path_363" data-name="Path 363" d="M343.33,374.28l.13.08a3.42,3.42,0,0,1,.34.23,6.278,6.278,0,0,1,.95.86,6.65,6.65,0,0,1,1.49,2.92,6.55,6.55,0,0,1-.12,3.28,6.219,6.219,0,0,1-.51,1.19,2.287,2.287,0,0,1-.21.34l-.08.13-.13-.08c-.07-.05-.21-.13-.34-.23a6.869,6.869,0,0,1-1-.86,6.54,6.54,0,0,1-1.49-2.92,6.71,6.71,0,0,1,.13-3.29,6.433,6.433,0,0,1,.5-1.18,3.62,3.62,0,0,1,.21-.34Z" fill="#252a3f"/>
    <path id="Path_364" data-name="Path 364" d="M363.94,381.21l.12.07a1.878,1.878,0,0,1,.33.18,5.473,5.473,0,0,1,.92.7,4.77,4.77,0,0,1,1.16,5.25,5.278,5.278,0,0,1-.54,1,2.577,2.577,0,0,1-.22.31l-.09.11-.12-.07a1,1,0,0,1-.33-.18,6.409,6.409,0,0,1-.92-.7,4.79,4.79,0,0,1-1.15-5.25,5.718,5.718,0,0,1,.54-1,3.4,3.4,0,0,1,.22-.3Z" fill="#252a3f"/>
    <path id="Path_365" data-name="Path 365" d="M352.35,385.22l.12.06a2.18,2.18,0,0,1,.33.15,5,5,0,0,1,.89.62,3.9,3.9,0,0,1,1,4.69,4.849,4.849,0,0,1-.56.93,1.433,1.433,0,0,1-.23.28l-.08.1-.12-.05a.975.975,0,0,1-.33-.16,6,6,0,0,1-.9-.61,4.07,4.07,0,0,1-1.32-2.17,4.19,4.19,0,0,1,.29-2.53,5.843,5.843,0,0,1,.56-.93c.07-.11.18-.21.23-.28Z" fill="#252a3f"/>
    <path id="Path_366" data-name="Path 366" d="M414.78,394h.13a1.77,1.77,0,0,1,.36.11,6,6,0,0,1,1,.53,6.586,6.586,0,0,1,.54.42,3.091,3.091,0,0,1,.48.58,6,6,0,0,1,.7,1.47,5.181,5.181,0,0,1,.16,1.51,4.41,4.41,0,0,1-.29,1.39,5.54,5.54,0,0,1-.53,1,3.4,3.4,0,0,1-.22.3l-.09.11-.12-.06c-.08-.05-.21-.1-.33-.18a6.632,6.632,0,0,1-.93-.7,5,5,0,0,1-1.42-2.35,3.92,3.92,0,0,1-.17-1.28c0-.23.05-.44.06-.68a5.051,5.051,0,0,1,.08-.68,5.915,5.915,0,0,1,.34-1.11,2.812,2.812,0,0,1,.16-.34Z" fill="#252a3f"/>
    <path id="Path_367" data-name="Path 367" d="M400.3,395.37l.12.05a2.4,2.4,0,0,1,.33.16,4.9,4.9,0,0,1,.89.61,3.91,3.91,0,0,1,1,4.7,4.849,4.849,0,0,1-.56.93,2.473,2.473,0,0,1-.23.28l-.08.1-.12-.06a2.182,2.182,0,0,1-.33-.15,5.432,5.432,0,0,1-.9-.62,4,4,0,0,1-1.32-2.17,4.15,4.15,0,0,1,.29-2.52,5.556,5.556,0,0,1,.56-.94,2.4,2.4,0,0,1,.23-.27Z" fill="#252a3f"/>
    <path id="Path_368" data-name="Path 368" d="M392.46,404.48l.11.1c.07.07.2.17.31.29a7.277,7.277,0,0,1,.81,1,6.852,6.852,0,0,1,.39.71c.12.25.27.48.37.74a6.23,6.23,0,0,1,.46,1.58,7.379,7.379,0,0,1-.17,3.36,8.431,8.431,0,0,1-.5,1.22,4.128,4.128,0,0,1-.22.36l-.08.13-.12-.09a2.775,2.775,0,0,1-.35-.24,7.647,7.647,0,0,1-1-.91,6.189,6.189,0,0,1-.9-1.41,7.448,7.448,0,0,1-.56-1.75,8.282,8.282,0,0,1-.05-1.92,4.442,4.442,0,0,1,.44-1.63,7.37,7.37,0,0,1,.66-1.14,2.667,2.667,0,0,1,.26-.32Z" fill="#252a3f"/>
    <path id="Path_369" data-name="Path 369" d="M410.5,406.05l.11.09c.07.06.19.14.3.25a5.862,5.862,0,0,1,.8.91,9.322,9.322,0,0,1,.71,1.28,4.5,4.5,0,0,1,.42,1.38,5.81,5.81,0,0,1,.07.74,4.831,4.831,0,0,1,0,.76,7.171,7.171,0,0,1-.33,1.42A6.8,6.8,0,0,1,412,414a3.1,3.1,0,0,1-.22.33l-.09.11-.12-.07a3.632,3.632,0,0,1-.33-.2,6,6,0,0,1-.94-.79,4.5,4.5,0,0,1-.86-1.23,5.381,5.381,0,0,1-.5-1.56,6.37,6.37,0,0,1,0-1.69,4,4,0,0,1,.49-1.42,5.553,5.553,0,0,1,.68-1c.09-.12.2-.22.26-.29Z" fill="#252a3f"/>
    <path id="Path_370" data-name="Path 370" d="M403.23,417l.11.09a3,3,0,0,1,.31.23,6.3,6.3,0,0,1,.83.86,5.4,5.4,0,0,1,1.1,2.75c0,.27.06.49.07.74a4.179,4.179,0,0,1,0,.71,4.869,4.869,0,0,1-.35,1.35,5.823,5.823,0,0,1-.55,1,2.83,2.83,0,0,1-.22.32l-.09.11-.12-.07a2.232,2.232,0,0,1-.33-.2,5.161,5.161,0,0,1-.92-.8,5.62,5.62,0,0,1-.87-1.26,4.928,4.928,0,0,1-.31-.75,2.862,2.862,0,0,1-.19-.78,5.49,5.49,0,0,1,.55-2.93,6.119,6.119,0,0,1,.65-1c.09-.12.2-.22.25-.29Z" fill="#252a3f"/>
    <path id="Path_371" data-name="Path 371" d="M375,403.41l.11.08c.06.06.19.15.3.26a6.5,6.5,0,0,1,.8.91,8.656,8.656,0,0,1,.71,1.27,4.579,4.579,0,0,1,.42,1.38c0,.23.07.5.07.75a3.767,3.767,0,0,1,0,.75,5.889,5.889,0,0,1-.33,1.42,6.171,6.171,0,0,1-.53,1.09,2.825,2.825,0,0,1-.22.32l-.08.12-.13-.07a3.272,3.272,0,0,1-.33-.21,5.806,5.806,0,0,1-.93-.78,4.71,4.71,0,0,1-.86-1.24,5.22,5.22,0,0,1-.5-1.55,6.45,6.45,0,0,1,0-1.7,3.841,3.841,0,0,1,.48-1.42,6.6,6.6,0,0,1,.68-1,2.481,2.481,0,0,1,.27-.28.721.721,0,0,1,.07-.1Z" fill="#252a3f"/>
    <path id="Path_372" data-name="Path 372" d="M363,405.72l.12.07.3.22a5.471,5.471,0,0,1,.81.8,4.84,4.84,0,0,1,1,2.58A4.37,4.37,0,0,1,365,412a6.2,6.2,0,0,1-.57,1,2.109,2.109,0,0,1-.23.3l-.08.1-.12-.06a2.918,2.918,0,0,1-.33-.18,5.81,5.81,0,0,1-.91-.74,5.23,5.23,0,0,1-1.35-2.62A4.92,4.92,0,0,1,362,407a7.007,7.007,0,0,1,.66-1,3.389,3.389,0,0,1,.27-.27Z" fill="#252a3f"/>
    <path id="Path_373" data-name="Path 373" d="M366.82,423l.11.07a2.727,2.727,0,0,1,.3.22,5.468,5.468,0,0,1,.81.8,4.73,4.73,0,0,1,1,2.57,4.33,4.33,0,0,1-.31,2.62,6.094,6.094,0,0,1-.56,1,3.674,3.674,0,0,1-.23.3l-.09.11-.12-.06a2.591,2.591,0,0,1-.33-.19,5.15,5.15,0,0,1-.9-.73,5.28,5.28,0,0,1-1.36-2.62,5,5,0,0,1,.61-2.75,5.331,5.331,0,0,1,.67-.95c.09-.12.2-.21.26-.28Z" fill="#252a3f"/>
    <path id="Path_374" data-name="Path 374" d="M350,408.92l.11.07a2.73,2.73,0,0,1,.3.22,6.5,6.5,0,0,1,.82.79,4.71,4.71,0,0,1,1.05,2.56c0,.24.05.46.06.68a3.659,3.659,0,0,1,0,.66,4.389,4.389,0,0,1-.36,1.25,6.377,6.377,0,0,1-.57,1,2.281,2.281,0,0,1-.23.3l-.08.11-.13-.06c-.07-.05-.2-.1-.32-.18a5.811,5.811,0,0,1-.91-.74,4.93,4.93,0,0,1-.84-1.17,4.341,4.341,0,0,1-.3-.7,2.519,2.519,0,0,1-.18-.73,4.81,4.81,0,0,1,.6-2.72,5.221,5.221,0,0,1,.66-.94c.09-.12.2-.21.26-.28Z" fill="#252a3f"/>
    <path id="Path_375" data-name="Path 375" d="M377.32,421.36l.12.07a3.627,3.627,0,0,1,.34.2,6.81,6.81,0,0,1,.93.77,5.6,5.6,0,0,1,1.43,2.65,5.5,5.5,0,0,1-.18,3,5.838,5.838,0,0,1-.53,1.09,2.128,2.128,0,0,1-.22.32l-.08.12-.12-.07a3.618,3.618,0,0,1-.34-.2,6.252,6.252,0,0,1-.93-.77,5.46,5.46,0,0,1-1.24-5.65,5.878,5.878,0,0,1,.52-1.09,2.131,2.131,0,0,1,.22-.32Z" fill="#252a3f"/>
    <path id="Path_376" data-name="Path 376" d="M355.9,425.46l.11.08a3.451,3.451,0,0,1,.3.24,6,6,0,0,1,.79.84,7.81,7.81,0,0,1,.69,1.2,3.82,3.82,0,0,1,.39,1.27,4.9,4.9,0,0,1,.06.68,4.115,4.115,0,0,1,0,.7,5.7,5.7,0,0,1-.35,1.32,6.288,6.288,0,0,1-.54,1c-.08.13-.18.24-.23.31l-.08.1-.13-.06a1,1,0,0,1-.33-.18,6.148,6.148,0,0,1-.91-.72,4.19,4.19,0,0,1-.85-1.15,4.66,4.66,0,0,1-.47-1.45,5.629,5.629,0,0,1,0-1.59,4,4,0,0,1,.51-1.32,6.067,6.067,0,0,1,.69-.93c.09-.11.21-.2.27-.27Z" fill="#252a3f"/>
    <path id="Path_377" data-name="Path 377" d="M393.69,376.51l.1.08a2,2,0,0,1,.29.22,5.08,5.08,0,0,1,.77.81,4.582,4.582,0,0,1,.35.54c.1.2.23.35.32.54a3.11,3.11,0,0,1,.36,1.13,4.42,4.42,0,0,1-.35,2.51,6.261,6.261,0,0,1-.56,1c-.08.11-.18.22-.23.28l-.09.1-.12-.05a2.61,2.61,0,0,1-.32-.17,5.851,5.851,0,0,1-.91-.65,3.749,3.749,0,0,1-.82-1.05,4.36,4.36,0,0,1-.47-1.34,5.14,5.14,0,0,1,.05-1.52,2.76,2.76,0,0,1,.2-.67,4.34,4.34,0,0,1,.33-.56,5.86,5.86,0,0,1,.72-.84c.09-.1.21-.18.27-.24Z" fill="#252a3f"/>
    <path id="Path_378" data-name="Path 378" d="M420.72,413.65l.12.06c.08.05.21.1.33.18a6.758,6.758,0,0,1,.92.71,5,5,0,0,1,1.39,2.44,4.93,4.93,0,0,1-.23,2.81,6.291,6.291,0,0,1-.54,1,1.8,1.8,0,0,1-.22.3l-.09.11-.12-.06a1,1,0,0,1-.33-.18,5.468,5.468,0,0,1-.92-.7,4.79,4.79,0,0,1-1.15-5.25,6.073,6.073,0,0,1,.53-1c.08-.12.18-.23.23-.3Z" fill="#252a3f"/>
  </g>
</svg>
