<svg xmlns="http://www.w3.org/2000/svg" width="59.072" height="62.881" viewBox="0 0 59.072 62.881">
  <g id="Group_54" data-name="Group 54" transform="translate(-19.877 -237.89)">
    <path id="Path_132" data-name="Path 132" d="M64.544,248.19q-3.42,24.092-6.86,48.21c-.173,1.231,1.71,1.763,1.89.519l6.866-48.2c.18-1.231-1.7-1.763-1.883-.519Z" transform="translate(-12.649 -3.214)" fill="#fff"/>
    <path id="Path_133" data-name="Path 133" d="M58.247,251.778l5.17,5.655c.852.931,2.229-.459,1.384-1.384l-5.17-5.655c-.852-.931-2.229.452-1.384,1.384Z" transform="translate(-12.752 -4.081)" fill="#fff"/>
    <path id="Path_134" data-name="Path 134" d="M68.492,258.608l6.54-3.992a.979.979,0,0,0-.985-1.69l-6.54,3.992C66.436,257.583,67.414,259.266,68.492,258.608Z" transform="translate(-15.785 -4.982)" fill="#fff"/>
    <path id="Path_135" data-name="Path 135" d="M50.27,314.346l6.54-3.992a.98.98,0,0,0-.991-1.69l-6.534,3.992C48.208,313.322,49.192,315.005,50.27,314.346Z" transform="translate(-9.686 -23.635)" fill="#fff"/>
    <path id="Path_136" data-name="Path 136" d="M60.187,310.392l5.163,5.655c.852.931,2.236-.452,1.384-1.384l-5.163-5.649C60.719,308.083,59.342,309.467,60.187,310.392Z" transform="translate(-13.402 -23.699)" fill="#fff"/>
    <path id="Path_137" data-name="Path 137" d="M34.279,262.793l38.29,30.053c.978.765,2.375-.605,1.384-1.384l-38.29-30.047c-.978-.772-2.375.605-1.384,1.377Z" transform="translate(-4.706 -7.797)" fill="#fff"/>
    <path id="Path_138" data-name="Path 138" d="M32.565,272.209l7.478-1.65c1.231-.266.705-2.156-.519-1.883l-7.478,1.637c-1.231.273-.712,2.156.519,1.89Z" transform="translate(-3.837 -10.294)" fill="#fff"/>
    <path id="Path_139" data-name="Path 139" d="M45.222,264.742l-.206-7.658a.979.979,0,0,0-1.956,0l.186,7.658a.979.979,0,0,0,1.956,0Z" transform="translate(-7.758 -6.107)" fill="#fff"/>
    <path id="Path_140" data-name="Path 140" d="M84.375,308.406l-.18-7.651a.979.979,0,0,0-1.956,0l.18,7.651A.979.979,0,0,0,84.375,308.406Z" transform="translate(-20.87 -20.722)" fill="#fff"/>
    <path id="Path_141" data-name="Path 141" d="M84.3,299.829l7.478-1.65c1.231-.266.705-2.156-.519-1.883l-7.478,1.643C82.545,298.213,83.064,300.1,84.3,299.829Z" transform="translate(-21.149 -19.537)" fill="#fff"/>
    <path id="Path_142" data-name="Path 142" d="M74.777,270.053,29.6,288.2c-1.151.459-.665,2.355.519,1.883L75.3,271.943C76.453,271.477,75.968,269.587,74.777,270.053Z" transform="translate(-3.034 -10.739)" fill="#fff"/>
    <path id="Path_143" data-name="Path 143" d="M88.3,263.437l-2.309,7.319c-.386,1.2,1.5,1.717,1.883.519l2.315-7.319c.379-1.2-1.51-1.717-1.89-.519Z" transform="translate(-22.109 -8.322)" fill="#fff"/>
    <path id="Path_144" data-name="Path 144" d="M86.935,276.706l6.72,3.673c1.1.605,2.1-1.085.985-1.69l-6.72-3.673C86.816,274.417,85.824,276.1,86.935,276.706Z" transform="translate(-22.279 -12.382)" fill="#fff"/>
    <path id="Path_145" data-name="Path 145" d="M29.545,288.776l6.72,3.673c1.1.605,2.089-1.085.985-1.69l-6.72-3.673C29.426,286.487,28.434,288.171,29.545,288.776Z" transform="translate(-3.073 -16.422)" fill="#fff"/>
    <path id="Path_146" data-name="Path 146" d="M38.51,294.422l-2.315,7.319c-.379,1.2,1.51,1.723,1.89.526l2.309-7.319c.386-1.2-1.5-1.717-1.883-.519Z" transform="translate(-5.444 -18.694)" fill="#fff"/>
    <path id="Path_147" data-name="Path 147" d="M69.187,243.106c3.327,0,3.367-5.216,0-5.216S65.861,243.106,69.187,243.106Z" transform="translate(-15.662 0)" fill="#fff"/>
    <path id="Path_148" data-name="Path 148" d="M56.821,329.776c3.327,0,3.367-5.216,0-5.216S53.461,329.776,56.821,329.776Z" transform="translate(-11.52 -29.005)" fill="#fff"/>
    <path id="Path_149" data-name="Path 149" d="M28.567,259.426c3.36,0,3.367-5.216,0-5.216S25.241,259.426,28.567,259.426Z" transform="translate(-2.068 -5.462)" fill="#fff"/>
    <path id="Path_150" data-name="Path 150" d="M97.447,313.466c3.36,0,3.367-5.216,0-5.216S94.121,313.466,97.447,313.466Z" transform="translate(-25.12 -23.547)" fill="#fff"/>
    <path id="Path_151" data-name="Path 151" d="M103.627,270.126c3.327,0,3.367-5.216,0-5.216S100.3,270.126,103.627,270.126Z" transform="translate(-27.188 -9.043)" fill="#fff"/>
    <path id="Path_152" data-name="Path 152" d="M22.387,302.756c3.36,0,3.367-5.216,0-5.216S19.061,302.756,22.387,302.756Z" transform="translate(0 -19.963)" fill="#fff"/>
  </g>
</svg>
