<svg xmlns="http://www.w3.org/2000/svg" width="52.473" height="53.092" viewBox="0 0 52.473 53.092">
  <path id="Path_567" data-name="Path 567" d="M704.925,461.581a214.481,214.481,0,0,0-6.98-37.263,1.292,1.292,0,0,0-1.09-.841,1.365,1.365,0,0,0-1.29.558,102.085,102.085,0,0,0-16.022,35.413,1.281,1.281,0,0,0,1.911,1.341c10.4-7.07,21.684-13.024,31.761-20.506a1.118,1.118,0,0,0,.333-1.14,1.247,1.247,0,0,0-.908-.839,324.146,324.146,0,0,0-35.309-2.682,1.328,1.328,0,0,0-1.128.6,1.1,1.1,0,0,0,0,1.19c7.732,9.308,18.066,16.329,26.5,25.047,1.115,1.147,2.946-.533,1.84-1.681-8.281-8.556-18.508-15.432-26.09-24.57L677.331,438a319.727,319.727,0,0,1,34.619,2.594l-.575-1.988c-9.9,7.352-21.012,13.186-31.239,20.142l1.911,1.341a100.1,100.1,0,0,1,15.766-34.823l-2.345-.315a211.453,211.453,0,0,1,6.883,36.633c.168,1.511,2.769,1.527,2.6,0Z" transform="translate(-797.572 4.545) rotate(-31)" fill="#2f8d5b"/>
</svg>
